<?xml version="1.0" encoding="UTF-8" standalone="no"?>
<!DOCTYPE svg PUBLIC "-//W3C//DTD SVG 1.1//EN"
 "http://www.w3.org/Graphics/SVG/1.1/DTD/svg11.dtd">
<!-- Generated by graphviz version 2.43.0 (0)
 -->
<!-- Title: %3 Pages: 1 -->
<svg width="3322pt" height="238pt"
 viewBox="0.00 0.00 3321.50 237.74" xmlns="http://www.w3.org/2000/svg" xmlns:xlink="http://www.w3.org/1999/xlink">
<g id="graph0" class="graph" transform="scale(1 1) rotate(0) translate(36 201.74)">
<title>%3</title>
<polygon fill="dimgray" stroke="transparent" points="-36,36 -36,-201.74 3285.5,-201.74 3285.5,36 -36,36"/>
<text text-anchor="middle" x="1624.75" y="-150.54" font-family="Helvetica,sans-Serif" font-size="14.00">Sweep&#39;s Plan &amp; Progress</text>
<!-- start -->
<g id="node1" class="node">
<title>start</title>
</g>
<!-- cfd6c7d8&#45;9cc1&#45;42d0&#45;b385&#45;32741fdf741e -->
<g id="node3" class="node">
<title>cfd6c7d8&#45;9cc1&#45;42d0&#45;b385&#45;32741fdf741e</title>
<ellipse fill="yellow" stroke="black" cx="193" cy="-99.87" rx="96.75" ry="26.74"/>
<text text-anchor="middle" x="193" y="-103.67" font-family="Helvetica,sans-Serif" font-size="14.00">⋯ Create</text>
<text text-anchor="middle" x="193" y="-88.67" font-family="Helvetica,sans-Serif" font-size="14.00">src/dashboard.py</text>
</g>
<!-- start&#45;&gt;cfd6c7d8&#45;9cc1&#45;42d0&#45;b385&#45;32741fdf741e -->
<g id="edge12" class="edge">
<title>start&#45;&gt;cfd6c7d8&#45;9cc1&#45;42d0&#45;b385&#45;32741fdf741e</title>
<path fill="none" stroke="black" d="M44.66,-99.87C48.13,-99.87 64.74,-99.87 85.68,-99.87"/>
<polygon fill="black" stroke="black" points="85.92,-103.37 95.92,-99.87 85.92,-96.37 85.92,-103.37"/>
<text text-anchor="middle" x="70.31" y="-106.67" font-family="Helvetica,sans-Serif" font-size="14.00">Start</text>
</g>
<!-- end -->
<g id="node2" class="node">
<title>end</title>
</g>
<!-- 3d3b8f39&#45;1621&#45;4ce4&#45;964f&#45;6ab7125d2e83 -->
<g id="node4" class="node">
<title>3d3b8f39&#45;1621&#45;4ce4&#45;964f&#45;6ab7125d2e83</title>
<ellipse fill="white" stroke="black" cx="652" cy="-99.87" rx="296.97" ry="26.74"/>
<text text-anchor="middle" x="652" y="-103.67" font-family="Helvetica,sans-Serif" font-size="14.00">▶ Modify</text>
<text text-anchor="middle" x="652" y="-88.67" font-family="Helvetica,sans-Serif" font-size="14.00">src/openai/types/beta/threads/message_create_params.py</text>
</g>
<!-- cfd6c7d8&#45;9cc1&#45;42d0&#45;b385&#45;32741fdf741e&#45;&gt;3d3b8f39&#45;1621&#45;4ce4&#45;964f&#45;6ab7125d2e83 -->
<g id="edge2" class="edge">
<title>cfd6c7d8&#45;9cc1&#45;42d0&#45;b385&#45;32741fdf741e&#45;&gt;3d3b8f39&#45;1621&#45;4ce4&#45;964f&#45;6ab7125d2e83</title>
<path fill="none" stroke="black" d="M290.27,-99.87C308.45,-99.87 326.63,-99.87 344.81,-99.87"/>
<polygon fill="black" stroke="black" points="344.91,-103.37 354.91,-99.87 344.91,-96.37 344.91,-103.37"/>
</g>
<!-- 5766749f&#45;cfd1&#45;4e82&#45;9ed6&#45;49f6a503efd7 -->
<g id="node9" class="node">
<title>5766749f&#45;cfd1&#45;4e82&#45;9ed6&#45;49f6a503efd7</title>
<polygon fill="white" stroke="black" points="328,-36 0,-36 0,0 328,0 328,-36"/>
<text text-anchor="middle" x="164" y="-14.3" font-family="Helvetica,sans-Serif" font-size="14.00">▶ Run GitHub Actions for `src/dashboard.py`</text>
</g>
<!-- cfd6c7d8&#45;9cc1&#45;42d0&#45;b385&#45;32741fdf741e&#45;&gt;5766749f&#45;cfd1&#45;4e82&#45;9ed6&#45;49f6a503efd7 -->
<g id="edge1" class="edge">
<title>cfd6c7d8&#45;9cc1&#45;42d0&#45;b385&#45;32741fdf741e&#45;&gt;5766749f&#45;cfd1&#45;4e82&#45;9ed6&#45;49f6a503efd7</title>
<path fill="none" stroke="black" stroke-dasharray="5,2" d="M183.5,-72.72C180.37,-64.08 176.88,-54.47 173.73,-45.79"/>
<polygon fill="black" stroke="black" points="176.93,-44.35 170.23,-36.15 170.35,-46.74 176.93,-44.35"/>
</g>
<!-- 6db54d0d&#45;ca3c&#45;4289&#45;bb8f&#45;69782b67b507 -->
<g id="node5" class="node">
<title>6db54d0d&#45;ca3c&#45;4289&#45;bb8f&#45;69782b67b507</title>
<ellipse fill="white" stroke="black" cx="1276" cy="-99.87" rx="289.83" ry="26.74"/>
<text text-anchor="middle" x="1276" y="-103.67" font-family="Helvetica,sans-Serif" font-size="14.00">▶ Modify</text>
<text text-anchor="middle" x="1276" y="-88.67" font-family="Helvetica,sans-Serif" font-size="14.00">src/openai/types/beta/thread_create_and_run_params.py</text>
</g>
<!-- 3d3b8f39&#45;1621&#45;4ce4&#45;964f&#45;6ab7125d2e83&#45;&gt;6db54d0d&#45;ca3c&#45;4289&#45;bb8f&#45;69782b67b507 -->
<g id="edge4" class="edge">
<title>3d3b8f39&#45;1621&#45;4ce4&#45;964f&#45;6ab7125d2e83&#45;&gt;6db54d0d&#45;ca3c&#45;4289&#45;bb8f&#45;69782b67b507</title>
<path fill="none" stroke="black" d="M949.07,-99.87C957.96,-99.87 966.85,-99.87 975.75,-99.87"/>
<polygon fill="black" stroke="black" points="975.79,-103.37 985.79,-99.87 975.79,-96.37 975.79,-103.37"/>
</g>
<!-- 6224976b&#45;e9c6&#45;44f8&#45;8494&#45;54f318bac4da -->
<g id="node10" class="node">
<title>6224976b&#45;e9c6&#45;44f8&#45;8494&#45;54f318bac4da</title>
<polygon fill="white" stroke="black" points="957.5,-36 346.5,-36 346.5,0 957.5,0 957.5,-36"/>
<text text-anchor="middle" x="652" y="-14.3" font-family="Helvetica,sans-Serif" font-size="14.00">▶ Run GitHub Actions for `src/openai/types/beta/threads/message_create_params.py`</text>
</g>
<!-- 3d3b8f39&#45;1621&#45;4ce4&#45;964f&#45;6ab7125d2e83&#45;&gt;6224976b&#45;e9c6&#45;44f8&#45;8494&#45;54f318bac4da -->
<g id="edge3" class="edge">
<title>3d3b8f39&#45;1621&#45;4ce4&#45;964f&#45;6ab7125d2e83&#45;&gt;6224976b&#45;e9c6&#45;44f8&#45;8494&#45;54f318bac4da</title>
<path fill="none" stroke="black" stroke-dasharray="5,2" d="M652,-72.72C652,-64.27 652,-54.89 652,-46.36"/>
<polygon fill="black" stroke="black" points="655.5,-46.15 652,-36.15 648.5,-46.15 655.5,-46.15"/>
</g>
<!-- c3735f7e&#45;fa5c&#45;48dd&#45;abf5&#45;e54782404653 -->
<g id="node6" class="node">
<title>c3735f7e&#45;fa5c&#45;48dd&#45;abf5&#45;e54782404653</title>
<ellipse fill="white" stroke="black" cx="1868" cy="-99.87" rx="251.05" ry="26.74"/>
<text text-anchor="middle" x="1868" y="-103.67" font-family="Helvetica,sans-Serif" font-size="14.00">▶ Modify</text>
<text text-anchor="middle" x="1868" y="-88.67" font-family="Helvetica,sans-Serif" font-size="14.00">src/openai/types/create_embedding_response.py</text>
</g>
<!-- 6db54d0d&#45;ca3c&#45;4289&#45;bb8f&#45;69782b67b507&#45;&gt;c3735f7e&#45;fa5c&#45;48dd&#45;abf5&#45;e54782404653 -->
<g id="edge6" class="edge">
<title>6db54d0d&#45;ca3c&#45;4289&#45;bb8f&#45;69782b67b507&#45;&gt;c3735f7e&#45;fa5c&#45;48dd&#45;abf5&#45;e54782404653</title>
<path fill="none" stroke="black" d="M1565.93,-99.87C1579.49,-99.87 1593.04,-99.87 1606.6,-99.87"/>
<polygon fill="black" stroke="black" points="1606.96,-103.37 1616.96,-99.87 1606.96,-96.37 1606.96,-103.37"/>
</g>
<!-- 67c986c8&#45;8c28&#45;4714&#45;b573&#45;9abb3811fbfe -->
<g id="node11" class="node">
<title>67c986c8&#45;8c28&#45;4714&#45;b573&#45;9abb3811fbfe</title>
<polygon fill="white" stroke="black" points="1576.5,-36 975.5,-36 975.5,0 1576.5,0 1576.5,-36"/>
<text text-anchor="middle" x="1276" y="-14.3" font-family="Helvetica,sans-Serif" font-size="14.00">▶ Run GitHub Actions for `src/openai/types/beta/thread_create_and_run_params.py`</text>
</g>
<!-- 6db54d0d&#45;ca3c&#45;4289&#45;bb8f&#45;69782b67b507&#45;&gt;67c986c8&#45;8c28&#45;4714&#45;b573&#45;9abb3811fbfe -->
<g id="edge5" class="edge">
<title>6db54d0d&#45;ca3c&#45;4289&#45;bb8f&#45;69782b67b507&#45;&gt;67c986c8&#45;8c28&#45;4714&#45;b573&#45;9abb3811fbfe</title>
<path fill="none" stroke="black" stroke-dasharray="5,2" d="M1276,-72.72C1276,-64.27 1276,-54.89 1276,-46.36"/>
<polygon fill="black" stroke="black" points="1279.5,-46.15 1276,-36.15 1272.5,-46.15 1279.5,-46.15"/>
</g>
<!-- 768e5dce&#45;2552&#45;414a&#45;874f&#45;420d0128e88a -->
<g id="node7" class="node">
<title>768e5dce&#45;2552&#45;414a&#45;874f&#45;420d0128e88a</title>
<ellipse fill="white" stroke="black" cx="2453" cy="-99.87" rx="280.94" ry="26.74"/>
<text text-anchor="middle" x="2453" y="-103.67" font-family="Helvetica,sans-Serif" font-size="14.00">▶ Modify</text>
<text text-anchor="middle" x="2453" y="-88.67" font-family="Helvetica,sans-Serif" font-size="14.00">src/openai/types/audio/transcription_create_params.py</text>
</g>
<!-- c3735f7e&#45;fa5c&#45;48dd&#45;abf5&#45;e54782404653&#45;&gt;768e5dce&#45;2552&#45;414a&#45;874f&#45;420d0128e88a -->
<g id="edge8" class="edge">
<title>c3735f7e&#45;fa5c&#45;48dd&#45;abf5&#45;e54782404653&#45;&gt;768e5dce&#45;2552&#45;414a&#45;874f&#45;420d0128e88a</title>
<path fill="none" stroke="black" d="M2119.08,-99.87C2133.34,-99.87 2147.6,-99.87 2161.85,-99.87"/>
<polygon fill="black" stroke="black" points="2162.23,-103.37 2172.23,-99.87 2162.23,-96.37 2162.23,-103.37"/>
</g>
<!-- 49a94454&#45;c9a1&#45;4bb3&#45;8f0c&#45;7005a56f0064 -->
<g id="node12" class="node">
<title>49a94454&#45;c9a1&#45;4bb3&#45;8f0c&#45;7005a56f0064</title>
<polygon fill="white" stroke="black" points="2141,-36 1595,-36 1595,0 2141,0 2141,-36"/>
<text text-anchor="middle" x="1868" y="-14.3" font-family="Helvetica,sans-Serif" font-size="14.00">▶ Run GitHub Actions for `src/openai/types/create_embedding_response.py`</text>
</g>
<!-- c3735f7e&#45;fa5c&#45;48dd&#45;abf5&#45;e54782404653&#45;&gt;49a94454&#45;c9a1&#45;4bb3&#45;8f0c&#45;7005a56f0064 -->
<g id="edge7" class="edge">
<title>c3735f7e&#45;fa5c&#45;48dd&#45;abf5&#45;e54782404653&#45;&gt;49a94454&#45;c9a1&#45;4bb3&#45;8f0c&#45;7005a56f0064</title>
<path fill="none" stroke="black" stroke-dasharray="5,2" d="M1868,-72.72C1868,-64.27 1868,-54.89 1868,-46.36"/>
<polygon fill="black" stroke="black" points="1871.5,-46.15 1868,-36.15 1864.5,-46.15 1871.5,-46.15"/>
</g>
<!-- 178e0824&#45;8bb9&#45;4b04&#45;8f2d&#45;f7b4dbbd163a -->
<g id="node8" class="node">
<title>178e0824&#45;8bb9&#45;4b04&#45;8f2d&#45;f7b4dbbd163a</title>
<ellipse fill="white" stroke="black" cx="2988" cy="-99.87" rx="202.88" ry="26.74"/>
<text text-anchor="middle" x="2988" y="-103.67" font-family="Helvetica,sans-Serif" font-size="14.00">▶ Modify</text>
<text text-anchor="middle" x="2988" y="-88.67" font-family="Helvetica,sans-Serif" font-size="14.00">src/openai/types/file_create_params.py</text>
</g>
<!-- 768e5dce&#45;2552&#45;414a&#45;874f&#45;420d0128e88a&#45;&gt;178e0824&#45;8bb9&#45;4b04&#45;8f2d&#45;f7b4dbbd163a -->
<g id="edge10" class="edge">
<title>768e5dce&#45;2552&#45;414a&#45;874f&#45;420d0128e88a&#45;&gt;178e0824&#45;8bb9&#45;4b04&#45;8f2d&#45;f7b4dbbd163a</title>
<path fill="none" stroke="black" d="M2733.82,-99.87C2747.41,-99.87 2760.99,-99.87 2774.57,-99.87"/>
<polygon fill="black" stroke="black" points="2774.96,-103.37 2784.96,-99.87 2774.96,-96.37 2774.96,-103.37"/>
</g>
<!-- 62c63cb0&#45;fb89&#45;4337&#45;98d9&#45;c500d35ad9b6 -->
<g id="node13" class="node">
<title>62c63cb0&#45;fb89&#45;4337&#45;98d9&#45;c500d35ad9b6</title>
<polygon fill="white" stroke="black" points="2747,-36 2159,-36 2159,0 2747,0 2747,-36"/>
<text text-anchor="middle" x="2453" y="-14.3" font-family="Helvetica,sans-Serif" font-size="14.00">▶ Run GitHub Actions for `src/openai/types/audio/transcription_create_params.py`</text>
</g>
<!-- 768e5dce&#45;2552&#45;414a&#45;874f&#45;420d0128e88a&#45;&gt;62c63cb0&#45;fb89&#45;4337&#45;98d9&#45;c500d35ad9b6 -->
<g id="edge9" class="edge">
<title>768e5dce&#45;2552&#45;414a&#45;874f&#45;420d0128e88a&#45;&gt;62c63cb0&#45;fb89&#45;4337&#45;98d9&#45;c500d35ad9b6</title>
<path fill="none" stroke="black" stroke-dasharray="5,2" d="M2453,-72.72C2453,-64.27 2453,-54.89 2453,-46.36"/>
<polygon fill="black" stroke="black" points="2456.5,-46.15 2453,-36.15 2449.5,-46.15 2456.5,-46.15"/>
</g>
<!-- 178e0824&#45;8bb9&#45;4b04&#45;8f2d&#45;f7b4dbbd163a&#45;&gt;end -->
<g id="edge13" class="edge">
<title>178e0824&#45;8bb9&#45;4b04&#45;8f2d&#45;f7b4dbbd163a&#45;&gt;end</title>
<path fill="none" stroke="black" d="M3191.08,-99.87C3211.11,-99.87 3227.81,-99.87 3238.04,-99.87"/>
<polygon fill="black" stroke="black" points="3238.37,-103.37 3248.37,-99.87 3238.37,-96.37 3238.37,-103.37"/>
<text text-anchor="middle" x="3219.72" y="-106.67" font-family="Helvetica,sans-Serif" font-size="14.00">Finish</text>
</g>
<!-- a4f0350a&#45;29fb&#45;480b&#45;9957&#45;044fa3bde51d -->
<g id="node14" class="node">
<title>a4f0350a&#45;29fb&#45;480b&#45;9957&#45;044fa3bde51d</title>
<polygon fill="white" stroke="black" points="3243,-36 2765,-36 2765,0 3243,0 3243,-36"/>
<text text-anchor="middle" x="3004" y="-14.3" font-family="Helvetica,sans-Serif" font-size="14.00">▶ Run GitHub Actions for `src/openai/types/file_create_params.py`</text>
</g>
<!-- 178e0824&#45;8bb9&#45;4b04&#45;8f2d&#45;f7b4dbbd163a&#45;&gt;a4f0350a&#45;29fb&#45;480b&#45;9957&#45;044fa3bde51d -->
<g id="edge11" class="edge">
<title>178e0824&#45;8bb9&#45;4b04&#45;8f2d&#45;f7b4dbbd163a&#45;&gt;a4f0350a&#45;29fb&#45;480b&#45;9957&#45;044fa3bde51d</title>
<path fill="none" stroke="black" stroke-dasharray="5,2" d="M2993.24,-72.72C2994.95,-64.18 2996.85,-54.68 2998.58,-46.08"/>
<polygon fill="black" stroke="black" points="3002.03,-46.64 3000.57,-36.15 2995.17,-45.26 3002.03,-46.64"/>
</g>
</g>
</svg>
