<?xml version="1.0" encoding="UTF-8" standalone="no"?>
<!DOCTYPE svg PUBLIC "-//W3C//DTD SVG 1.1//EN"
 "http://www.w3.org/Graphics/SVG/1.1/DTD/svg11.dtd">
<!-- Generated by graphviz version 2.43.0 (0)
 -->
<!-- Title: %3 Pages: 1 -->
<svg width="872pt" height="238pt"
 viewBox="0.00 0.00 872.00 237.74" xmlns="http://www.w3.org/2000/svg" xmlns:xlink="http://www.w3.org/1999/xlink">
<g id="graph0" class="graph" transform="scale(1 1) rotate(0) translate(36 201.74)">
<title>%3</title>
<polygon fill="dimgray" stroke="transparent" points="-36,36 -36,-201.74 836,-201.74 836,36 -36,36"/>
<text text-anchor="middle" x="400" y="-150.54" font-family="Helvetica,sans-Serif" font-size="14.00">Sweep&#39;s Plan &amp; Progress</text>
<!-- start -->
<g id="node1" class="node">
<title>start</title>
</g>
<!-- c93c9d5f&#45;22a5&#45;4053&#45;b18e&#45;be4a1bb38c91 -->
<g id="node3" class="node">
<title>c93c9d5f&#45;22a5&#45;4053&#45;b18e&#45;be4a1bb38c91</title>
<ellipse fill="yellow" stroke="black" cx="249" cy="-99.87" rx="153.38" ry="26.74"/>
<text text-anchor="middle" x="249" y="-103.67" font-family="Helvetica,sans-Serif" font-size="14.00">⋯ Create</text>
<text text-anchor="middle" x="249" y="-88.67" font-family="Helvetica,sans-Serif" font-size="14.00">src/openai/cli/cheat_sheet.py</text>
</g>
<!-- start&#45;&gt;c93c9d5f&#45;22a5&#45;4053&#45;b18e&#45;be4a1bb38c91 -->
<g id="edge4" class="edge">
<title>start&#45;&gt;c93c9d5f&#45;22a5&#45;4053&#45;b18e&#45;be4a1bb38c91</title>
<path fill="none" stroke="black" d="M44.59,-99.87C47.79,-99.87 63.78,-99.87 85.52,-99.87"/>
<polygon fill="black" stroke="black" points="85.52,-103.37 95.52,-99.87 85.52,-96.37 85.52,-103.37"/>
<text text-anchor="middle" x="70.03" y="-106.67" font-family="Helvetica,sans-Serif" font-size="14.00">Start</text>
</g>
<!-- end -->
<g id="node2" class="node">
<title>end</title>
</g>
<!-- 2b10bc63&#45;a484&#45;43e2&#45;bb30&#45;ecd25b804d18 -->
<g id="node4" class="node">
<title>2b10bc63&#45;a484&#45;43e2&#45;bb30&#45;ecd25b804d18</title>
<ellipse fill="white" stroke="black" cx="590" cy="-99.87" rx="128.89" ry="26.74"/>
<text text-anchor="middle" x="590" y="-103.67" font-family="Helvetica,sans-Serif" font-size="14.00">▶ Modify</text>
<text text-anchor="middle" x="590" y="-88.67" font-family="Helvetica,sans-Serif" font-size="14.00">src/openai/cli/__init__.py</text>
</g>
<!-- c93c9d5f&#45;22a5&#45;4053&#45;b18e&#45;be4a1bb38c91&#45;&gt;2b10bc63&#45;a484&#45;43e2&#45;bb30&#45;ecd25b804d18 -->
<g id="edge2" class="edge">
<title>c93c9d5f&#45;22a5&#45;4053&#45;b18e&#45;be4a1bb38c91&#45;&gt;2b10bc63&#45;a484&#45;43e2&#45;bb30&#45;ecd25b804d18</title>
<path fill="none" stroke="black" d="M402.52,-99.87C418.69,-99.87 434.86,-99.87 451.04,-99.87"/>
<polygon fill="black" stroke="black" points="451.11,-103.37 461.11,-99.87 451.11,-96.37 451.11,-103.37"/>
</g>
<!-- 69c5eed3&#45;b75c&#45;43a8&#45;83e1&#45;288fe1d0ba2a -->
<g id="node5" class="node">
<title>69c5eed3&#45;b75c&#45;43a8&#45;83e1&#45;288fe1d0ba2a</title>
<polygon fill="white" stroke="black" points="408,-36 0,-36 0,0 408,0 408,-36"/>
<text text-anchor="middle" x="204" y="-14.3" font-family="Helvetica,sans-Serif" font-size="14.00">▶ Run GitHub Actions for `src/openai/cli/cheat_sheet.py`</text>
</g>
<!-- c93c9d5f&#45;22a5&#45;4053&#45;b18e&#45;be4a1bb38c91&#45;&gt;69c5eed3&#45;b75c&#45;43a8&#45;83e1&#45;288fe1d0ba2a -->
<g id="edge1" class="edge">
<title>c93c9d5f&#45;22a5&#45;4053&#45;b18e&#45;be4a1bb38c91&#45;&gt;69c5eed3&#45;b75c&#45;43a8&#45;83e1&#45;288fe1d0ba2a</title>
<path fill="none" stroke="black" stroke-dasharray="5,2" d="M234.27,-72.72C229.24,-63.8 223.63,-53.84 218.62,-44.95"/>
<polygon fill="black" stroke="black" points="221.62,-43.14 213.66,-36.15 215.52,-46.58 221.62,-43.14"/>
</g>
<!-- 2b10bc63&#45;a484&#45;43e2&#45;bb30&#45;ecd25b804d18&#45;&gt;end -->
<g id="edge5" class="edge">
<title>2b10bc63&#45;a484&#45;43e2&#45;bb30&#45;ecd25b804d18&#45;&gt;end</title>
<path fill="none" stroke="black" d="M718.86,-99.87C738.58,-99.87 755.84,-99.87 766.33,-99.87"/>
<polygon fill="black" stroke="black" points="766.34,-103.37 776.34,-99.87 766.34,-96.37 766.34,-103.37"/>
<text text-anchor="middle" x="747.6" y="-106.67" font-family="Helvetica,sans-Serif" font-size="14.00">Finish</text>
</g>
<!-- 1c9ca079&#45;6c54&#45;44fa&#45;b6c8&#45;af6941030a5b -->
<g id="node6" class="node">
<title>1c9ca079&#45;6c54&#45;44fa&#45;b6c8&#45;af6941030a5b</title>
<polygon fill="white" stroke="black" points="800,-36 426,-36 426,0 800,0 800,-36"/>
<text text-anchor="middle" x="613" y="-14.3" font-family="Helvetica,sans-Serif" font-size="14.00">▶ Run GitHub Actions for `src/openai/cli/__init__.py`</text>
</g>
<!-- 2b10bc63&#45;a484&#45;43e2&#45;bb30&#45;ecd25b804d18&#45;&gt;1c9ca079&#45;6c54&#45;44fa&#45;b6c8&#45;af6941030a5b -->
<g id="edge3" class="edge">
<title>2b10bc63&#45;a484&#45;43e2&#45;bb30&#45;ecd25b804d18&#45;&gt;1c9ca079&#45;6c54&#45;44fa&#45;b6c8&#45;af6941030a5b</title>
<path fill="none" stroke="black" stroke-dasharray="5,2" d="M597.53,-72.72C600.02,-64.08 602.78,-54.47 605.28,-45.79"/>
<polygon fill="black" stroke="black" points="608.66,-46.72 608.06,-36.15 601.93,-44.79 608.66,-46.72"/>
</g>
</g>
</svg>
