<?xml version="1.0" encoding="UTF-8" standalone="no"?>
<!DOCTYPE svg PUBLIC "-//W3C//DTD SVG 1.1//EN"
 "http://www.w3.org/Graphics/SVG/1.1/DTD/svg11.dtd">
<!-- Generated by graphviz version 2.43.0 (0)
 -->
<!-- Title: %3 Pages: 1 -->
<svg width="1700pt" height="165pt"
 viewBox="0.00 0.00 1700.00 164.74" xmlns="http://www.w3.org/2000/svg" xmlns:xlink="http://www.w3.org/1999/xlink">
<g id="graph0" class="graph" transform="scale(1 1) rotate(0) translate(36 128.74)">
<title>%3</title>
<polygon fill="dimgray" stroke="transparent" points="-36,36 -36,-128.74 1664,-128.74 1664,36 -36,36"/>
<text text-anchor="middle" x="814" y="-77.54" font-family="Helvetica,sans-Serif" font-size="14.00">Sweep&#39;s Plan &amp; Progress</text>
<!-- start -->
<g id="node1" class="node">
<title>start</title>
</g>
<!-- 41604657&#45;b32b&#45;4ad0&#45;a347&#45;bf1d287c0b6e -->
<g id="node3" class="node">
<title>41604657&#45;b32b&#45;4ad0&#45;a347&#45;bf1d287c0b6e</title>
<ellipse fill="yellow" stroke="black" cx="176.5" cy="-26.87" rx="123.99" ry="26.74"/>
<text text-anchor="middle" x="176.5" y="-30.67" font-family="Helvetica,sans-Serif" font-size="14.00">⋯ Create</text>
<text text-anchor="middle" x="176.5" y="-15.67" font-family="Helvetica,sans-Serif" font-size="14.00">dashboard/backend.py</text>
</g>
<!-- start&#45;&gt;41604657&#45;b32b&#45;4ad0&#45;a347&#45;bf1d287c0b6e -->
<g id="edge5" class="edge">
<title>start&#45;&gt;41604657&#45;b32b&#45;4ad0&#45;a347&#45;bf1d287c0b6e</title>
<path fill="none" stroke="black" d="M1,-26.87C4.06,-26.87 20.69,-26.87 42.58,-26.87"/>
<polygon fill="black" stroke="black" points="42.62,-30.37 52.62,-26.87 42.62,-23.37 42.62,-30.37"/>
<text text-anchor="middle" x="26.88" y="-33.67" font-family="Helvetica,sans-Serif" font-size="14.00">Start</text>
</g>
<!-- end -->
<g id="node2" class="node">
<title>end</title>
</g>
<!-- b6e1431e&#45;0945&#45;47d3&#45;a629&#45;434dae6b8ca5 -->
<g id="node4" class="node">
<title>b6e1431e&#45;0945&#45;47d3&#45;a629&#45;434dae6b8ca5</title>
<ellipse fill="white" stroke="black" cx="506.5" cy="-26.87" rx="171.24" ry="26.74"/>
<text text-anchor="middle" x="506.5" y="-30.67" font-family="Helvetica,sans-Serif" font-size="14.00">▶ Create</text>
<text text-anchor="middle" x="506.5" y="-15.67" font-family="Helvetica,sans-Serif" font-size="14.00">dashboard/templates/index.html</text>
</g>
<!-- 41604657&#45;b32b&#45;4ad0&#45;a347&#45;bf1d287c0b6e&#45;&gt;b6e1431e&#45;0945&#45;47d3&#45;a629&#45;434dae6b8ca5 -->
<g id="edge1" class="edge">
<title>41604657&#45;b32b&#45;4ad0&#45;a347&#45;bf1d287c0b6e&#45;&gt;b6e1431e&#45;0945&#45;47d3&#45;a629&#45;434dae6b8ca5</title>
<path fill="none" stroke="black" d="M300.25,-26.87C308.56,-26.87 316.86,-26.87 325.17,-26.87"/>
<polygon fill="black" stroke="black" points="325.3,-30.37 335.3,-26.87 325.3,-23.37 325.3,-30.37"/>
</g>
<!-- a63d50e6&#45;e9d1&#45;4d73&#45;b0d0&#45;a634c53f53bf -->
<g id="node5" class="node">
<title>a63d50e6&#45;e9d1&#45;4d73&#45;b0d0&#45;a634c53f53bf</title>
<ellipse fill="white" stroke="black" cx="852.5" cy="-26.87" rx="139.1" ry="26.74"/>
<text text-anchor="middle" x="852.5" y="-30.67" font-family="Helvetica,sans-Serif" font-size="14.00">▶ Create</text>
<text text-anchor="middle" x="852.5" y="-15.67" font-family="Helvetica,sans-Serif" font-size="14.00">dashboard/static/style.css</text>
</g>
<!-- b6e1431e&#45;0945&#45;47d3&#45;a629&#45;434dae6b8ca5&#45;&gt;a63d50e6&#45;e9d1&#45;4d73&#45;b0d0&#45;a634c53f53bf -->
<g id="edge2" class="edge">
<title>b6e1431e&#45;0945&#45;47d3&#45;a629&#45;434dae6b8ca5&#45;&gt;a63d50e6&#45;e9d1&#45;4d73&#45;b0d0&#45;a634c53f53bf</title>
<path fill="none" stroke="black" d="M677.81,-26.87C686.14,-26.87 694.47,-26.87 702.79,-26.87"/>
<polygon fill="black" stroke="black" points="702.95,-30.37 712.95,-26.87 702.95,-23.37 702.95,-30.37"/>
</g>
<!-- 62261b01&#45;2a64&#45;4ddb&#45;8196&#45;3acf34ca562e -->
<g id="node6" class="node">
<title>62261b01&#45;2a64&#45;4ddb&#45;8196&#45;3acf34ca562e</title>
<ellipse fill="white" stroke="black" cx="1151.5" cy="-26.87" rx="123.99" ry="26.74"/>
<text text-anchor="middle" x="1151.5" y="-30.67" font-family="Helvetica,sans-Serif" font-size="14.00">▶ Modify</text>
<text text-anchor="middle" x="1151.5" y="-15.67" font-family="Helvetica,sans-Serif" font-size="14.00">dashboard/backend.py</text>
</g>
<!-- a63d50e6&#45;e9d1&#45;4d73&#45;b0d0&#45;a634c53f53bf&#45;&gt;62261b01&#45;2a64&#45;4ddb&#45;8196&#45;3acf34ca562e -->
<g id="edge3" class="edge">
<title>a63d50e6&#45;e9d1&#45;4d73&#45;b0d0&#45;a634c53f53bf&#45;&gt;62261b01&#45;2a64&#45;4ddb&#45;8196&#45;3acf34ca562e</title>
<path fill="none" stroke="black" d="M992.07,-26.87C1000.48,-26.87 1008.9,-26.87 1017.31,-26.87"/>
<polygon fill="black" stroke="black" points="1017.57,-30.37 1027.57,-26.87 1017.57,-23.37 1017.57,-30.37"/>
</g>
<!-- 77bae9d7&#45;7183&#45;4ccc&#45;8c16&#45;13dc72f93164 -->
<g id="node7" class="node">
<title>77bae9d7&#45;7183&#45;4ccc&#45;8c16&#45;13dc72f93164</title>
<ellipse fill="white" stroke="black" cx="1440.5" cy="-26.87" rx="129.3" ry="26.74"/>
<text text-anchor="middle" x="1440.5" y="-30.67" font-family="Helvetica,sans-Serif" font-size="14.00">▶ Create</text>
<text text-anchor="middle" x="1440.5" y="-15.67" font-family="Helvetica,sans-Serif" font-size="14.00">tests/test_dashboard.py</text>
</g>
<!-- 62261b01&#45;2a64&#45;4ddb&#45;8196&#45;3acf34ca562e&#45;&gt;77bae9d7&#45;7183&#45;4ccc&#45;8c16&#45;13dc72f93164 -->
<g id="edge4" class="edge">
<title>62261b01&#45;2a64&#45;4ddb&#45;8196&#45;3acf34ca562e&#45;&gt;77bae9d7&#45;7183&#45;4ccc&#45;8c16&#45;13dc72f93164</title>
<path fill="none" stroke="black" d="M1275.4,-26.87C1283.8,-26.87 1292.21,-26.87 1300.62,-26.87"/>
<polygon fill="black" stroke="black" points="1300.87,-30.37 1310.87,-26.87 1300.87,-23.37 1300.87,-30.37"/>
</g>
<!-- 77bae9d7&#45;7183&#45;4ccc&#45;8c16&#45;13dc72f93164&#45;&gt;end -->
<g id="edge6" class="edge">
<title>77bae9d7&#45;7183&#45;4ccc&#45;8c16&#45;13dc72f93164&#45;&gt;end</title>
<path fill="none" stroke="black" d="M1570.12,-26.87C1589.4,-26.87 1606.25,-26.87 1616.62,-26.87"/>
<polygon fill="black" stroke="black" points="1616.85,-30.37 1626.85,-26.87 1616.85,-23.37 1616.85,-30.37"/>
<text text-anchor="middle" x="1598.45" y="-33.67" font-family="Helvetica,sans-Serif" font-size="14.00">Finish</text>
</g>
</g>
</svg>
