<?xml version="1.0" encoding="UTF-8" standalone="no"?>
<!DOCTYPE svg PUBLIC "-//W3C//DTD SVG 1.1//EN"
 "http://www.w3.org/Graphics/SVG/1.1/DTD/svg11.dtd">
<!-- Generated by graphviz version 2.43.0 (0)
 -->
<!-- Title: %3 Pages: 1 -->
<svg width="3322pt" height="238pt"
 viewBox="0.00 0.00 3322.00 237.74" xmlns="http://www.w3.org/2000/svg" xmlns:xlink="http://www.w3.org/1999/xlink">
<g id="graph0" class="graph" transform="scale(1 1) rotate(0) translate(36 201.74)">
<title>%3</title>
<polygon fill="dimgray" stroke="transparent" points="-36,36 -36,-201.74 3286,-201.74 3286,36 -36,36"/>
<text text-anchor="middle" x="1625" y="-150.54" font-family="Helvetica,sans-Serif" font-size="14.00">Sweep&#39;s Plan &amp; Progress</text>
<!-- start -->
<g id="node1" class="node">
<title>start</title>
</g>
<!-- cfd6c7d8&#45;9cc1&#45;42d0&#45;b385&#45;32741fdf741e -->
<g id="node3" class="node">
<title>cfd6c7d8&#45;9cc1&#45;42d0&#45;b385&#45;32741fdf741e</title>
<ellipse fill="#0ee832" stroke="black" cx="193.5" cy="-99.87" rx="96.75" ry="26.74"/>
<text text-anchor="middle" x="193.5" y="-103.67" font-family="Helvetica,sans-Serif" font-size="14.00">✓ Create</text>
<text text-anchor="middle" x="193.5" y="-88.67" font-family="Helvetica,sans-Serif" font-size="14.00">src/dashboard.py</text>
</g>
<!-- start&#45;&gt;cfd6c7d8&#45;9cc1&#45;42d0&#45;b385&#45;32741fdf741e -->
<g id="edge12" class="edge">
<title>start&#45;&gt;cfd6c7d8&#45;9cc1&#45;42d0&#45;b385&#45;32741fdf741e</title>
<path fill="none" stroke="black" d="M45.16,-99.87C48.63,-99.87 65.24,-99.87 86.18,-99.87"/>
<polygon fill="black" stroke="black" points="86.42,-103.37 96.42,-99.87 86.42,-96.37 86.42,-103.37"/>
<text text-anchor="middle" x="70.81" y="-106.67" font-family="Helvetica,sans-Serif" font-size="14.00">Start</text>
</g>
<!-- end -->
<g id="node2" class="node">
<title>end</title>
</g>
<!-- 3d3b8f39&#45;1621&#45;4ce4&#45;964f&#45;6ab7125d2e83 -->
<g id="node4" class="node">
<title>3d3b8f39&#45;1621&#45;4ce4&#45;964f&#45;6ab7125d2e83</title>
<ellipse fill="white" stroke="black" cx="652.5" cy="-99.87" rx="296.97" ry="26.74"/>
<text text-anchor="middle" x="652.5" y="-103.67" font-family="Helvetica,sans-Serif" font-size="14.00">▶ Modify</text>
<text text-anchor="middle" x="652.5" y="-88.67" font-family="Helvetica,sans-Serif" font-size="14.00">src/openai/types/beta/threads/message_create_params.py</text>
</g>
<!-- cfd6c7d8&#45;9cc1&#45;42d0&#45;b385&#45;32741fdf741e&#45;&gt;3d3b8f39&#45;1621&#45;4ce4&#45;964f&#45;6ab7125d2e83 -->
<g id="edge2" class="edge">
<title>cfd6c7d8&#45;9cc1&#45;42d0&#45;b385&#45;32741fdf741e&#45;&gt;3d3b8f39&#45;1621&#45;4ce4&#45;964f&#45;6ab7125d2e83</title>
<path fill="none" stroke="black" d="M290.77,-99.87C308.95,-99.87 327.13,-99.87 345.31,-99.87"/>
<polygon fill="black" stroke="black" points="345.41,-103.37 355.41,-99.87 345.41,-96.37 345.41,-103.37"/>
</g>
<!-- 5766749f&#45;cfd1&#45;4e82&#45;9ed6&#45;49f6a503efd7 -->
<g id="node9" class="node">
<title>5766749f&#45;cfd1&#45;4e82&#45;9ed6&#45;49f6a503efd7</title>
<polygon fill="#0ee832" stroke="black" points="329,-36 0,-36 0,0 329,0 329,-36"/>
<text text-anchor="middle" x="164.5" y="-14.3" font-family="Helvetica,sans-Serif" font-size="14.00">✓ Run GitHub Actions for `src/dashboard.py`</text>
</g>
<!-- cfd6c7d8&#45;9cc1&#45;42d0&#45;b385&#45;32741fdf741e&#45;&gt;5766749f&#45;cfd1&#45;4e82&#45;9ed6&#45;49f6a503efd7 -->
<g id="edge1" class="edge">
<title>cfd6c7d8&#45;9cc1&#45;42d0&#45;b385&#45;32741fdf741e&#45;&gt;5766749f&#45;cfd1&#45;4e82&#45;9ed6&#45;49f6a503efd7</title>
<path fill="none" stroke="black" stroke-dasharray="5,2" d="M184,-72.72C180.87,-64.08 177.38,-54.47 174.23,-45.79"/>
<polygon fill="black" stroke="black" points="177.43,-44.35 170.73,-36.15 170.85,-46.74 177.43,-44.35"/>
</g>
<!-- 6db54d0d&#45;ca3c&#45;4289&#45;bb8f&#45;69782b67b507 -->
<g id="node5" class="node">
<title>6db54d0d&#45;ca3c&#45;4289&#45;bb8f&#45;69782b67b507</title>
<ellipse fill="white" stroke="black" cx="1276.5" cy="-99.87" rx="289.83" ry="26.74"/>
<text text-anchor="middle" x="1276.5" y="-103.67" font-family="Helvetica,sans-Serif" font-size="14.00">▶ Modify</text>
<text text-anchor="middle" x="1276.5" y="-88.67" font-family="Helvetica,sans-Serif" font-size="14.00">src/openai/types/beta/thread_create_and_run_params.py</text>
</g>
<!-- 3d3b8f39&#45;1621&#45;4ce4&#45;964f&#45;6ab7125d2e83&#45;&gt;6db54d0d&#45;ca3c&#45;4289&#45;bb8f&#45;69782b67b507 -->
<g id="edge4" class="edge">
<title>3d3b8f39&#45;1621&#45;4ce4&#45;964f&#45;6ab7125d2e83&#45;&gt;6db54d0d&#45;ca3c&#45;4289&#45;bb8f&#45;69782b67b507</title>
<path fill="none" stroke="black" d="M949.57,-99.87C958.46,-99.87 967.35,-99.87 976.25,-99.87"/>
<polygon fill="black" stroke="black" points="976.29,-103.37 986.29,-99.87 976.29,-96.37 976.29,-103.37"/>
</g>
<!-- 6224976b&#45;e9c6&#45;44f8&#45;8494&#45;54f318bac4da -->
<g id="node10" class="node">
<title>6224976b&#45;e9c6&#45;44f8&#45;8494&#45;54f318bac4da</title>
<polygon fill="white" stroke="black" points="958,-36 347,-36 347,0 958,0 958,-36"/>
<text text-anchor="middle" x="652.5" y="-14.3" font-family="Helvetica,sans-Serif" font-size="14.00">▶ Run GitHub Actions for `src/openai/types/beta/threads/message_create_params.py`</text>
</g>
<!-- 3d3b8f39&#45;1621&#45;4ce4&#45;964f&#45;6ab7125d2e83&#45;&gt;6224976b&#45;e9c6&#45;44f8&#45;8494&#45;54f318bac4da -->
<g id="edge3" class="edge">
<title>3d3b8f39&#45;1621&#45;4ce4&#45;964f&#45;6ab7125d2e83&#45;&gt;6224976b&#45;e9c6&#45;44f8&#45;8494&#45;54f318bac4da</title>
<path fill="none" stroke="black" stroke-dasharray="5,2" d="M652.5,-72.72C652.5,-64.27 652.5,-54.89 652.5,-46.36"/>
<polygon fill="black" stroke="black" points="656,-46.15 652.5,-36.15 649,-46.15 656,-46.15"/>
</g>
<!-- c3735f7e&#45;fa5c&#45;48dd&#45;abf5&#45;e54782404653 -->
<g id="node6" class="node">
<title>c3735f7e&#45;fa5c&#45;48dd&#45;abf5&#45;e54782404653</title>
<ellipse fill="white" stroke="black" cx="1868.5" cy="-99.87" rx="251.05" ry="26.74"/>
<text text-anchor="middle" x="1868.5" y="-103.67" font-family="Helvetica,sans-Serif" font-size="14.00">▶ Modify</text>
<text text-anchor="middle" x="1868.5" y="-88.67" font-family="Helvetica,sans-Serif" font-size="14.00">src/openai/types/create_embedding_response.py</text>
</g>
<!-- 6db54d0d&#45;ca3c&#45;4289&#45;bb8f&#45;69782b67b507&#45;&gt;c3735f7e&#45;fa5c&#45;48dd&#45;abf5&#45;e54782404653 -->
<g id="edge6" class="edge">
<title>6db54d0d&#45;ca3c&#45;4289&#45;bb8f&#45;69782b67b507&#45;&gt;c3735f7e&#45;fa5c&#45;48dd&#45;abf5&#45;e54782404653</title>
<path fill="none" stroke="black" d="M1566.43,-99.87C1579.99,-99.87 1593.54,-99.87 1607.1,-99.87"/>
<polygon fill="black" stroke="black" points="1607.46,-103.37 1617.46,-99.87 1607.46,-96.37 1607.46,-103.37"/>
</g>
<!-- 67c986c8&#45;8c28&#45;4714&#45;b573&#45;9abb3811fbfe -->
<g id="node11" class="node">
<title>67c986c8&#45;8c28&#45;4714&#45;b573&#45;9abb3811fbfe</title>
<polygon fill="white" stroke="black" points="1577,-36 976,-36 976,0 1577,0 1577,-36"/>
<text text-anchor="middle" x="1276.5" y="-14.3" font-family="Helvetica,sans-Serif" font-size="14.00">▶ Run GitHub Actions for `src/openai/types/beta/thread_create_and_run_params.py`</text>
</g>
<!-- 6db54d0d&#45;ca3c&#45;4289&#45;bb8f&#45;69782b67b507&#45;&gt;67c986c8&#45;8c28&#45;4714&#45;b573&#45;9abb3811fbfe -->
<g id="edge5" class="edge">
<title>6db54d0d&#45;ca3c&#45;4289&#45;bb8f&#45;69782b67b507&#45;&gt;67c986c8&#45;8c28&#45;4714&#45;b573&#45;9abb3811fbfe</title>
<path fill="none" stroke="black" stroke-dasharray="5,2" d="M1276.5,-72.72C1276.5,-64.27 1276.5,-54.89 1276.5,-46.36"/>
<polygon fill="black" stroke="black" points="1280,-46.15 1276.5,-36.15 1273,-46.15 1280,-46.15"/>
</g>
<!-- 768e5dce&#45;2552&#45;414a&#45;874f&#45;420d0128e88a -->
<g id="node7" class="node">
<title>768e5dce&#45;2552&#45;414a&#45;874f&#45;420d0128e88a</title>
<ellipse fill="white" stroke="black" cx="2453.5" cy="-99.87" rx="280.94" ry="26.74"/>
<text text-anchor="middle" x="2453.5" y="-103.67" font-family="Helvetica,sans-Serif" font-size="14.00">▶ Modify</text>
<text text-anchor="middle" x="2453.5" y="-88.67" font-family="Helvetica,sans-Serif" font-size="14.00">src/openai/types/audio/transcription_create_params.py</text>
</g>
<!-- c3735f7e&#45;fa5c&#45;48dd&#45;abf5&#45;e54782404653&#45;&gt;768e5dce&#45;2552&#45;414a&#45;874f&#45;420d0128e88a -->
<g id="edge8" class="edge">
<title>c3735f7e&#45;fa5c&#45;48dd&#45;abf5&#45;e54782404653&#45;&gt;768e5dce&#45;2552&#45;414a&#45;874f&#45;420d0128e88a</title>
<path fill="none" stroke="black" d="M2119.58,-99.87C2133.84,-99.87 2148.1,-99.87 2162.35,-99.87"/>
<polygon fill="black" stroke="black" points="2162.73,-103.37 2172.73,-99.87 2162.73,-96.37 2162.73,-103.37"/>
</g>
<!-- 49a94454&#45;c9a1&#45;4bb3&#45;8f0c&#45;7005a56f0064 -->
<g id="node12" class="node">
<title>49a94454&#45;c9a1&#45;4bb3&#45;8f0c&#45;7005a56f0064</title>
<polygon fill="white" stroke="black" points="2141.5,-36 1595.5,-36 1595.5,0 2141.5,0 2141.5,-36"/>
<text text-anchor="middle" x="1868.5" y="-14.3" font-family="Helvetica,sans-Serif" font-size="14.00">▶ Run GitHub Actions for `src/openai/types/create_embedding_response.py`</text>
</g>
<!-- c3735f7e&#45;fa5c&#45;48dd&#45;abf5&#45;e54782404653&#45;&gt;49a94454&#45;c9a1&#45;4bb3&#45;8f0c&#45;7005a56f0064 -->
<g id="edge7" class="edge">
<title>c3735f7e&#45;fa5c&#45;48dd&#45;abf5&#45;e54782404653&#45;&gt;49a94454&#45;c9a1&#45;4bb3&#45;8f0c&#45;7005a56f0064</title>
<path fill="none" stroke="black" stroke-dasharray="5,2" d="M1868.5,-72.72C1868.5,-64.27 1868.5,-54.89 1868.5,-46.36"/>
<polygon fill="black" stroke="black" points="1872,-46.15 1868.5,-36.15 1865,-46.15 1872,-46.15"/>
</g>
<!-- 178e0824&#45;8bb9&#45;4b04&#45;8f2d&#45;f7b4dbbd163a -->
<g id="node8" class="node">
<title>178e0824&#45;8bb9&#45;4b04&#45;8f2d&#45;f7b4dbbd163a</title>
<ellipse fill="white" stroke="black" cx="2988.5" cy="-99.87" rx="202.88" ry="26.74"/>
<text text-anchor="middle" x="2988.5" y="-103.67" font-family="Helvetica,sans-Serif" font-size="14.00">▶ Modify</text>
<text text-anchor="middle" x="2988.5" y="-88.67" font-family="Helvetica,sans-Serif" font-size="14.00">src/openai/types/file_create_params.py</text>
</g>
<!-- 768e5dce&#45;2552&#45;414a&#45;874f&#45;420d0128e88a&#45;&gt;178e0824&#45;8bb9&#45;4b04&#45;8f2d&#45;f7b4dbbd163a -->
<g id="edge10" class="edge">
<title>768e5dce&#45;2552&#45;414a&#45;874f&#45;420d0128e88a&#45;&gt;178e0824&#45;8bb9&#45;4b04&#45;8f2d&#45;f7b4dbbd163a</title>
<path fill="none" stroke="black" d="M2734.32,-99.87C2747.91,-99.87 2761.49,-99.87 2775.07,-99.87"/>
<polygon fill="black" stroke="black" points="2775.46,-103.37 2785.46,-99.87 2775.46,-96.37 2775.46,-103.37"/>
</g>
<!-- 62c63cb0&#45;fb89&#45;4337&#45;98d9&#45;c500d35ad9b6 -->
<g id="node13" class="node">
<title>62c63cb0&#45;fb89&#45;4337&#45;98d9&#45;c500d35ad9b6</title>
<polygon fill="white" stroke="black" points="2747.5,-36 2159.5,-36 2159.5,0 2747.5,0 2747.5,-36"/>
<text text-anchor="middle" x="2453.5" y="-14.3" font-family="Helvetica,sans-Serif" font-size="14.00">▶ Run GitHub Actions for `src/openai/types/audio/transcription_create_params.py`</text>
</g>
<!-- 768e5dce&#45;2552&#45;414a&#45;874f&#45;420d0128e88a&#45;&gt;62c63cb0&#45;fb89&#45;4337&#45;98d9&#45;c500d35ad9b6 -->
<g id="edge9" class="edge">
<title>768e5dce&#45;2552&#45;414a&#45;874f&#45;420d0128e88a&#45;&gt;62c63cb0&#45;fb89&#45;4337&#45;98d9&#45;c500d35ad9b6</title>
<path fill="none" stroke="black" stroke-dasharray="5,2" d="M2453.5,-72.72C2453.5,-64.27 2453.5,-54.89 2453.5,-46.36"/>
<polygon fill="black" stroke="black" points="2457,-46.15 2453.5,-36.15 2450,-46.15 2457,-46.15"/>
</g>
<!-- 178e0824&#45;8bb9&#45;4b04&#45;8f2d&#45;f7b4dbbd163a&#45;&gt;end -->
<g id="edge13" class="edge">
<title>178e0824&#45;8bb9&#45;4b04&#45;8f2d&#45;f7b4dbbd163a&#45;&gt;end</title>
<path fill="none" stroke="black" d="M3191.58,-99.87C3211.61,-99.87 3228.31,-99.87 3238.54,-99.87"/>
<polygon fill="black" stroke="black" points="3238.87,-103.37 3248.87,-99.87 3238.87,-96.37 3238.87,-103.37"/>
<text text-anchor="middle" x="3220.22" y="-106.67" font-family="Helvetica,sans-Serif" font-size="14.00">Finish</text>
</g>
<!-- a4f0350a&#45;29fb&#45;480b&#45;9957&#45;044fa3bde51d -->
<g id="node14" class="node">
<title>a4f0350a&#45;29fb&#45;480b&#45;9957&#45;044fa3bde51d</title>
<polygon fill="white" stroke="black" points="3243.5,-36 2765.5,-36 2765.5,0 3243.5,0 3243.5,-36"/>
<text text-anchor="middle" x="3004.5" y="-14.3" font-family="Helvetica,sans-Serif" font-size="14.00">▶ Run GitHub Actions for `src/openai/types/file_create_params.py`</text>
</g>
<!-- 178e0824&#45;8bb9&#45;4b04&#45;8f2d&#45;f7b4dbbd163a&#45;&gt;a4f0350a&#45;29fb&#45;480b&#45;9957&#45;044fa3bde51d -->
<g id="edge11" class="edge">
<title>178e0824&#45;8bb9&#45;4b04&#45;8f2d&#45;f7b4dbbd163a&#45;&gt;a4f0350a&#45;29fb&#45;480b&#45;9957&#45;044fa3bde51d</title>
<path fill="none" stroke="black" stroke-dasharray="5,2" d="M2993.74,-72.72C2995.45,-64.18 2997.35,-54.68 2999.08,-46.08"/>
<polygon fill="black" stroke="black" points="3002.53,-46.64 3001.07,-36.15 2995.67,-45.26 3002.53,-46.64"/>
</g>
</g>
</svg>
