<?xml version="1.0" encoding="UTF-8" standalone="no"?>
<!DOCTYPE svg PUBLIC "-//W3C//DTD SVG 1.1//EN"
 "http://www.w3.org/Graphics/SVG/1.1/DTD/svg11.dtd">
<!-- Generated by graphviz version 2.43.0 (0)
 -->
<!-- Title: %3 Pages: 1 -->
<svg width="778pt" height="238pt"
 viewBox="0.00 0.00 778.00 237.74" xmlns="http://www.w3.org/2000/svg" xmlns:xlink="http://www.w3.org/1999/xlink">
<g id="graph0" class="graph" transform="scale(1 1) rotate(0) translate(36 201.74)">
<title>%3</title>
<polygon fill="dimgray" stroke="transparent" points="-36,36 -36,-201.74 742,-201.74 742,36 -36,36"/>
<text text-anchor="middle" x="353" y="-150.54" font-family="Helvetica,sans-Serif" font-size="14.00">Sweep&#39;s Plan &amp; Progress</text>
<!-- start -->
<g id="node1" class="node">
<title>start</title>
</g>
<!-- ea91b05e&#45;30d7&#45;43ec&#45;86f3&#45;71179684fe65 -->
<g id="node3" class="node">
<title>ea91b05e&#45;30d7&#45;43ec&#45;86f3&#45;71179684fe65</title>
<ellipse fill="#0ee832" stroke="black" cx="241" cy="-99.87" rx="123.99" ry="26.74"/>
<text text-anchor="middle" x="241" y="-103.67" font-family="Helvetica,sans-Serif" font-size="14.00">✓ Modify</text>
<text text-anchor="middle" x="241" y="-88.67" font-family="Helvetica,sans-Serif" font-size="14.00">dashboard/backend.py</text>
</g>
<!-- start&#45;&gt;ea91b05e&#45;30d7&#45;43ec&#45;86f3&#45;71179684fe65 -->
<g id="edge4" class="edge">
<title>start&#45;&gt;ea91b05e&#45;30d7&#45;43ec&#45;86f3&#45;71179684fe65</title>
<path fill="none" stroke="black" d="M65.5,-99.87C68.56,-99.87 85.19,-99.87 107.08,-99.87"/>
<polygon fill="black" stroke="black" points="107.12,-103.37 117.12,-99.87 107.12,-96.37 107.12,-103.37"/>
<text text-anchor="middle" x="91.38" y="-106.67" font-family="Helvetica,sans-Serif" font-size="14.00">Start</text>
</g>
<!-- end -->
<g id="node2" class="node">
<title>end</title>
</g>
<!-- c5db53bc&#45;7f35&#45;43ed&#45;a881&#45;2065a5f34127 -->
<g id="node4" class="node">
<title>c5db53bc&#45;7f35&#45;43ed&#45;a881&#45;2065a5f34127</title>
<ellipse fill="white" stroke="black" cx="519" cy="-99.87" rx="89.61" ry="26.74"/>
<text text-anchor="middle" x="519" y="-103.67" font-family="Helvetica,sans-Serif" font-size="14.00">▶ Modify</text>
<text text-anchor="middle" x="519" y="-88.67" font-family="Helvetica,sans-Serif" font-size="14.00">cheat_sheet.md</text>
</g>
<!-- ea91b05e&#45;30d7&#45;43ec&#45;86f3&#45;71179684fe65&#45;&gt;c5db53bc&#45;7f35&#45;43ed&#45;a881&#45;2065a5f34127 -->
<g id="edge2" class="edge">
<title>ea91b05e&#45;30d7&#45;43ec&#45;86f3&#45;71179684fe65&#45;&gt;c5db53bc&#45;7f35&#45;43ed&#45;a881&#45;2065a5f34127</title>
<path fill="none" stroke="black" d="M364.8,-99.87C382.84,-99.87 400.88,-99.87 418.92,-99.87"/>
<polygon fill="black" stroke="black" points="418.95,-103.37 428.95,-99.87 418.95,-96.37 418.95,-103.37"/>
</g>
<!-- d3daa4e5&#45;a394&#45;4ee1&#45;b445&#45;cfa5504c45be -->
<g id="node5" class="node">
<title>d3daa4e5&#45;a394&#45;4ee1&#45;b445&#45;cfa5504c45be</title>
<polygon fill="yellow" stroke="black" points="370,-36 0,-36 0,0 370,0 370,-36"/>
<text text-anchor="middle" x="185" y="-14.3" font-family="Helvetica,sans-Serif" font-size="14.00">⋯ Run GitHub Actions for `dashboard/backend.py`</text>
</g>
<!-- ea91b05e&#45;30d7&#45;43ec&#45;86f3&#45;71179684fe65&#45;&gt;d3daa4e5&#45;a394&#45;4ee1&#45;b445&#45;cfa5504c45be -->
<g id="edge1" class="edge">
<title>ea91b05e&#45;30d7&#45;43ec&#45;86f3&#45;71179684fe65&#45;&gt;d3daa4e5&#45;a394&#45;4ee1&#45;b445&#45;cfa5504c45be</title>
<path fill="none" stroke="black" stroke-dasharray="5,2" d="M222.97,-73.16C216.58,-64.04 209.38,-53.77 202.99,-44.65"/>
<polygon fill="black" stroke="black" points="205.76,-42.52 197.16,-36.34 200.03,-46.53 205.76,-42.52"/>
</g>
<!-- c5db53bc&#45;7f35&#45;43ed&#45;a881&#45;2065a5f34127&#45;&gt;end -->
<g id="edge5" class="edge">
<title>c5db53bc&#45;7f35&#45;43ed&#45;a881&#45;2065a5f34127&#45;&gt;end</title>
<path fill="none" stroke="black" d="M608.93,-99.87C627.8,-99.87 645.22,-99.87 655.96,-99.87"/>
<polygon fill="black" stroke="black" points="656.31,-103.37 666.31,-99.87 656.31,-96.37 656.31,-103.37"/>
<text text-anchor="middle" x="637.65" y="-106.67" font-family="Helvetica,sans-Serif" font-size="14.00">Finish</text>
</g>
<!-- 3e48eec8&#45;815c&#45;4327&#45;8458&#45;03db8d1fee42 -->
<g id="node6" class="node">
<title>3e48eec8&#45;815c&#45;4327&#45;8458&#45;03db8d1fee42</title>
<polygon fill="white" stroke="black" points="706,-36 388,-36 388,0 706,0 706,-36"/>
<text text-anchor="middle" x="547" y="-14.3" font-family="Helvetica,sans-Serif" font-size="14.00">▶ Run GitHub Actions for `cheat_sheet.md`</text>
</g>
<!-- c5db53bc&#45;7f35&#45;43ed&#45;a881&#45;2065a5f34127&#45;&gt;3e48eec8&#45;815c&#45;4327&#45;8458&#45;03db8d1fee42 -->
<g id="edge3" class="edge">
<title>c5db53bc&#45;7f35&#45;43ed&#45;a881&#45;2065a5f34127&#45;&gt;3e48eec8&#45;815c&#45;4327&#45;8458&#45;03db8d1fee42</title>
<path fill="none" stroke="black" stroke-dasharray="5,2" d="M528.17,-72.72C531.19,-64.08 534.56,-54.47 537.61,-45.79"/>
<polygon fill="black" stroke="black" points="540.98,-46.74 540.99,-36.15 534.38,-44.43 540.98,-46.74"/>
</g>
</g>
</svg>
