<?xml version="1.0" encoding="UTF-8" standalone="no"?>
<!DOCTYPE svg PUBLIC "-//W3C//DTD SVG 1.1//EN"
 "http://www.w3.org/Graphics/SVG/1.1/DTD/svg11.dtd">
<!-- Generated by graphviz version 2.43.0 (0)
 -->
<!-- Title: %3 Pages: 1 -->
<svg width="2833pt" height="238pt"
 viewBox="0.00 0.00 2833.00 237.74" xmlns="http://www.w3.org/2000/svg" xmlns:xlink="http://www.w3.org/1999/xlink">
<g id="graph0" class="graph" transform="scale(1 1) rotate(0) translate(36 201.74)">
<title>%3</title>
<polygon fill="dimgray" stroke="transparent" points="-36,36 -36,-201.74 2797,-201.74 2797,36 -36,36"/>
<text text-anchor="middle" x="1380.5" y="-150.54" font-family="Helvetica,sans-Serif" font-size="14.00">Sweep&#39;s Plan &amp; Progress</text>
<!-- start -->
<g id="node1" class="node">
<title>start</title>
</g>
<!-- 2dec07cf&#45;ddca&#45;4ae3&#45;9299&#45;cbd0287e6be5 -->
<g id="node3" class="node">
<title>2dec07cf&#45;ddca&#45;4ae3&#45;9299&#45;cbd0287e6be5</title>
<ellipse fill="#0ee832" stroke="black" cx="310.5" cy="-99.87" rx="258.19" ry="26.74"/>
<text text-anchor="middle" x="310.5" y="-103.67" font-family="Helvetica,sans-Serif" font-size="14.00">✓ Modify</text>
<text text-anchor="middle" x="310.5" y="-88.67" font-family="Helvetica,sans-Serif" font-size="14.00">src/openai/resources/beta/assistants/assistants.py</text>
</g>
<!-- start&#45;&gt;2dec07cf&#45;ddca&#45;4ae3&#45;9299&#45;cbd0287e6be5 -->
<g id="edge10" class="edge">
<title>start&#45;&gt;2dec07cf&#45;ddca&#45;4ae3&#45;9299&#45;cbd0287e6be5</title>
<path fill="none" stroke="black" d="M1,-99.87C3.93,-99.87 19.4,-99.87 42.01,-99.87"/>
<polygon fill="black" stroke="black" points="42.11,-103.37 52.11,-99.87 42.11,-96.37 42.11,-103.37"/>
<text text-anchor="middle" x="26.7" y="-106.67" font-family="Helvetica,sans-Serif" font-size="14.00">Start</text>
</g>
<!-- end -->
<g id="node2" class="node">
<title>end</title>
</g>
<!-- 944cef10&#45;26e5&#45;4be5&#45;ac5a&#45;ea470ad578f0 -->
<g id="node4" class="node">
<title>944cef10&#45;26e5&#45;4be5&#45;ac5a&#45;ea470ad578f0</title>
<ellipse fill="white" stroke="black" cx="874.5" cy="-99.87" rx="258.19" ry="26.74"/>
<text text-anchor="middle" x="874.5" y="-103.67" font-family="Helvetica,sans-Serif" font-size="14.00">▶ Modify</text>
<text text-anchor="middle" x="874.5" y="-88.67" font-family="Helvetica,sans-Serif" font-size="14.00">src/openai/resources/beta/assistants/assistants.py</text>
</g>
<!-- 2dec07cf&#45;ddca&#45;4ae3&#45;9299&#45;cbd0287e6be5&#45;&gt;944cef10&#45;26e5&#45;4be5&#45;ac5a&#45;ea470ad578f0 -->
<g id="edge2" class="edge">
<title>2dec07cf&#45;ddca&#45;4ae3&#45;9299&#45;cbd0287e6be5&#45;&gt;944cef10&#45;26e5&#45;4be5&#45;ac5a&#45;ea470ad578f0</title>
<path fill="none" stroke="black" d="M568.82,-99.87C581.3,-99.87 593.78,-99.87 606.27,-99.87"/>
<polygon fill="black" stroke="black" points="606.28,-103.37 616.28,-99.87 606.28,-96.37 606.28,-103.37"/>
</g>
<!-- 4b2f37af&#45;e486&#45;41f6&#45;b8a9&#45;829cafea84e1 -->
<g id="node8" class="node">
<title>4b2f37af&#45;e486&#45;41f6&#45;b8a9&#45;829cafea84e1</title>
<polygon fill="yellow" stroke="black" points="578.5,-36 18.5,-36 18.5,0 578.5,0 578.5,-36"/>
<text text-anchor="middle" x="298.5" y="-14.3" font-family="Helvetica,sans-Serif" font-size="14.00">⋯ Run GitHub Actions for `src/openai/resources/beta/assistants/assistants.py`</text>
</g>
<!-- 2dec07cf&#45;ddca&#45;4ae3&#45;9299&#45;cbd0287e6be5&#45;&gt;4b2f37af&#45;e486&#45;41f6&#45;b8a9&#45;829cafea84e1 -->
<g id="edge1" class="edge">
<title>2dec07cf&#45;ddca&#45;4ae3&#45;9299&#45;cbd0287e6be5&#45;&gt;4b2f37af&#45;e486&#45;41f6&#45;b8a9&#45;829cafea84e1</title>
<path fill="none" stroke="black" stroke-dasharray="5,2" d="M306.57,-72.72C305.29,-64.18 303.86,-54.68 302.57,-46.08"/>
<polygon fill="black" stroke="black" points="306.02,-45.52 301.08,-36.15 299.1,-46.56 306.02,-45.52"/>
</g>
<!-- a940ee98&#45;4721&#45;4c9a&#45;80ff&#45;f6a5fb684ee1 -->
<g id="node5" class="node">
<title>a940ee98&#45;4721&#45;4c9a&#45;80ff&#45;f6a5fb684ee1</title>
<ellipse fill="white" stroke="black" cx="1428.5" cy="-99.87" rx="228.29" ry="26.74"/>
<text text-anchor="middle" x="1428.5" y="-103.67" font-family="Helvetica,sans-Serif" font-size="14.00">▶ Modify</text>
<text text-anchor="middle" x="1428.5" y="-88.67" font-family="Helvetica,sans-Serif" font-size="14.00">src/openai/resources/beta/assistants/files.py</text>
</g>
<!-- 944cef10&#45;26e5&#45;4be5&#45;ac5a&#45;ea470ad578f0&#45;&gt;a940ee98&#45;4721&#45;4c9a&#45;80ff&#45;f6a5fb684ee1 -->
<g id="edge4" class="edge">
<title>944cef10&#45;26e5&#45;4be5&#45;ac5a&#45;ea470ad578f0&#45;&gt;a940ee98&#45;4721&#45;4c9a&#45;80ff&#45;f6a5fb684ee1</title>
<path fill="none" stroke="black" d="M1132.83,-99.87C1151.76,-99.87 1170.69,-99.87 1189.62,-99.87"/>
<polygon fill="black" stroke="black" points="1189.82,-103.37 1199.82,-99.87 1189.82,-96.37 1189.82,-103.37"/>
</g>
<!-- 7693b2b3&#45;6795&#45;494e&#45;8b30&#45;ab3f4e299e23 -->
<g id="node9" class="node">
<title>7693b2b3&#45;6795&#45;494e&#45;8b30&#45;ab3f4e299e23</title>
<polygon fill="white" stroke="black" points="1152.5,-36 596.5,-36 596.5,0 1152.5,0 1152.5,-36"/>
<text text-anchor="middle" x="874.5" y="-14.3" font-family="Helvetica,sans-Serif" font-size="14.00">▶ Run GitHub Actions for `src/openai/resources/beta/assistants/assistants.py`</text>
</g>
<!-- 944cef10&#45;26e5&#45;4be5&#45;ac5a&#45;ea470ad578f0&#45;&gt;7693b2b3&#45;6795&#45;494e&#45;8b30&#45;ab3f4e299e23 -->
<g id="edge3" class="edge">
<title>944cef10&#45;26e5&#45;4be5&#45;ac5a&#45;ea470ad578f0&#45;&gt;7693b2b3&#45;6795&#45;494e&#45;8b30&#45;ab3f4e299e23</title>
<path fill="none" stroke="black" stroke-dasharray="5,2" d="M874.5,-72.72C874.5,-64.27 874.5,-54.89 874.5,-46.36"/>
<polygon fill="black" stroke="black" points="878,-46.15 874.5,-36.15 871,-46.15 878,-46.15"/>
</g>
<!-- a54b52eb&#45;0e0b&#45;4208&#45;ac9d&#45;34325d34749f -->
<g id="node6" class="node">
<title>a54b52eb&#45;0e0b&#45;4208&#45;ac9d&#45;34325d34749f</title>
<ellipse fill="white" stroke="black" cx="1961.5" cy="-99.87" rx="228.29" ry="26.74"/>
<text text-anchor="middle" x="1961.5" y="-103.67" font-family="Helvetica,sans-Serif" font-size="14.00">▶ Modify</text>
<text text-anchor="middle" x="1961.5" y="-88.67" font-family="Helvetica,sans-Serif" font-size="14.00">src/openai/resources/beta/assistants/files.py</text>
</g>
<!-- a940ee98&#45;4721&#45;4c9a&#45;80ff&#45;f6a5fb684ee1&#45;&gt;a54b52eb&#45;0e0b&#45;4208&#45;ac9d&#45;34325d34749f -->
<g id="edge6" class="edge">
<title>a940ee98&#45;4721&#45;4c9a&#45;80ff&#45;f6a5fb684ee1&#45;&gt;a54b52eb&#45;0e0b&#45;4208&#45;ac9d&#45;34325d34749f</title>
<path fill="none" stroke="black" d="M1657,-99.87C1678.92,-99.87 1700.84,-99.87 1722.76,-99.87"/>
<polygon fill="black" stroke="black" points="1722.83,-103.37 1732.83,-99.87 1722.83,-96.37 1722.83,-103.37"/>
</g>
<!-- b99a78f7&#45;aa3c&#45;4f21&#45;8072&#45;880a0791b6c8 -->
<g id="node10" class="node">
<title>b99a78f7&#45;aa3c&#45;4f21&#45;8072&#45;880a0791b6c8</title>
<polygon fill="white" stroke="black" points="1686,-36 1171,-36 1171,0 1686,0 1686,-36"/>
<text text-anchor="middle" x="1428.5" y="-14.3" font-family="Helvetica,sans-Serif" font-size="14.00">▶ Run GitHub Actions for `src/openai/resources/beta/assistants/files.py`</text>
</g>
<!-- a940ee98&#45;4721&#45;4c9a&#45;80ff&#45;f6a5fb684ee1&#45;&gt;b99a78f7&#45;aa3c&#45;4f21&#45;8072&#45;880a0791b6c8 -->
<g id="edge5" class="edge">
<title>a940ee98&#45;4721&#45;4c9a&#45;80ff&#45;f6a5fb684ee1&#45;&gt;b99a78f7&#45;aa3c&#45;4f21&#45;8072&#45;880a0791b6c8</title>
<path fill="none" stroke="black" stroke-dasharray="5,2" d="M1428.5,-72.72C1428.5,-64.27 1428.5,-54.89 1428.5,-46.36"/>
<polygon fill="black" stroke="black" points="1432,-46.15 1428.5,-36.15 1425,-46.15 1432,-46.15"/>
</g>
<!-- 05cae019&#45;82b9&#45;45c2&#45;8ae1&#45;cfbf37473a8c -->
<g id="node7" class="node">
<title>05cae019&#45;82b9&#45;45c2&#45;8ae1&#45;cfbf37473a8c</title>
<ellipse fill="white" stroke="black" cx="2474.5" cy="-99.87" rx="228.29" ry="26.74"/>
<text text-anchor="middle" x="2474.5" y="-103.67" font-family="Helvetica,sans-Serif" font-size="14.00">▶ Modify</text>
<text text-anchor="middle" x="2474.5" y="-88.67" font-family="Helvetica,sans-Serif" font-size="14.00">src/openai/resources/beta/assistants/files.py</text>
</g>
<!-- a54b52eb&#45;0e0b&#45;4208&#45;ac9d&#45;34325d34749f&#45;&gt;05cae019&#45;82b9&#45;45c2&#45;8ae1&#45;cfbf37473a8c -->
<g id="edge8" class="edge">
<title>a54b52eb&#45;0e0b&#45;4208&#45;ac9d&#45;34325d34749f&#45;&gt;05cae019&#45;82b9&#45;45c2&#45;8ae1&#45;cfbf37473a8c</title>
<path fill="none" stroke="black" d="M2189.95,-99.87C2205.29,-99.87 2220.64,-99.87 2235.99,-99.87"/>
<polygon fill="black" stroke="black" points="2236.08,-103.37 2246.08,-99.87 2236.08,-96.37 2236.08,-103.37"/>
</g>
<!-- e33078aa&#45;f19d&#45;424e&#45;9d55&#45;2bc697cfdd1b -->
<g id="node11" class="node">
<title>e33078aa&#45;f19d&#45;424e&#45;9d55&#45;2bc697cfdd1b</title>
<polygon fill="white" stroke="black" points="2219,-36 1704,-36 1704,0 2219,0 2219,-36"/>
<text text-anchor="middle" x="1961.5" y="-14.3" font-family="Helvetica,sans-Serif" font-size="14.00">▶ Run GitHub Actions for `src/openai/resources/beta/assistants/files.py`</text>
</g>
<!-- a54b52eb&#45;0e0b&#45;4208&#45;ac9d&#45;34325d34749f&#45;&gt;e33078aa&#45;f19d&#45;424e&#45;9d55&#45;2bc697cfdd1b -->
<g id="edge7" class="edge">
<title>a54b52eb&#45;0e0b&#45;4208&#45;ac9d&#45;34325d34749f&#45;&gt;e33078aa&#45;f19d&#45;424e&#45;9d55&#45;2bc697cfdd1b</title>
<path fill="none" stroke="black" stroke-dasharray="5,2" d="M1961.5,-72.72C1961.5,-64.27 1961.5,-54.89 1961.5,-46.36"/>
<polygon fill="black" stroke="black" points="1965,-46.15 1961.5,-36.15 1958,-46.15 1965,-46.15"/>
</g>
<!-- 05cae019&#45;82b9&#45;45c2&#45;8ae1&#45;cfbf37473a8c&#45;&gt;end -->
<g id="edge11" class="edge">
<title>05cae019&#45;82b9&#45;45c2&#45;8ae1&#45;cfbf37473a8c&#45;&gt;end</title>
<path fill="none" stroke="black" d="M2702.97,-99.87C2723.07,-99.87 2739.61,-99.87 2749.71,-99.87"/>
<polygon fill="black" stroke="black" points="2749.89,-103.37 2759.89,-99.87 2749.89,-96.37 2749.89,-103.37"/>
<text text-anchor="middle" x="2731.45" y="-106.67" font-family="Helvetica,sans-Serif" font-size="14.00">Finish</text>
</g>
<!-- 886949db&#45;c3d1&#45;4385&#45;b634&#45;56c912a50d8c -->
<g id="node12" class="node">
<title>886949db&#45;c3d1&#45;4385&#45;b634&#45;56c912a50d8c</title>
<polygon fill="white" stroke="black" points="2752,-36 2237,-36 2237,0 2752,0 2752,-36"/>
<text text-anchor="middle" x="2494.5" y="-14.3" font-family="Helvetica,sans-Serif" font-size="14.00">▶ Run GitHub Actions for `src/openai/resources/beta/assistants/files.py`</text>
</g>
<!-- 05cae019&#45;82b9&#45;45c2&#45;8ae1&#45;cfbf37473a8c&#45;&gt;886949db&#45;c3d1&#45;4385&#45;b634&#45;56c912a50d8c -->
<g id="edge9" class="edge">
<title>05cae019&#45;82b9&#45;45c2&#45;8ae1&#45;cfbf37473a8c&#45;&gt;886949db&#45;c3d1&#45;4385&#45;b634&#45;56c912a50d8c</title>
<path fill="none" stroke="black" stroke-dasharray="5,2" d="M2481.05,-72.72C2483.19,-64.18 2485.57,-54.68 2487.72,-46.08"/>
<polygon fill="black" stroke="black" points="2491.17,-46.7 2490.21,-36.15 2484.38,-45 2491.17,-46.7"/>
</g>
</g>
</svg>
