<?xml version="1.0" encoding="UTF-8" standalone="no"?>
<!DOCTYPE svg PUBLIC "-//W3C//DTD SVG 1.1//EN"
 "http://www.w3.org/Graphics/SVG/1.1/DTD/svg11.dtd">
<!-- Generated by graphviz version 2.43.0 (0)
 -->
<!-- Title: %3 Pages: 1 -->
<svg width="732pt" height="238pt"
 viewBox="0.00 0.00 732.00 237.74" xmlns="http://www.w3.org/2000/svg" xmlns:xlink="http://www.w3.org/1999/xlink">
<g id="graph0" class="graph" transform="scale(1 1) rotate(0) translate(36 201.74)">
<title>%3</title>
<polygon fill="dimgray" stroke="transparent" points="-36,36 -36,-201.74 696,-201.74 696,36 -36,36"/>
<text text-anchor="middle" x="330" y="-150.54" font-family="Helvetica,sans-Serif" font-size="14.00">Sweep&#39;s Plan &amp; Progress</text>
<!-- start -->
<g id="node1" class="node">
<title>start</title>
</g>
<!-- 2905f30a&#45;6b53&#45;4498&#45;a6bf&#45;519de8322e02 -->
<g id="node3" class="node">
<title>2905f30a&#45;6b53&#45;4498&#45;a6bf&#45;519de8322e02</title>
<ellipse fill="#0ee832" stroke="black" cx="233.5" cy="-99.87" rx="108.79" ry="26.74"/>
<text text-anchor="middle" x="233.5" y="-103.67" font-family="Helvetica,sans-Serif" font-size="14.00">✓ Create</text>
<text text-anchor="middle" x="233.5" y="-88.67" font-family="Helvetica,sans-Serif" font-size="14.00">docs/dashboard.md</text>
</g>
<!-- start&#45;&gt;2905f30a&#45;6b53&#45;4498&#45;a6bf&#45;519de8322e02 -->
<g id="edge4" class="edge">
<title>start&#45;&gt;2905f30a&#45;6b53&#45;4498&#45;a6bf&#45;519de8322e02</title>
<path fill="none" stroke="black" d="M73.22,-99.87C76.76,-99.87 93.07,-99.87 114.02,-99.87"/>
<polygon fill="black" stroke="black" points="114.3,-103.37 124.3,-99.87 114.3,-96.37 114.3,-103.37"/>
<text text-anchor="middle" x="98.8" y="-106.67" font-family="Helvetica,sans-Serif" font-size="14.00">Start</text>
</g>
<!-- end -->
<g id="node2" class="node">
<title>end</title>
</g>
<!-- b62e3094&#45;cfe3&#45;40bc&#45;b70d&#45;9ed8dd10ff70 -->
<g id="node4" class="node">
<title>b62e3094&#45;cfe3&#45;40bc&#45;b70d&#45;9ed8dd10ff70</title>
<ellipse fill="white" stroke="black" cx="482.5" cy="-99.87" rx="73.58" ry="26.74"/>
<text text-anchor="middle" x="482.5" y="-103.67" font-family="Helvetica,sans-Serif" font-size="14.00">▶ Modify</text>
<text text-anchor="middle" x="482.5" y="-88.67" font-family="Helvetica,sans-Serif" font-size="14.00">README.md</text>
</g>
<!-- 2905f30a&#45;6b53&#45;4498&#45;a6bf&#45;519de8322e02&#45;&gt;b62e3094&#45;cfe3&#45;40bc&#45;b70d&#45;9ed8dd10ff70 -->
<g id="edge2" class="edge">
<title>2905f30a&#45;6b53&#45;4498&#45;a6bf&#45;519de8322e02&#45;&gt;b62e3094&#45;cfe3&#45;40bc&#45;b70d&#45;9ed8dd10ff70</title>
<path fill="none" stroke="black" d="M342.44,-99.87C361.22,-99.87 380,-99.87 398.79,-99.87"/>
<polygon fill="black" stroke="black" points="398.91,-103.37 408.91,-99.87 398.91,-96.37 398.91,-103.37"/>
</g>
<!-- 22a55abd&#45;d7d7&#45;461c&#45;88b3&#45;3a4bca059c53 -->
<g id="node5" class="node">
<title>22a55abd&#45;d7d7&#45;461c&#45;88b3&#45;3a4bca059c53</title>
<polygon fill="#0ee832" stroke="black" points="347,-36 0,-36 0,0 347,0 347,-36"/>
<text text-anchor="middle" x="173.5" y="-14.3" font-family="Helvetica,sans-Serif" font-size="14.00">✓ Run GitHub Actions for `docs/dashboard.md`</text>
</g>
<!-- 2905f30a&#45;6b53&#45;4498&#45;a6bf&#45;519de8322e02&#45;&gt;22a55abd&#45;d7d7&#45;461c&#45;88b3&#45;3a4bca059c53 -->
<g id="edge1" class="edge">
<title>2905f30a&#45;6b53&#45;4498&#45;a6bf&#45;519de8322e02&#45;&gt;22a55abd&#45;d7d7&#45;461c&#45;88b3&#45;3a4bca059c53</title>
<path fill="none" stroke="black" stroke-dasharray="5,2" d="M214.19,-73.16C207.26,-63.94 199.46,-53.56 192.56,-44.37"/>
<polygon fill="black" stroke="black" points="195.33,-42.23 186.52,-36.34 189.73,-46.43 195.33,-42.23"/>
</g>
<!-- b62e3094&#45;cfe3&#45;40bc&#45;b70d&#45;9ed8dd10ff70&#45;&gt;end -->
<g id="edge5" class="edge">
<title>b62e3094&#45;cfe3&#45;40bc&#45;b70d&#45;9ed8dd10ff70&#45;&gt;end</title>
<path fill="none" stroke="black" d="M556.22,-99.87C574.84,-99.87 592.64,-99.87 603.56,-99.87"/>
<polygon fill="black" stroke="black" points="603.78,-103.37 613.78,-99.87 603.78,-96.37 603.78,-103.37"/>
<text text-anchor="middle" x="585.02" y="-106.67" font-family="Helvetica,sans-Serif" font-size="14.00">Finish</text>
</g>
<!-- 250f2bc1&#45;9230&#45;4227&#45;a0a4&#45;74d66bf3c72e -->
<g id="node6" class="node">
<title>250f2bc1&#45;9230&#45;4227&#45;a0a4&#45;74d66bf3c72e</title>
<polygon fill="white" stroke="black" points="660,-36 365,-36 365,0 660,0 660,-36"/>
<text text-anchor="middle" x="512.5" y="-14.3" font-family="Helvetica,sans-Serif" font-size="14.00">▶ Run GitHub Actions for `README.md`</text>
</g>
<!-- b62e3094&#45;cfe3&#45;40bc&#45;b70d&#45;9ed8dd10ff70&#45;&gt;250f2bc1&#45;9230&#45;4227&#45;a0a4&#45;74d66bf3c72e -->
<g id="edge3" class="edge">
<title>b62e3094&#45;cfe3&#45;40bc&#45;b70d&#45;9ed8dd10ff70&#45;&gt;250f2bc1&#45;9230&#45;4227&#45;a0a4&#45;74d66bf3c72e</title>
<path fill="none" stroke="black" stroke-dasharray="5,2" d="M492.16,-73.16C495.44,-64.41 499.12,-54.62 502.44,-45.79"/>
<polygon fill="black" stroke="black" points="505.75,-46.93 505.99,-36.34 499.2,-44.47 505.75,-46.93"/>
</g>
</g>
</svg>
