<?xml version="1.0" encoding="UTF-8" standalone="no"?>
<!DOCTYPE svg PUBLIC "-//W3C//DTD SVG 1.1//EN"
 "http://www.w3.org/Graphics/SVG/1.1/DTD/svg11.dtd">
<!-- Generated by graphviz version 2.43.0 (0)
 -->
<!-- Title: %3 Pages: 1 -->
<svg width="2832pt" height="238pt"
 viewBox="0.00 0.00 2832.00 237.74" xmlns="http://www.w3.org/2000/svg" xmlns:xlink="http://www.w3.org/1999/xlink">
<g id="graph0" class="graph" transform="scale(1 1) rotate(0) translate(36 201.74)">
<title>%3</title>
<polygon fill="dimgray" stroke="transparent" points="-36,36 -36,-201.74 2796,-201.74 2796,36 -36,36"/>
<text text-anchor="middle" x="1380" y="-150.54" font-family="Helvetica,sans-Serif" font-size="14.00">Sweep&#39;s Plan &amp; Progress</text>
<!-- start -->
<g id="node1" class="node">
<title>start</title>
</g>
<!-- 2dec07cf&#45;ddca&#45;4ae3&#45;9299&#45;cbd0287e6be5 -->
<g id="node3" class="node">
<title>2dec07cf&#45;ddca&#45;4ae3&#45;9299&#45;cbd0287e6be5</title>
<ellipse fill="yellow" stroke="black" cx="310.5" cy="-99.87" rx="258.19" ry="26.74"/>
<text text-anchor="middle" x="310.5" y="-103.67" font-family="Helvetica,sans-Serif" font-size="14.00">⋯ Modify</text>
<text text-anchor="middle" x="310.5" y="-88.67" font-family="Helvetica,sans-Serif" font-size="14.00">src/openai/resources/beta/assistants/assistants.py</text>
</g>
<!-- start&#45;&gt;2dec07cf&#45;ddca&#45;4ae3&#45;9299&#45;cbd0287e6be5 -->
<g id="edge10" class="edge">
<title>start&#45;&gt;2dec07cf&#45;ddca&#45;4ae3&#45;9299&#45;cbd0287e6be5</title>
<path fill="none" stroke="black" d="M1,-99.87C3.93,-99.87 19.4,-99.87 42.01,-99.87"/>
<polygon fill="black" stroke="black" points="42.11,-103.37 52.11,-99.87 42.11,-96.37 42.11,-103.37"/>
<text text-anchor="middle" x="26.7" y="-106.67" font-family="Helvetica,sans-Serif" font-size="14.00">Start</text>
</g>
<!-- end -->
<g id="node2" class="node">
<title>end</title>
</g>
<!-- 944cef10&#45;26e5&#45;4be5&#45;ac5a&#45;ea470ad578f0 -->
<g id="node4" class="node">
<title>944cef10&#45;26e5&#45;4be5&#45;ac5a&#45;ea470ad578f0</title>
<ellipse fill="white" stroke="black" cx="873.5" cy="-99.87" rx="258.19" ry="26.74"/>
<text text-anchor="middle" x="873.5" y="-103.67" font-family="Helvetica,sans-Serif" font-size="14.00">▶ Modify</text>
<text text-anchor="middle" x="873.5" y="-88.67" font-family="Helvetica,sans-Serif" font-size="14.00">src/openai/resources/beta/assistants/assistants.py</text>
</g>
<!-- 2dec07cf&#45;ddca&#45;4ae3&#45;9299&#45;cbd0287e6be5&#45;&gt;944cef10&#45;26e5&#45;4be5&#45;ac5a&#45;ea470ad578f0 -->
<g id="edge2" class="edge">
<title>2dec07cf&#45;ddca&#45;4ae3&#45;9299&#45;cbd0287e6be5&#45;&gt;944cef10&#45;26e5&#45;4be5&#45;ac5a&#45;ea470ad578f0</title>
<path fill="none" stroke="black" d="M568.63,-99.87C580.81,-99.87 592.98,-99.87 605.15,-99.87"/>
<polygon fill="black" stroke="black" points="605.38,-103.37 615.38,-99.87 605.38,-96.37 605.38,-103.37"/>
</g>
<!-- 4b2f37af&#45;e486&#45;41f6&#45;b8a9&#45;829cafea84e1 -->
<g id="node8" class="node">
<title>4b2f37af&#45;e486&#45;41f6&#45;b8a9&#45;829cafea84e1</title>
<polygon fill="white" stroke="black" points="577.5,-36 21.5,-36 21.5,0 577.5,0 577.5,-36"/>
<text text-anchor="middle" x="299.5" y="-14.3" font-family="Helvetica,sans-Serif" font-size="14.00">▶ Run GitHub Actions for `src/openai/resources/beta/assistants/assistants.py`</text>
</g>
<!-- 2dec07cf&#45;ddca&#45;4ae3&#45;9299&#45;cbd0287e6be5&#45;&gt;4b2f37af&#45;e486&#45;41f6&#45;b8a9&#45;829cafea84e1 -->
<g id="edge1" class="edge">
<title>2dec07cf&#45;ddca&#45;4ae3&#45;9299&#45;cbd0287e6be5&#45;&gt;4b2f37af&#45;e486&#45;41f6&#45;b8a9&#45;829cafea84e1</title>
<path fill="none" stroke="black" stroke-dasharray="5,2" d="M306.9,-72.72C305.72,-64.18 304.41,-54.68 303.23,-46.08"/>
<polygon fill="black" stroke="black" points="306.69,-45.58 301.86,-36.15 299.76,-46.53 306.69,-45.58"/>
</g>
<!-- a940ee98&#45;4721&#45;4c9a&#45;80ff&#45;f6a5fb684ee1 -->
<g id="node5" class="node">
<title>a940ee98&#45;4721&#45;4c9a&#45;80ff&#45;f6a5fb684ee1</title>
<ellipse fill="white" stroke="black" cx="1427.5" cy="-99.87" rx="228.29" ry="26.74"/>
<text text-anchor="middle" x="1427.5" y="-103.67" font-family="Helvetica,sans-Serif" font-size="14.00">▶ Modify</text>
<text text-anchor="middle" x="1427.5" y="-88.67" font-family="Helvetica,sans-Serif" font-size="14.00">src/openai/resources/beta/assistants/files.py</text>
</g>
<!-- 944cef10&#45;26e5&#45;4be5&#45;ac5a&#45;ea470ad578f0&#45;&gt;a940ee98&#45;4721&#45;4c9a&#45;80ff&#45;f6a5fb684ee1 -->
<g id="edge4" class="edge">
<title>944cef10&#45;26e5&#45;4be5&#45;ac5a&#45;ea470ad578f0&#45;&gt;a940ee98&#45;4721&#45;4c9a&#45;80ff&#45;f6a5fb684ee1</title>
<path fill="none" stroke="black" d="M1131.83,-99.87C1150.76,-99.87 1169.69,-99.87 1188.62,-99.87"/>
<polygon fill="black" stroke="black" points="1188.82,-103.37 1198.82,-99.87 1188.82,-96.37 1188.82,-103.37"/>
</g>
<!-- 7693b2b3&#45;6795&#45;494e&#45;8b30&#45;ab3f4e299e23 -->
<g id="node9" class="node">
<title>7693b2b3&#45;6795&#45;494e&#45;8b30&#45;ab3f4e299e23</title>
<polygon fill="white" stroke="black" points="1151.5,-36 595.5,-36 595.5,0 1151.5,0 1151.5,-36"/>
<text text-anchor="middle" x="873.5" y="-14.3" font-family="Helvetica,sans-Serif" font-size="14.00">▶ Run GitHub Actions for `src/openai/resources/beta/assistants/assistants.py`</text>
</g>
<!-- 944cef10&#45;26e5&#45;4be5&#45;ac5a&#45;ea470ad578f0&#45;&gt;7693b2b3&#45;6795&#45;494e&#45;8b30&#45;ab3f4e299e23 -->
<g id="edge3" class="edge">
<title>944cef10&#45;26e5&#45;4be5&#45;ac5a&#45;ea470ad578f0&#45;&gt;7693b2b3&#45;6795&#45;494e&#45;8b30&#45;ab3f4e299e23</title>
<path fill="none" stroke="black" stroke-dasharray="5,2" d="M873.5,-72.72C873.5,-64.27 873.5,-54.89 873.5,-46.36"/>
<polygon fill="black" stroke="black" points="877,-46.15 873.5,-36.15 870,-46.15 877,-46.15"/>
</g>
<!-- a54b52eb&#45;0e0b&#45;4208&#45;ac9d&#45;34325d34749f -->
<g id="node6" class="node">
<title>a54b52eb&#45;0e0b&#45;4208&#45;ac9d&#45;34325d34749f</title>
<ellipse fill="white" stroke="black" cx="1960.5" cy="-99.87" rx="228.29" ry="26.74"/>
<text text-anchor="middle" x="1960.5" y="-103.67" font-family="Helvetica,sans-Serif" font-size="14.00">▶ Modify</text>
<text text-anchor="middle" x="1960.5" y="-88.67" font-family="Helvetica,sans-Serif" font-size="14.00">src/openai/resources/beta/assistants/files.py</text>
</g>
<!-- a940ee98&#45;4721&#45;4c9a&#45;80ff&#45;f6a5fb684ee1&#45;&gt;a54b52eb&#45;0e0b&#45;4208&#45;ac9d&#45;34325d34749f -->
<g id="edge6" class="edge">
<title>a940ee98&#45;4721&#45;4c9a&#45;80ff&#45;f6a5fb684ee1&#45;&gt;a54b52eb&#45;0e0b&#45;4208&#45;ac9d&#45;34325d34749f</title>
<path fill="none" stroke="black" d="M1656,-99.87C1677.92,-99.87 1699.84,-99.87 1721.76,-99.87"/>
<polygon fill="black" stroke="black" points="1721.83,-103.37 1731.83,-99.87 1721.83,-96.37 1721.83,-103.37"/>
</g>
<!-- b99a78f7&#45;aa3c&#45;4f21&#45;8072&#45;880a0791b6c8 -->
<g id="node10" class="node">
<title>b99a78f7&#45;aa3c&#45;4f21&#45;8072&#45;880a0791b6c8</title>
<polygon fill="white" stroke="black" points="1685,-36 1170,-36 1170,0 1685,0 1685,-36"/>
<text text-anchor="middle" x="1427.5" y="-14.3" font-family="Helvetica,sans-Serif" font-size="14.00">▶ Run GitHub Actions for `src/openai/resources/beta/assistants/files.py`</text>
</g>
<!-- a940ee98&#45;4721&#45;4c9a&#45;80ff&#45;f6a5fb684ee1&#45;&gt;b99a78f7&#45;aa3c&#45;4f21&#45;8072&#45;880a0791b6c8 -->
<g id="edge5" class="edge">
<title>a940ee98&#45;4721&#45;4c9a&#45;80ff&#45;f6a5fb684ee1&#45;&gt;b99a78f7&#45;aa3c&#45;4f21&#45;8072&#45;880a0791b6c8</title>
<path fill="none" stroke="black" stroke-dasharray="5,2" d="M1427.5,-72.72C1427.5,-64.27 1427.5,-54.89 1427.5,-46.36"/>
<polygon fill="black" stroke="black" points="1431,-46.15 1427.5,-36.15 1424,-46.15 1431,-46.15"/>
</g>
<!-- 05cae019&#45;82b9&#45;45c2&#45;8ae1&#45;cfbf37473a8c -->
<g id="node7" class="node">
<title>05cae019&#45;82b9&#45;45c2&#45;8ae1&#45;cfbf37473a8c</title>
<ellipse fill="white" stroke="black" cx="2473.5" cy="-99.87" rx="228.29" ry="26.74"/>
<text text-anchor="middle" x="2473.5" y="-103.67" font-family="Helvetica,sans-Serif" font-size="14.00">▶ Modify</text>
<text text-anchor="middle" x="2473.5" y="-88.67" font-family="Helvetica,sans-Serif" font-size="14.00">src/openai/resources/beta/assistants/files.py</text>
</g>
<!-- a54b52eb&#45;0e0b&#45;4208&#45;ac9d&#45;34325d34749f&#45;&gt;05cae019&#45;82b9&#45;45c2&#45;8ae1&#45;cfbf37473a8c -->
<g id="edge8" class="edge">
<title>a54b52eb&#45;0e0b&#45;4208&#45;ac9d&#45;34325d34749f&#45;&gt;05cae019&#45;82b9&#45;45c2&#45;8ae1&#45;cfbf37473a8c</title>
<path fill="none" stroke="black" d="M2188.95,-99.87C2204.29,-99.87 2219.64,-99.87 2234.99,-99.87"/>
<polygon fill="black" stroke="black" points="2235.08,-103.37 2245.08,-99.87 2235.08,-96.37 2235.08,-103.37"/>
</g>
<!-- e33078aa&#45;f19d&#45;424e&#45;9d55&#45;2bc697cfdd1b -->
<g id="node11" class="node">
<title>e33078aa&#45;f19d&#45;424e&#45;9d55&#45;2bc697cfdd1b</title>
<polygon fill="white" stroke="black" points="2218,-36 1703,-36 1703,0 2218,0 2218,-36"/>
<text text-anchor="middle" x="1960.5" y="-14.3" font-family="Helvetica,sans-Serif" font-size="14.00">▶ Run GitHub Actions for `src/openai/resources/beta/assistants/files.py`</text>
</g>
<!-- a54b52eb&#45;0e0b&#45;4208&#45;ac9d&#45;34325d34749f&#45;&gt;e33078aa&#45;f19d&#45;424e&#45;9d55&#45;2bc697cfdd1b -->
<g id="edge7" class="edge">
<title>a54b52eb&#45;0e0b&#45;4208&#45;ac9d&#45;34325d34749f&#45;&gt;e33078aa&#45;f19d&#45;424e&#45;9d55&#45;2bc697cfdd1b</title>
<path fill="none" stroke="black" stroke-dasharray="5,2" d="M1960.5,-72.72C1960.5,-64.27 1960.5,-54.89 1960.5,-46.36"/>
<polygon fill="black" stroke="black" points="1964,-46.15 1960.5,-36.15 1957,-46.15 1964,-46.15"/>
</g>
<!-- 05cae019&#45;82b9&#45;45c2&#45;8ae1&#45;cfbf37473a8c&#45;&gt;end -->
<g id="edge11" class="edge">
<title>05cae019&#45;82b9&#45;45c2&#45;8ae1&#45;cfbf37473a8c&#45;&gt;end</title>
<path fill="none" stroke="black" d="M2701.97,-99.87C2722.07,-99.87 2738.61,-99.87 2748.71,-99.87"/>
<polygon fill="black" stroke="black" points="2748.89,-103.37 2758.89,-99.87 2748.89,-96.37 2748.89,-103.37"/>
<text text-anchor="middle" x="2730.45" y="-106.67" font-family="Helvetica,sans-Serif" font-size="14.00">Finish</text>
</g>
<!-- 886949db&#45;c3d1&#45;4385&#45;b634&#45;56c912a50d8c -->
<g id="node12" class="node">
<title>886949db&#45;c3d1&#45;4385&#45;b634&#45;56c912a50d8c</title>
<polygon fill="white" stroke="black" points="2751,-36 2236,-36 2236,0 2751,0 2751,-36"/>
<text text-anchor="middle" x="2493.5" y="-14.3" font-family="Helvetica,sans-Serif" font-size="14.00">▶ Run GitHub Actions for `src/openai/resources/beta/assistants/files.py`</text>
</g>
<!-- 05cae019&#45;82b9&#45;45c2&#45;8ae1&#45;cfbf37473a8c&#45;&gt;886949db&#45;c3d1&#45;4385&#45;b634&#45;56c912a50d8c -->
<g id="edge9" class="edge">
<title>05cae019&#45;82b9&#45;45c2&#45;8ae1&#45;cfbf37473a8c&#45;&gt;886949db&#45;c3d1&#45;4385&#45;b634&#45;56c912a50d8c</title>
<path fill="none" stroke="black" stroke-dasharray="5,2" d="M2480.05,-72.72C2482.19,-64.18 2484.57,-54.68 2486.72,-46.08"/>
<polygon fill="black" stroke="black" points="2490.17,-46.7 2489.21,-36.15 2483.38,-45 2490.17,-46.7"/>
</g>
</g>
</svg>
