<?xml version="1.0" encoding="UTF-8" standalone="no"?>
<!DOCTYPE svg PUBLIC "-//W3C//DTD SVG 1.1//EN"
 "http://www.w3.org/Graphics/SVG/1.1/DTD/svg11.dtd">
<!-- Generated by graphviz version 2.43.0 (0)
 -->
<!-- Title: %3 Pages: 1 -->
<svg width="1608pt" height="238pt"
 viewBox="0.00 0.00 1607.50 237.74" xmlns="http://www.w3.org/2000/svg" xmlns:xlink="http://www.w3.org/1999/xlink">
<g id="graph0" class="graph" transform="scale(1 1) rotate(0) translate(36 201.74)">
<title>%3</title>
<polygon fill="dimgray" stroke="transparent" points="-36,36 -36,-201.74 1571.5,-201.74 1571.5,36 -36,36"/>
<text text-anchor="middle" x="767.75" y="-150.54" font-family="Helvetica,sans-Serif" font-size="14.00">Sweep&#39;s Plan &amp; Progress</text>
<!-- start -->
<g id="node1" class="node">
<title>start</title>
</g>
<!-- 0c9ad3c8&#45;53cd&#45;40dc&#45;b1ec&#45;f96face8865c -->
<g id="node3" class="node">
<title>0c9ad3c8&#45;53cd&#45;40dc&#45;b1ec&#45;f96face8865c</title>
<ellipse fill="#0ee832" stroke="black" cx="334.5" cy="-99.87" rx="282.27" ry="26.74"/>
<text text-anchor="middle" x="334.5" y="-103.67" font-family="Helvetica,sans-Serif" font-size="14.00">✓ Create</text>
<text text-anchor="middle" x="334.5" y="-88.67" font-family="Helvetica,sans-Serif" font-size="14.00">src/openai/resources/beta/assistants/problem_solver.py</text>
</g>
<!-- start&#45;&gt;0c9ad3c8&#45;53cd&#45;40dc&#45;b1ec&#45;f96face8865c -->
<g id="edge6" class="edge">
<title>start&#45;&gt;0c9ad3c8&#45;53cd&#45;40dc&#45;b1ec&#45;f96face8865c</title>
<path fill="none" stroke="black" d="M1.04,-99.87C4.05,-99.87 19.41,-99.87 42.01,-99.87"/>
<polygon fill="black" stroke="black" points="42.13,-103.37 52.13,-99.87 42.13,-96.37 42.13,-103.37"/>
<text text-anchor="middle" x="26.68" y="-106.67" font-family="Helvetica,sans-Serif" font-size="14.00">Start</text>
</g>
<!-- end -->
<g id="node2" class="node">
<title>end</title>
</g>
<!-- 39867ec9&#45;bd6e&#45;4c5c&#45;9c59&#45;a35da2d8940d -->
<g id="node4" class="node">
<title>39867ec9&#45;bd6e&#45;4c5c&#45;9c59&#45;a35da2d8940d</title>
<ellipse fill="#0ee832" stroke="black" cx="919.5" cy="-99.87" rx="258.19" ry="26.74"/>
<text text-anchor="middle" x="919.5" y="-103.67" font-family="Helvetica,sans-Serif" font-size="14.00">✓ Modify</text>
<text text-anchor="middle" x="919.5" y="-88.67" font-family="Helvetica,sans-Serif" font-size="14.00">src/openai/resources/beta/assistants/assistants.py</text>
</g>
<!-- 0c9ad3c8&#45;53cd&#45;40dc&#45;b1ec&#45;f96face8865c&#45;&gt;39867ec9&#45;bd6e&#45;4c5c&#45;9c59&#45;a35da2d8940d -->
<g id="edge2" class="edge">
<title>0c9ad3c8&#45;53cd&#45;40dc&#45;b1ec&#45;f96face8865c&#45;&gt;39867ec9&#45;bd6e&#45;4c5c&#45;9c59&#45;a35da2d8940d</title>
<path fill="none" stroke="black" d="M616.72,-99.87C628.23,-99.87 639.74,-99.87 651.25,-99.87"/>
<polygon fill="black" stroke="black" points="651.37,-103.37 661.37,-99.87 651.37,-96.37 651.37,-103.37"/>
</g>
<!-- fdaea346&#45;d242&#45;4451&#45;b042&#45;cf30fefafd52 -->
<g id="node6" class="node">
<title>fdaea346&#45;d242&#45;4451&#45;b042&#45;cf30fefafd52</title>
<polygon fill="#0ee832" stroke="black" points="621.5,-36 29.5,-36 29.5,0 621.5,0 621.5,-36"/>
<text text-anchor="middle" x="325.5" y="-14.3" font-family="Helvetica,sans-Serif" font-size="14.00">✓ Run GitHub Actions for `src/openai/resources/beta/assistants/problem_solver.py`</text>
</g>
<!-- 0c9ad3c8&#45;53cd&#45;40dc&#45;b1ec&#45;f96face8865c&#45;&gt;fdaea346&#45;d242&#45;4451&#45;b042&#45;cf30fefafd52 -->
<g id="edge1" class="edge">
<title>0c9ad3c8&#45;53cd&#45;40dc&#45;b1ec&#45;f96face8865c&#45;&gt;fdaea346&#45;d242&#45;4451&#45;b042&#45;cf30fefafd52</title>
<path fill="none" stroke="black" stroke-dasharray="5,2" d="M331.55,-72.72C330.6,-64.27 329.54,-54.89 328.58,-46.36"/>
<polygon fill="black" stroke="black" points="332.03,-45.69 327.43,-36.15 325.07,-46.48 332.03,-45.69"/>
</g>
<!-- d91a8ce3&#45;bf21&#45;4954&#45;a5c0&#45;10e13cafbcec -->
<g id="node5" class="node">
<title>d91a8ce3&#45;bf21&#45;4954&#45;a5c0&#45;10e13cafbcec</title>
<ellipse fill="white" stroke="black" cx="1339.5" cy="-99.87" rx="89.61" ry="26.74"/>
<text text-anchor="middle" x="1339.5" y="-103.67" font-family="Helvetica,sans-Serif" font-size="14.00">▶ Modify</text>
<text text-anchor="middle" x="1339.5" y="-88.67" font-family="Helvetica,sans-Serif" font-size="14.00">cheat_sheet.md</text>
</g>
<!-- 39867ec9&#45;bd6e&#45;4c5c&#45;9c59&#45;a35da2d8940d&#45;&gt;d91a8ce3&#45;bf21&#45;4954&#45;a5c0&#45;10e13cafbcec -->
<g id="edge4" class="edge">
<title>39867ec9&#45;bd6e&#45;4c5c&#45;9c59&#45;a35da2d8940d&#45;&gt;d91a8ce3&#45;bf21&#45;4954&#45;a5c0&#45;10e13cafbcec</title>
<path fill="none" stroke="black" d="M1177.9,-99.87C1198.42,-99.87 1218.95,-99.87 1239.47,-99.87"/>
<polygon fill="black" stroke="black" points="1239.55,-103.37 1249.55,-99.87 1239.55,-96.37 1239.55,-103.37"/>
</g>
<!-- c6650a75&#45;4dff&#45;423a&#45;a3e1&#45;6efc062f3398 -->
<g id="node7" class="node">
<title>c6650a75&#45;4dff&#45;423a&#45;a3e1&#45;6efc062f3398</title>
<polygon fill="yellow" stroke="black" points="1199.5,-36 639.5,-36 639.5,0 1199.5,0 1199.5,-36"/>
<text text-anchor="middle" x="919.5" y="-14.3" font-family="Helvetica,sans-Serif" font-size="14.00">⋯ Run GitHub Actions for `src/openai/resources/beta/assistants/assistants.py`</text>
</g>
<!-- 39867ec9&#45;bd6e&#45;4c5c&#45;9c59&#45;a35da2d8940d&#45;&gt;c6650a75&#45;4dff&#45;423a&#45;a3e1&#45;6efc062f3398 -->
<g id="edge3" class="edge">
<title>39867ec9&#45;bd6e&#45;4c5c&#45;9c59&#45;a35da2d8940d&#45;&gt;c6650a75&#45;4dff&#45;423a&#45;a3e1&#45;6efc062f3398</title>
<path fill="none" stroke="black" stroke-dasharray="5,2" d="M919.5,-72.72C919.5,-64.27 919.5,-54.89 919.5,-46.36"/>
<polygon fill="black" stroke="black" points="923,-46.15 919.5,-36.15 916,-46.15 923,-46.15"/>
</g>
<!-- d91a8ce3&#45;bf21&#45;4954&#45;a5c0&#45;10e13cafbcec&#45;&gt;end -->
<g id="edge7" class="edge">
<title>d91a8ce3&#45;bf21&#45;4954&#45;a5c0&#45;10e13cafbcec&#45;&gt;end</title>
<path fill="none" stroke="black" d="M1429.43,-99.87C1448.3,-99.87 1465.72,-99.87 1476.46,-99.87"/>
<polygon fill="black" stroke="black" points="1476.81,-103.37 1486.81,-99.87 1476.81,-96.37 1476.81,-103.37"/>
<text text-anchor="middle" x="1458.15" y="-106.67" font-family="Helvetica,sans-Serif" font-size="14.00">Finish</text>
</g>
<!-- 2836ee31&#45;b852&#45;420f&#45;a7f5&#45;f74ff00294ca -->
<g id="node8" class="node">
<title>2836ee31&#45;b852&#45;420f&#45;a7f5&#45;f74ff00294ca</title>
<polygon fill="white" stroke="black" points="1535.5,-36 1217.5,-36 1217.5,0 1535.5,0 1535.5,-36"/>
<text text-anchor="middle" x="1376.5" y="-14.3" font-family="Helvetica,sans-Serif" font-size="14.00">▶ Run GitHub Actions for `cheat_sheet.md`</text>
</g>
<!-- d91a8ce3&#45;bf21&#45;4954&#45;a5c0&#45;10e13cafbcec&#45;&gt;2836ee31&#45;b852&#45;420f&#45;a7f5&#45;f74ff00294ca -->
<g id="edge5" class="edge">
<title>d91a8ce3&#45;bf21&#45;4954&#45;a5c0&#45;10e13cafbcec&#45;&gt;2836ee31&#45;b852&#45;420f&#45;a7f5&#45;f74ff00294ca</title>
<path fill="none" stroke="black" stroke-dasharray="5,2" d="M1351.41,-73.16C1355.51,-64.32 1360.1,-54.41 1364.22,-45.5"/>
<polygon fill="black" stroke="black" points="1367.44,-46.88 1368.47,-36.34 1361.09,-43.94 1367.44,-46.88"/>
</g>
</g>
</svg>
