<?xml version="1.0" encoding="UTF-8" standalone="no"?>
<!DOCTYPE svg PUBLIC "-//W3C//DTD SVG 1.1//EN"
 "http://www.w3.org/Graphics/SVG/1.1/DTD/svg11.dtd">
<!-- Generated by graphviz version 2.43.0 (0)
 -->
<!-- Title: %3 Pages: 1 -->
<svg width="3329pt" height="238pt"
 viewBox="0.00 0.00 3329.00 237.74" xmlns="http://www.w3.org/2000/svg" xmlns:xlink="http://www.w3.org/1999/xlink">
<g id="graph0" class="graph" transform="scale(1 1) rotate(0) translate(36 201.74)">
<title>%3</title>
<polygon fill="dimgray" stroke="transparent" points="-36,36 -36,-201.74 3293,-201.74 3293,36 -36,36"/>
<text text-anchor="middle" x="1628.5" y="-150.54" font-family="Helvetica,sans-Serif" font-size="14.00">Sweep&#39;s Plan &amp; Progress</text>
<!-- start -->
<g id="node1" class="node">
<title>start</title>
</g>
<!-- cfd6c7d8&#45;9cc1&#45;42d0&#45;b385&#45;32741fdf741e -->
<g id="node3" class="node">
<title>cfd6c7d8&#45;9cc1&#45;42d0&#45;b385&#45;32741fdf741e</title>
<ellipse fill="#0ee832" stroke="black" cx="194.5" cy="-99.87" rx="96.75" ry="26.74"/>
<text text-anchor="middle" x="194.5" y="-103.67" font-family="Helvetica,sans-Serif" font-size="14.00">✓ Create</text>
<text text-anchor="middle" x="194.5" y="-88.67" font-family="Helvetica,sans-Serif" font-size="14.00">src/dashboard.py</text>
</g>
<!-- start&#45;&gt;cfd6c7d8&#45;9cc1&#45;42d0&#45;b385&#45;32741fdf741e -->
<g id="edge12" class="edge">
<title>start&#45;&gt;cfd6c7d8&#45;9cc1&#45;42d0&#45;b385&#45;32741fdf741e</title>
<path fill="none" stroke="black" d="M46.16,-99.87C49.63,-99.87 66.24,-99.87 87.18,-99.87"/>
<polygon fill="black" stroke="black" points="87.42,-103.37 97.42,-99.87 87.42,-96.37 87.42,-103.37"/>
<text text-anchor="middle" x="71.81" y="-106.67" font-family="Helvetica,sans-Serif" font-size="14.00">Start</text>
</g>
<!-- end -->
<g id="node2" class="node">
<title>end</title>
</g>
<!-- 3d3b8f39&#45;1621&#45;4ce4&#45;964f&#45;6ab7125d2e83 -->
<g id="node4" class="node">
<title>3d3b8f39&#45;1621&#45;4ce4&#45;964f&#45;6ab7125d2e83</title>
<ellipse fill="#0ee832" stroke="black" cx="653.5" cy="-99.87" rx="296.97" ry="26.74"/>
<text text-anchor="middle" x="653.5" y="-103.67" font-family="Helvetica,sans-Serif" font-size="14.00">✓ Modify</text>
<text text-anchor="middle" x="653.5" y="-88.67" font-family="Helvetica,sans-Serif" font-size="14.00">src/openai/types/beta/threads/message_create_params.py</text>
</g>
<!-- cfd6c7d8&#45;9cc1&#45;42d0&#45;b385&#45;32741fdf741e&#45;&gt;3d3b8f39&#45;1621&#45;4ce4&#45;964f&#45;6ab7125d2e83 -->
<g id="edge2" class="edge">
<title>cfd6c7d8&#45;9cc1&#45;42d0&#45;b385&#45;32741fdf741e&#45;&gt;3d3b8f39&#45;1621&#45;4ce4&#45;964f&#45;6ab7125d2e83</title>
<path fill="none" stroke="black" d="M291.77,-99.87C309.95,-99.87 328.13,-99.87 346.31,-99.87"/>
<polygon fill="black" stroke="black" points="346.41,-103.37 356.41,-99.87 346.41,-96.37 346.41,-103.37"/>
</g>
<!-- 5766749f&#45;cfd1&#45;4e82&#45;9ed6&#45;49f6a503efd7 -->
<g id="node9" class="node">
<title>5766749f&#45;cfd1&#45;4e82&#45;9ed6&#45;49f6a503efd7</title>
<polygon fill="#0ee832" stroke="black" points="329,-36 0,-36 0,0 329,0 329,-36"/>
<text text-anchor="middle" x="164.5" y="-14.3" font-family="Helvetica,sans-Serif" font-size="14.00">✓ Run GitHub Actions for `src/dashboard.py`</text>
</g>
<!-- cfd6c7d8&#45;9cc1&#45;42d0&#45;b385&#45;32741fdf741e&#45;&gt;5766749f&#45;cfd1&#45;4e82&#45;9ed6&#45;49f6a503efd7 -->
<g id="edge1" class="edge">
<title>cfd6c7d8&#45;9cc1&#45;42d0&#45;b385&#45;32741fdf741e&#45;&gt;5766749f&#45;cfd1&#45;4e82&#45;9ed6&#45;49f6a503efd7</title>
<path fill="none" stroke="black" stroke-dasharray="5,2" d="M184.68,-72.72C181.4,-63.99 177.75,-54.26 174.46,-45.51"/>
<polygon fill="black" stroke="black" points="177.73,-44.28 170.94,-36.15 171.18,-46.74 177.73,-44.28"/>
</g>
<!-- 6db54d0d&#45;ca3c&#45;4289&#45;bb8f&#45;69782b67b507 -->
<g id="node5" class="node">
<title>6db54d0d&#45;ca3c&#45;4289&#45;bb8f&#45;69782b67b507</title>
<ellipse fill="#ee0000" stroke="black" cx="1279.5" cy="-99.87" rx="289.83" ry="26.74"/>
<text text-anchor="middle" x="1279.5" y="-103.67" font-family="Helvetica,sans-Serif" font-size="14.00">✗ Modify</text>
<text text-anchor="middle" x="1279.5" y="-88.67" font-family="Helvetica,sans-Serif" font-size="14.00">src/openai/types/beta/thread_create_and_run_params.py</text>
</g>
<!-- 3d3b8f39&#45;1621&#45;4ce4&#45;964f&#45;6ab7125d2e83&#45;&gt;6db54d0d&#45;ca3c&#45;4289&#45;bb8f&#45;69782b67b507 -->
<g id="edge4" class="edge">
<title>3d3b8f39&#45;1621&#45;4ce4&#45;964f&#45;6ab7125d2e83&#45;&gt;6db54d0d&#45;ca3c&#45;4289&#45;bb8f&#45;69782b67b507</title>
<path fill="none" stroke="black" d="M950.61,-99.87C960.22,-99.87 969.83,-99.87 979.45,-99.87"/>
<polygon fill="black" stroke="black" points="979.47,-103.37 989.47,-99.87 979.47,-96.37 979.47,-103.37"/>
</g>
<!-- 6224976b&#45;e9c6&#45;44f8&#45;8494&#45;54f318bac4da -->
<g id="node10" class="node">
<title>6224976b&#45;e9c6&#45;44f8&#45;8494&#45;54f318bac4da</title>
<polygon fill="#0ee832" stroke="black" points="960,-36 347,-36 347,0 960,0 960,-36"/>
<text text-anchor="middle" x="653.5" y="-14.3" font-family="Helvetica,sans-Serif" font-size="14.00">✓ Run GitHub Actions for `src/openai/types/beta/threads/message_create_params.py`</text>
</g>
<!-- 3d3b8f39&#45;1621&#45;4ce4&#45;964f&#45;6ab7125d2e83&#45;&gt;6224976b&#45;e9c6&#45;44f8&#45;8494&#45;54f318bac4da -->
<g id="edge3" class="edge">
<title>3d3b8f39&#45;1621&#45;4ce4&#45;964f&#45;6ab7125d2e83&#45;&gt;6224976b&#45;e9c6&#45;44f8&#45;8494&#45;54f318bac4da</title>
<path fill="none" stroke="black" stroke-dasharray="5,2" d="M653.5,-72.72C653.5,-64.27 653.5,-54.89 653.5,-46.36"/>
<polygon fill="black" stroke="black" points="657,-46.15 653.5,-36.15 650,-46.15 657,-46.15"/>
</g>
<!-- c3735f7e&#45;fa5c&#45;48dd&#45;abf5&#45;e54782404653 -->
<g id="node6" class="node">
<title>c3735f7e&#45;fa5c&#45;48dd&#45;abf5&#45;e54782404653</title>
<ellipse fill="#0ee832" stroke="black" cx="1873.5" cy="-99.87" rx="251.05" ry="26.74"/>
<text text-anchor="middle" x="1873.5" y="-103.67" font-family="Helvetica,sans-Serif" font-size="14.00">✓ Modify</text>
<text text-anchor="middle" x="1873.5" y="-88.67" font-family="Helvetica,sans-Serif" font-size="14.00">src/openai/types/create_embedding_response.py</text>
</g>
<!-- 6db54d0d&#45;ca3c&#45;4289&#45;bb8f&#45;69782b67b507&#45;&gt;c3735f7e&#45;fa5c&#45;48dd&#45;abf5&#45;e54782404653 -->
<g id="edge6" class="edge">
<title>6db54d0d&#45;ca3c&#45;4289&#45;bb8f&#45;69782b67b507&#45;&gt;c3735f7e&#45;fa5c&#45;48dd&#45;abf5&#45;e54782404653</title>
<path fill="none" stroke="black" d="M1569.54,-99.87C1583.71,-99.87 1597.88,-99.87 1612.06,-99.87"/>
<polygon fill="black" stroke="black" points="1612.38,-103.37 1622.38,-99.87 1612.38,-96.37 1612.38,-103.37"/>
</g>
<!-- 67c986c8&#45;8c28&#45;4714&#45;b573&#45;9abb3811fbfe -->
<g id="node11" class="node">
<title>67c986c8&#45;8c28&#45;4714&#45;b573&#45;9abb3811fbfe</title>
<polygon fill="#ee0000" stroke="black" points="1580.5,-36 978.5,-36 978.5,0 1580.5,0 1580.5,-36"/>
<text text-anchor="middle" x="1279.5" y="-14.3" font-family="Helvetica,sans-Serif" font-size="14.00">✗ Run GitHub Actions for `src/openai/types/beta/thread_create_and_run_params.py`</text>
</g>
<!-- 6db54d0d&#45;ca3c&#45;4289&#45;bb8f&#45;69782b67b507&#45;&gt;67c986c8&#45;8c28&#45;4714&#45;b573&#45;9abb3811fbfe -->
<g id="edge5" class="edge">
<title>6db54d0d&#45;ca3c&#45;4289&#45;bb8f&#45;69782b67b507&#45;&gt;67c986c8&#45;8c28&#45;4714&#45;b573&#45;9abb3811fbfe</title>
<path fill="none" stroke="black" stroke-dasharray="5,2" d="M1279.5,-72.72C1279.5,-64.27 1279.5,-54.89 1279.5,-46.36"/>
<polygon fill="black" stroke="black" points="1283,-46.15 1279.5,-36.15 1276,-46.15 1283,-46.15"/>
</g>
<!-- 768e5dce&#45;2552&#45;414a&#45;874f&#45;420d0128e88a -->
<g id="node7" class="node">
<title>768e5dce&#45;2552&#45;414a&#45;874f&#45;420d0128e88a</title>
<ellipse fill="white" stroke="black" cx="2460.5" cy="-99.87" rx="280.94" ry="26.74"/>
<text text-anchor="middle" x="2460.5" y="-103.67" font-family="Helvetica,sans-Serif" font-size="14.00">▶ Modify</text>
<text text-anchor="middle" x="2460.5" y="-88.67" font-family="Helvetica,sans-Serif" font-size="14.00">src/openai/types/audio/transcription_create_params.py</text>
</g>
<!-- c3735f7e&#45;fa5c&#45;48dd&#45;abf5&#45;e54782404653&#45;&gt;768e5dce&#45;2552&#45;414a&#45;874f&#45;420d0128e88a -->
<g id="edge8" class="edge">
<title>c3735f7e&#45;fa5c&#45;48dd&#45;abf5&#45;e54782404653&#45;&gt;768e5dce&#45;2552&#45;414a&#45;874f&#45;420d0128e88a</title>
<path fill="none" stroke="black" d="M2124.58,-99.87C2139.51,-99.87 2154.43,-99.87 2169.36,-99.87"/>
<polygon fill="black" stroke="black" points="2169.69,-103.37 2179.69,-99.87 2169.69,-96.37 2169.69,-103.37"/>
</g>
<!-- 49a94454&#45;c9a1&#45;4bb3&#45;8f0c&#45;7005a56f0064 -->
<g id="node12" class="node">
<title>49a94454&#45;c9a1&#45;4bb3&#45;8f0c&#45;7005a56f0064</title>
<polygon fill="yellow" stroke="black" points="2148.5,-36 1598.5,-36 1598.5,0 2148.5,0 2148.5,-36"/>
<text text-anchor="middle" x="1873.5" y="-14.3" font-family="Helvetica,sans-Serif" font-size="14.00">⋯ Run GitHub Actions for `src/openai/types/create_embedding_response.py`</text>
</g>
<!-- c3735f7e&#45;fa5c&#45;48dd&#45;abf5&#45;e54782404653&#45;&gt;49a94454&#45;c9a1&#45;4bb3&#45;8f0c&#45;7005a56f0064 -->
<g id="edge7" class="edge">
<title>c3735f7e&#45;fa5c&#45;48dd&#45;abf5&#45;e54782404653&#45;&gt;49a94454&#45;c9a1&#45;4bb3&#45;8f0c&#45;7005a56f0064</title>
<path fill="none" stroke="black" stroke-dasharray="5,2" d="M1873.5,-72.72C1873.5,-64.27 1873.5,-54.89 1873.5,-46.36"/>
<polygon fill="black" stroke="black" points="1877,-46.15 1873.5,-36.15 1870,-46.15 1877,-46.15"/>
</g>
<!-- 178e0824&#45;8bb9&#45;4b04&#45;8f2d&#45;f7b4dbbd163a -->
<g id="node8" class="node">
<title>178e0824&#45;8bb9&#45;4b04&#45;8f2d&#45;f7b4dbbd163a</title>
<ellipse fill="white" stroke="black" cx="2995.5" cy="-99.87" rx="202.88" ry="26.74"/>
<text text-anchor="middle" x="2995.5" y="-103.67" font-family="Helvetica,sans-Serif" font-size="14.00">▶ Modify</text>
<text text-anchor="middle" x="2995.5" y="-88.67" font-family="Helvetica,sans-Serif" font-size="14.00">src/openai/types/file_create_params.py</text>
</g>
<!-- 768e5dce&#45;2552&#45;414a&#45;874f&#45;420d0128e88a&#45;&gt;178e0824&#45;8bb9&#45;4b04&#45;8f2d&#45;f7b4dbbd163a -->
<g id="edge10" class="edge">
<title>768e5dce&#45;2552&#45;414a&#45;874f&#45;420d0128e88a&#45;&gt;178e0824&#45;8bb9&#45;4b04&#45;8f2d&#45;f7b4dbbd163a</title>
<path fill="none" stroke="black" d="M2741.32,-99.87C2754.91,-99.87 2768.49,-99.87 2782.07,-99.87"/>
<polygon fill="black" stroke="black" points="2782.46,-103.37 2792.46,-99.87 2782.46,-96.37 2782.46,-103.37"/>
</g>
<!-- 62c63cb0&#45;fb89&#45;4337&#45;98d9&#45;c500d35ad9b6 -->
<g id="node13" class="node">
<title>62c63cb0&#45;fb89&#45;4337&#45;98d9&#45;c500d35ad9b6</title>
<polygon fill="white" stroke="black" points="2754.5,-36 2166.5,-36 2166.5,0 2754.5,0 2754.5,-36"/>
<text text-anchor="middle" x="2460.5" y="-14.3" font-family="Helvetica,sans-Serif" font-size="14.00">▶ Run GitHub Actions for `src/openai/types/audio/transcription_create_params.py`</text>
</g>
<!-- 768e5dce&#45;2552&#45;414a&#45;874f&#45;420d0128e88a&#45;&gt;62c63cb0&#45;fb89&#45;4337&#45;98d9&#45;c500d35ad9b6 -->
<g id="edge9" class="edge">
<title>768e5dce&#45;2552&#45;414a&#45;874f&#45;420d0128e88a&#45;&gt;62c63cb0&#45;fb89&#45;4337&#45;98d9&#45;c500d35ad9b6</title>
<path fill="none" stroke="black" stroke-dasharray="5,2" d="M2460.5,-72.72C2460.5,-64.27 2460.5,-54.89 2460.5,-46.36"/>
<polygon fill="black" stroke="black" points="2464,-46.15 2460.5,-36.15 2457,-46.15 2464,-46.15"/>
</g>
<!-- 178e0824&#45;8bb9&#45;4b04&#45;8f2d&#45;f7b4dbbd163a&#45;&gt;end -->
<g id="edge13" class="edge">
<title>178e0824&#45;8bb9&#45;4b04&#45;8f2d&#45;f7b4dbbd163a&#45;&gt;end</title>
<path fill="none" stroke="black" d="M3198.58,-99.87C3218.61,-99.87 3235.31,-99.87 3245.54,-99.87"/>
<polygon fill="black" stroke="black" points="3245.87,-103.37 3255.87,-99.87 3245.87,-96.37 3245.87,-103.37"/>
<text text-anchor="middle" x="3227.22" y="-106.67" font-family="Helvetica,sans-Serif" font-size="14.00">Finish</text>
</g>
<!-- a4f0350a&#45;29fb&#45;480b&#45;9957&#45;044fa3bde51d -->
<g id="node14" class="node">
<title>a4f0350a&#45;29fb&#45;480b&#45;9957&#45;044fa3bde51d</title>
<polygon fill="white" stroke="black" points="3250.5,-36 2772.5,-36 2772.5,0 3250.5,0 3250.5,-36"/>
<text text-anchor="middle" x="3011.5" y="-14.3" font-family="Helvetica,sans-Serif" font-size="14.00">▶ Run GitHub Actions for `src/openai/types/file_create_params.py`</text>
</g>
<!-- 178e0824&#45;8bb9&#45;4b04&#45;8f2d&#45;f7b4dbbd163a&#45;&gt;a4f0350a&#45;29fb&#45;480b&#45;9957&#45;044fa3bde51d -->
<g id="edge11" class="edge">
<title>178e0824&#45;8bb9&#45;4b04&#45;8f2d&#45;f7b4dbbd163a&#45;&gt;a4f0350a&#45;29fb&#45;480b&#45;9957&#45;044fa3bde51d</title>
<path fill="none" stroke="black" stroke-dasharray="5,2" d="M3000.74,-72.72C3002.45,-64.18 3004.35,-54.68 3006.08,-46.08"/>
<polygon fill="black" stroke="black" points="3009.53,-46.64 3008.07,-36.15 3002.67,-45.26 3009.53,-46.64"/>
</g>
</g>
</svg>
