<?xml version="1.0" encoding="UTF-8" standalone="no"?>
<!DOCTYPE svg PUBLIC "-//W3C//DTD SVG 1.1//EN"
 "http://www.w3.org/Graphics/SVG/1.1/DTD/svg11.dtd">
<!-- Generated by graphviz version 2.43.0 (0)
 -->
<!-- Title: %3 Pages: 1 -->
<svg width="2263pt" height="238pt"
 viewBox="0.00 0.00 2263.00 237.74" xmlns="http://www.w3.org/2000/svg" xmlns:xlink="http://www.w3.org/1999/xlink">
<g id="graph0" class="graph" transform="scale(1 1) rotate(0) translate(36 201.74)">
<title>%3</title>
<polygon fill="dimgray" stroke="transparent" points="-36,36 -36,-201.74 2227,-201.74 2227,36 -36,36"/>
<text text-anchor="middle" x="1095.5" y="-150.54" font-family="Helvetica,sans-Serif" font-size="14.00">Sweep&#39;s Plan &amp; Progress</text>
<!-- start -->
<g id="node1" class="node">
<title>start</title>
</g>
<!-- e7c1be86&#45;d66f&#45;4f63&#45;a518&#45;42bd5bef2027 -->
<g id="node3" class="node">
<title>e7c1be86&#45;d66f&#45;4f63&#45;a518&#45;42bd5bef2027</title>
<ellipse fill="#0ee832" stroke="black" cx="217.5" cy="-99.87" rx="132.87" ry="26.74"/>
<text text-anchor="middle" x="217.5" y="-103.67" font-family="Helvetica,sans-Serif" font-size="14.00">✓ Create</text>
<text text-anchor="middle" x="217.5" y="-88.67" font-family="Helvetica,sans-Serif" font-size="14.00">src/openai/dashboard.py</text>
</g>
<!-- start&#45;&gt;e7c1be86&#45;d66f&#45;4f63&#45;a518&#45;42bd5bef2027 -->
<g id="edge8" class="edge">
<title>start&#45;&gt;e7c1be86&#45;d66f&#45;4f63&#45;a518&#45;42bd5bef2027</title>
<path fill="none" stroke="black" d="M33.03,-99.87C36.13,-99.87 52.53,-99.87 74.37,-99.87"/>
<polygon fill="black" stroke="black" points="74.4,-103.37 84.4,-99.87 74.4,-96.37 74.4,-103.37"/>
<text text-anchor="middle" x="58.78" y="-106.67" font-family="Helvetica,sans-Serif" font-size="14.00">Start</text>
</g>
<!-- end -->
<g id="node2" class="node">
<title>end</title>
</g>
<!-- 1bf50998&#45;9b3e&#45;42d4&#45;987e&#45;315e07cfe904 -->
<g id="node4" class="node">
<title>1bf50998&#45;9b3e&#45;42d4&#45;987e&#45;315e07cfe904</title>
<ellipse fill="white" stroke="black" cx="701.5" cy="-99.87" rx="289.83" ry="26.74"/>
<text text-anchor="middle" x="701.5" y="-103.67" font-family="Helvetica,sans-Serif" font-size="14.00">▶ Modify</text>
<text text-anchor="middle" x="701.5" y="-88.67" font-family="Helvetica,sans-Serif" font-size="14.00">src/openai/types/beta/thread_create_and_run_params.py</text>
</g>
<!-- e7c1be86&#45;d66f&#45;4f63&#45;a518&#45;42bd5bef2027&#45;&gt;1bf50998&#45;9b3e&#45;42d4&#45;987e&#45;315e07cfe904 -->
<g id="edge2" class="edge">
<title>e7c1be86&#45;d66f&#45;4f63&#45;a518&#45;42bd5bef2027&#45;&gt;1bf50998&#45;9b3e&#45;42d4&#45;987e&#45;315e07cfe904</title>
<path fill="none" stroke="black" d="M350.79,-99.87C367.52,-99.87 384.26,-99.87 400.99,-99.87"/>
<polygon fill="black" stroke="black" points="401.41,-103.37 411.41,-99.87 401.41,-96.37 401.41,-103.37"/>
</g>
<!-- 04df3c2c&#45;e951&#45;4d8b&#45;8855&#45;43bf413ffa0a -->
<g id="node7" class="node">
<title>04df3c2c&#45;e951&#45;4d8b&#45;8855&#45;43bf413ffa0a</title>
<polygon fill="yellow" stroke="black" points="383,-36 0,-36 0,0 383,0 383,-36"/>
<text text-anchor="middle" x="191.5" y="-14.3" font-family="Helvetica,sans-Serif" font-size="14.00">⋯ Run GitHub Actions for `src/openai/dashboard.py`</text>
</g>
<!-- e7c1be86&#45;d66f&#45;4f63&#45;a518&#45;42bd5bef2027&#45;&gt;04df3c2c&#45;e951&#45;4d8b&#45;8855&#45;43bf413ffa0a -->
<g id="edge1" class="edge">
<title>e7c1be86&#45;d66f&#45;4f63&#45;a518&#45;42bd5bef2027&#45;&gt;04df3c2c&#45;e951&#45;4d8b&#45;8855&#45;43bf413ffa0a</title>
<path fill="none" stroke="black" stroke-dasharray="5,2" d="M208.99,-72.72C206.18,-64.08 203.05,-54.47 200.22,-45.79"/>
<polygon fill="black" stroke="black" points="203.51,-44.57 197.08,-36.15 196.85,-46.74 203.51,-44.57"/>
</g>
<!-- 6b08da96&#45;7a2a&#45;48dc&#45;8c73&#45;b80734975350 -->
<g id="node5" class="node">
<title>6b08da96&#45;7a2a&#45;48dc&#45;8c73&#45;b80734975350</title>
<ellipse fill="white" stroke="black" cx="1280.5" cy="-99.87" rx="233.19" ry="26.74"/>
<text text-anchor="middle" x="1280.5" y="-103.67" font-family="Helvetica,sans-Serif" font-size="14.00">▶ Modify</text>
<text text-anchor="middle" x="1280.5" y="-88.67" font-family="Helvetica,sans-Serif" font-size="14.00">src/openai/resources/beta/threads/threads.py</text>
</g>
<!-- 1bf50998&#45;9b3e&#45;42d4&#45;987e&#45;315e07cfe904&#45;&gt;6b08da96&#45;7a2a&#45;48dc&#45;8c73&#45;b80734975350 -->
<g id="edge4" class="edge">
<title>1bf50998&#45;9b3e&#45;42d4&#45;987e&#45;315e07cfe904&#45;&gt;6b08da96&#45;7a2a&#45;48dc&#45;8c73&#45;b80734975350</title>
<path fill="none" stroke="black" d="M991.57,-99.87C1006.62,-99.87 1021.67,-99.87 1036.73,-99.87"/>
<polygon fill="black" stroke="black" points="1037.15,-103.37 1047.15,-99.87 1037.15,-96.37 1037.15,-103.37"/>
</g>
<!-- f6f760c8&#45;c375&#45;4f50&#45;80a2&#45;f3758d9b9ed1 -->
<g id="node8" class="node">
<title>f6f760c8&#45;c375&#45;4f50&#45;80a2&#45;f3758d9b9ed1</title>
<polygon fill="white" stroke="black" points="1002,-36 401,-36 401,0 1002,0 1002,-36"/>
<text text-anchor="middle" x="701.5" y="-14.3" font-family="Helvetica,sans-Serif" font-size="14.00">▶ Run GitHub Actions for `src/openai/types/beta/thread_create_and_run_params.py`</text>
</g>
<!-- 1bf50998&#45;9b3e&#45;42d4&#45;987e&#45;315e07cfe904&#45;&gt;f6f760c8&#45;c375&#45;4f50&#45;80a2&#45;f3758d9b9ed1 -->
<g id="edge3" class="edge">
<title>1bf50998&#45;9b3e&#45;42d4&#45;987e&#45;315e07cfe904&#45;&gt;f6f760c8&#45;c375&#45;4f50&#45;80a2&#45;f3758d9b9ed1</title>
<path fill="none" stroke="black" stroke-dasharray="5,2" d="M701.5,-72.72C701.5,-64.27 701.5,-54.89 701.5,-46.36"/>
<polygon fill="black" stroke="black" points="705,-46.15 701.5,-36.15 698,-46.15 705,-46.15"/>
</g>
<!-- 8a4e51e3&#45;4984&#45;45ab&#45;9c8d&#45;d8c620424b42 -->
<g id="node6" class="node">
<title>8a4e51e3&#45;4984&#45;45ab&#45;9c8d&#45;d8c620424b42</title>
<ellipse fill="white" stroke="black" cx="1846.5" cy="-99.87" rx="285.84" ry="26.74"/>
<text text-anchor="middle" x="1846.5" y="-103.67" font-family="Helvetica,sans-Serif" font-size="14.00">▶ Modify</text>
<text text-anchor="middle" x="1846.5" y="-88.67" font-family="Helvetica,sans-Serif" font-size="14.00">src/openai/types/beta/threads/runs/function_tool_call.py</text>
</g>
<!-- 6b08da96&#45;7a2a&#45;48dc&#45;8c73&#45;b80734975350&#45;&gt;8a4e51e3&#45;4984&#45;45ab&#45;9c8d&#45;d8c620424b42 -->
<g id="edge6" class="edge">
<title>6b08da96&#45;7a2a&#45;48dc&#45;8c73&#45;b80734975350&#45;&gt;8a4e51e3&#45;4984&#45;45ab&#45;9c8d&#45;d8c620424b42</title>
<path fill="none" stroke="black" d="M1514.03,-99.87C1526.21,-99.87 1538.38,-99.87 1550.56,-99.87"/>
<polygon fill="black" stroke="black" points="1550.78,-103.37 1560.78,-99.87 1550.78,-96.37 1550.78,-103.37"/>
</g>
<!-- 9e7e434d&#45;91a2&#45;4164&#45;a5aa&#45;3ea330941160 -->
<g id="node9" class="node">
<title>9e7e434d&#45;91a2&#45;4164&#45;a5aa&#45;3ea330941160</title>
<polygon fill="white" stroke="black" points="1541,-36 1020,-36 1020,0 1541,0 1541,-36"/>
<text text-anchor="middle" x="1280.5" y="-14.3" font-family="Helvetica,sans-Serif" font-size="14.00">▶ Run GitHub Actions for `src/openai/resources/beta/threads/threads.py`</text>
</g>
<!-- 6b08da96&#45;7a2a&#45;48dc&#45;8c73&#45;b80734975350&#45;&gt;9e7e434d&#45;91a2&#45;4164&#45;a5aa&#45;3ea330941160 -->
<g id="edge5" class="edge">
<title>6b08da96&#45;7a2a&#45;48dc&#45;8c73&#45;b80734975350&#45;&gt;9e7e434d&#45;91a2&#45;4164&#45;a5aa&#45;3ea330941160</title>
<path fill="none" stroke="black" stroke-dasharray="5,2" d="M1280.5,-72.72C1280.5,-64.27 1280.5,-54.89 1280.5,-46.36"/>
<polygon fill="black" stroke="black" points="1284,-46.15 1280.5,-36.15 1277,-46.15 1284,-46.15"/>
</g>
<!-- 8a4e51e3&#45;4984&#45;45ab&#45;9c8d&#45;d8c620424b42&#45;&gt;end -->
<g id="edge9" class="edge">
<title>8a4e51e3&#45;4984&#45;45ab&#45;9c8d&#45;d8c620424b42&#45;&gt;end</title>
<path fill="none" stroke="black" d="M2132.53,-99.87C2153.1,-99.87 2169.71,-99.87 2179.79,-99.87"/>
<polygon fill="black" stroke="black" points="2179.89,-103.37 2189.89,-99.87 2179.89,-96.37 2179.89,-103.37"/>
<text text-anchor="middle" x="2161.09" y="-106.67" font-family="Helvetica,sans-Serif" font-size="14.00">Finish</text>
</g>
<!-- 50454881&#45;283a&#45;4c25&#45;94e3&#45;cd72b857a52d -->
<g id="node10" class="node">
<title>50454881&#45;283a&#45;4c25&#45;94e3&#45;cd72b857a52d</title>
<polygon fill="white" stroke="black" points="2155.5,-36 1559.5,-36 1559.5,0 2155.5,0 2155.5,-36"/>
<text text-anchor="middle" x="1857.5" y="-14.3" font-family="Helvetica,sans-Serif" font-size="14.00">▶ Run GitHub Actions for `src/openai/types/beta/threads/runs/function_tool_call.py`</text>
</g>
<!-- 8a4e51e3&#45;4984&#45;45ab&#45;9c8d&#45;d8c620424b42&#45;&gt;50454881&#45;283a&#45;4c25&#45;94e3&#45;cd72b857a52d -->
<g id="edge7" class="edge">
<title>8a4e51e3&#45;4984&#45;45ab&#45;9c8d&#45;d8c620424b42&#45;&gt;50454881&#45;283a&#45;4c25&#45;94e3&#45;cd72b857a52d</title>
<path fill="none" stroke="black" stroke-dasharray="5,2" d="M1850.1,-72.72C1851.28,-64.18 1852.59,-54.68 1853.77,-46.08"/>
<polygon fill="black" stroke="black" points="1857.24,-46.53 1855.14,-36.15 1850.31,-45.58 1857.24,-46.53"/>
</g>
</g>
</svg>
