<?xml version="1.0" encoding="UTF-8" standalone="no"?>
<!DOCTYPE svg PUBLIC "-//W3C//DTD SVG 1.1//EN"
 "http://www.w3.org/Graphics/SVG/1.1/DTD/svg11.dtd">
<!-- Generated by graphviz version 2.43.0 (0)
 -->
<!-- Title: %3 Pages: 1 -->
<svg width="2142pt" height="238pt"
 viewBox="0.00 0.00 2141.50 237.74" xmlns="http://www.w3.org/2000/svg" xmlns:xlink="http://www.w3.org/1999/xlink">
<g id="graph0" class="graph" transform="scale(1 1) rotate(0) translate(36 201.74)">
<title>%3</title>
<polygon fill="dimgray" stroke="transparent" points="-36,36 -36,-201.74 2105.5,-201.74 2105.5,36 -36,36"/>
<text text-anchor="middle" x="1034.75" y="-150.54" font-family="Helvetica,sans-Serif" font-size="14.00">Sweep&#39;s Plan &amp; Progress</text>
<!-- start -->
<g id="node1" class="node">
<title>start</title>
</g>
<!-- daa8eef0&#45;cfb4&#45;4f1d&#45;9e11&#45;317d3e4fef39 -->
<g id="node3" class="node">
<title>daa8eef0&#45;cfb4&#45;4f1d&#45;9e11&#45;317d3e4fef39</title>
<ellipse fill="#0ee832" stroke="black" cx="336.5" cy="-99.87" rx="283.6" ry="26.74"/>
<text text-anchor="middle" x="336.5" y="-103.67" font-family="Helvetica,sans-Serif" font-size="14.00">✓ Create</text>
<text text-anchor="middle" x="336.5" y="-88.67" font-family="Helvetica,sans-Serif" font-size="14.00">src/openai/resources/beta/assistants/party_assistant.py</text>
</g>
<!-- start&#45;&gt;daa8eef0&#45;cfb4&#45;4f1d&#45;9e11&#45;317d3e4fef39 -->
<g id="edge8" class="edge">
<title>start&#45;&gt;daa8eef0&#45;cfb4&#45;4f1d&#45;9e11&#45;317d3e4fef39</title>
<path fill="none" stroke="black" d="M1.05,-99.87C4.09,-99.87 19.65,-99.87 42.55,-99.87"/>
<polygon fill="black" stroke="black" points="42.8,-103.37 52.8,-99.87 42.8,-96.37 42.8,-103.37"/>
<text text-anchor="middle" x="26.98" y="-106.67" font-family="Helvetica,sans-Serif" font-size="14.00">Start</text>
</g>
<!-- end -->
<g id="node2" class="node">
<title>end</title>
</g>
<!-- e9079dde&#45;5503&#45;439a&#45;8089&#45;c6f0b1a52c93 -->
<g id="node4" class="node">
<title>e9079dde&#45;5503&#45;439a&#45;8089&#45;c6f0b1a52c93</title>
<ellipse fill="white" stroke="black" cx="921.5" cy="-99.87" rx="258.19" ry="26.74"/>
<text text-anchor="middle" x="921.5" y="-103.67" font-family="Helvetica,sans-Serif" font-size="14.00">▶ Modify</text>
<text text-anchor="middle" x="921.5" y="-88.67" font-family="Helvetica,sans-Serif" font-size="14.00">src/openai/resources/beta/assistants/assistants.py</text>
</g>
<!-- daa8eef0&#45;cfb4&#45;4f1d&#45;9e11&#45;317d3e4fef39&#45;&gt;e9079dde&#45;5503&#45;439a&#45;8089&#45;c6f0b1a52c93 -->
<g id="edge2" class="edge">
<title>daa8eef0&#45;cfb4&#45;4f1d&#45;9e11&#45;317d3e4fef39&#45;&gt;e9079dde&#45;5503&#45;439a&#45;8089&#45;c6f0b1a52c93</title>
<path fill="none" stroke="black" d="M620.15,-99.87C631.19,-99.87 642.23,-99.87 653.27,-99.87"/>
<polygon fill="black" stroke="black" points="653.41,-103.37 663.41,-99.87 653.41,-96.37 653.41,-103.37"/>
</g>
<!-- b946c03c&#45;4daa&#45;4bd4&#45;be0d&#45;dae9b4f7666c -->
<g id="node7" class="node">
<title>b946c03c&#45;4daa&#45;4bd4&#45;be0d&#45;dae9b4f7666c</title>
<polygon fill="#0ee832" stroke="black" points="625,-36 32,-36 32,0 625,0 625,-36"/>
<text text-anchor="middle" x="328.5" y="-14.3" font-family="Helvetica,sans-Serif" font-size="14.00">✓ Run GitHub Actions for `src/openai/resources/beta/assistants/party_assistant.py`</text>
</g>
<!-- daa8eef0&#45;cfb4&#45;4f1d&#45;9e11&#45;317d3e4fef39&#45;&gt;b946c03c&#45;4daa&#45;4bd4&#45;be0d&#45;dae9b4f7666c -->
<g id="edge1" class="edge">
<title>daa8eef0&#45;cfb4&#45;4f1d&#45;9e11&#45;317d3e4fef39&#45;&gt;b946c03c&#45;4daa&#45;4bd4&#45;be0d&#45;dae9b4f7666c</title>
<path fill="none" stroke="black" stroke-dasharray="5,2" d="M333.88,-72.72C333.03,-64.27 332.09,-54.89 331.24,-46.36"/>
<polygon fill="black" stroke="black" points="334.7,-45.75 330.22,-36.15 327.73,-46.45 334.7,-45.75"/>
</g>
<!-- 2237f55f&#45;5832&#45;4a8b&#45;9909&#45;1e9442b07f36 -->
<g id="node5" class="node">
<title>2237f55f&#45;5832&#45;4a8b&#45;9909&#45;1e9442b07f36</title>
<ellipse fill="white" stroke="black" cx="1475.5" cy="-99.87" rx="228.29" ry="26.74"/>
<text text-anchor="middle" x="1475.5" y="-103.67" font-family="Helvetica,sans-Serif" font-size="14.00">▶ Modify</text>
<text text-anchor="middle" x="1475.5" y="-88.67" font-family="Helvetica,sans-Serif" font-size="14.00">src/openai/resources/beta/assistants/files.py</text>
</g>
<!-- e9079dde&#45;5503&#45;439a&#45;8089&#45;c6f0b1a52c93&#45;&gt;2237f55f&#45;5832&#45;4a8b&#45;9909&#45;1e9442b07f36 -->
<g id="edge4" class="edge">
<title>e9079dde&#45;5503&#45;439a&#45;8089&#45;c6f0b1a52c93&#45;&gt;2237f55f&#45;5832&#45;4a8b&#45;9909&#45;1e9442b07f36</title>
<path fill="none" stroke="black" d="M1179.83,-99.87C1198.76,-99.87 1217.69,-99.87 1236.62,-99.87"/>
<polygon fill="black" stroke="black" points="1236.82,-103.37 1246.82,-99.87 1236.82,-96.37 1236.82,-103.37"/>
</g>
<!-- 58d2dd29&#45;e57f&#45;4e8b&#45;9b12&#45;32f3b042c066 -->
<g id="node8" class="node">
<title>58d2dd29&#45;e57f&#45;4e8b&#45;9b12&#45;32f3b042c066</title>
<polygon fill="white" stroke="black" points="1199.5,-36 643.5,-36 643.5,0 1199.5,0 1199.5,-36"/>
<text text-anchor="middle" x="921.5" y="-14.3" font-family="Helvetica,sans-Serif" font-size="14.00">▶ Run GitHub Actions for `src/openai/resources/beta/assistants/assistants.py`</text>
</g>
<!-- e9079dde&#45;5503&#45;439a&#45;8089&#45;c6f0b1a52c93&#45;&gt;58d2dd29&#45;e57f&#45;4e8b&#45;9b12&#45;32f3b042c066 -->
<g id="edge3" class="edge">
<title>e9079dde&#45;5503&#45;439a&#45;8089&#45;c6f0b1a52c93&#45;&gt;58d2dd29&#45;e57f&#45;4e8b&#45;9b12&#45;32f3b042c066</title>
<path fill="none" stroke="black" stroke-dasharray="5,2" d="M921.5,-72.72C921.5,-64.27 921.5,-54.89 921.5,-46.36"/>
<polygon fill="black" stroke="black" points="925,-46.15 921.5,-36.15 918,-46.15 925,-46.15"/>
</g>
<!-- e6543b3c&#45;684b&#45;4e5f&#45;b27f&#45;58d522a89ffd -->
<g id="node6" class="node">
<title>e6543b3c&#45;684b&#45;4e5f&#45;b27f&#45;58d522a89ffd</title>
<ellipse fill="white" stroke="black" cx="1870.5" cy="-99.87" rx="89.61" ry="26.74"/>
<text text-anchor="middle" x="1870.5" y="-103.67" font-family="Helvetica,sans-Serif" font-size="14.00">▶ Modify</text>
<text text-anchor="middle" x="1870.5" y="-88.67" font-family="Helvetica,sans-Serif" font-size="14.00">cheat_sheet.md</text>
</g>
<!-- 2237f55f&#45;5832&#45;4a8b&#45;9909&#45;1e9442b07f36&#45;&gt;e6543b3c&#45;684b&#45;4e5f&#45;b27f&#45;58d522a89ffd -->
<g id="edge6" class="edge">
<title>2237f55f&#45;5832&#45;4a8b&#45;9909&#45;1e9442b07f36&#45;&gt;e6543b3c&#45;684b&#45;4e5f&#45;b27f&#45;58d522a89ffd</title>
<path fill="none" stroke="black" d="M1704.25,-99.87C1726.3,-99.87 1748.36,-99.87 1770.42,-99.87"/>
<polygon fill="black" stroke="black" points="1770.55,-103.37 1780.55,-99.87 1770.55,-96.37 1770.55,-103.37"/>
</g>
<!-- ece65cda&#45;1d97&#45;48b4&#45;8c50&#45;20d39213328c -->
<g id="node9" class="node">
<title>ece65cda&#45;1d97&#45;48b4&#45;8c50&#45;20d39213328c</title>
<polygon fill="white" stroke="black" points="1733,-36 1218,-36 1218,0 1733,0 1733,-36"/>
<text text-anchor="middle" x="1475.5" y="-14.3" font-family="Helvetica,sans-Serif" font-size="14.00">▶ Run GitHub Actions for `src/openai/resources/beta/assistants/files.py`</text>
</g>
<!-- 2237f55f&#45;5832&#45;4a8b&#45;9909&#45;1e9442b07f36&#45;&gt;ece65cda&#45;1d97&#45;48b4&#45;8c50&#45;20d39213328c -->
<g id="edge5" class="edge">
<title>2237f55f&#45;5832&#45;4a8b&#45;9909&#45;1e9442b07f36&#45;&gt;ece65cda&#45;1d97&#45;48b4&#45;8c50&#45;20d39213328c</title>
<path fill="none" stroke="black" stroke-dasharray="5,2" d="M1475.5,-72.72C1475.5,-64.27 1475.5,-54.89 1475.5,-46.36"/>
<polygon fill="black" stroke="black" points="1479,-46.15 1475.5,-36.15 1472,-46.15 1479,-46.15"/>
</g>
<!-- e6543b3c&#45;684b&#45;4e5f&#45;b27f&#45;58d522a89ffd&#45;&gt;end -->
<g id="edge9" class="edge">
<title>e6543b3c&#45;684b&#45;4e5f&#45;b27f&#45;58d522a89ffd&#45;&gt;end</title>
<path fill="none" stroke="black" d="M1960.43,-99.87C1979.3,-99.87 1996.72,-99.87 2007.46,-99.87"/>
<polygon fill="black" stroke="black" points="2007.81,-103.37 2017.81,-99.87 2007.81,-96.37 2007.81,-103.37"/>
<text text-anchor="middle" x="1989.15" y="-106.67" font-family="Helvetica,sans-Serif" font-size="14.00">Finish</text>
</g>
<!-- 792a1261&#45;1e2a&#45;4f31&#45;8b44&#45;4008dbd62d71 -->
<g id="node10" class="node">
<title>792a1261&#45;1e2a&#45;4f31&#45;8b44&#45;4008dbd62d71</title>
<polygon fill="white" stroke="black" points="2069.5,-36 1751.5,-36 1751.5,0 2069.5,0 2069.5,-36"/>
<text text-anchor="middle" x="1910.5" y="-14.3" font-family="Helvetica,sans-Serif" font-size="14.00">▶ Run GitHub Actions for `cheat_sheet.md`</text>
</g>
<!-- e6543b3c&#45;684b&#45;4e5f&#45;b27f&#45;58d522a89ffd&#45;&gt;792a1261&#45;1e2a&#45;4f31&#45;8b44&#45;4008dbd62d71 -->
<g id="edge7" class="edge">
<title>e6543b3c&#45;684b&#45;4e5f&#45;b27f&#45;58d522a89ffd&#45;&gt;792a1261&#45;1e2a&#45;4f31&#45;8b44&#45;4008dbd62d71</title>
<path fill="none" stroke="black" stroke-dasharray="5,2" d="M1883.38,-73.16C1887.8,-64.32 1892.77,-54.41 1897.23,-45.5"/>
<polygon fill="black" stroke="black" points="1900.47,-46.85 1901.82,-36.34 1894.21,-43.71 1900.47,-46.85"/>
</g>
</g>
</svg>
