<?xml version="1.0" encoding="UTF-8" standalone="no"?>
<!DOCTYPE svg PUBLIC "-//W3C//DTD SVG 1.1//EN"
 "http://www.w3.org/Graphics/SVG/1.1/DTD/svg11.dtd">
<!-- Generated by graphviz version 2.43.0 (0)
 -->
<!-- Title: %3 Pages: 1 -->
<svg width="2372pt" height="238pt"
 viewBox="0.00 0.00 2372.00 237.74" xmlns="http://www.w3.org/2000/svg" xmlns:xlink="http://www.w3.org/1999/xlink">
<g id="graph0" class="graph" transform="scale(1 1) rotate(0) translate(36 201.74)">
<title>%3</title>
<polygon fill="dimgray" stroke="transparent" points="-36,36 -36,-201.74 2336,-201.74 2336,36 -36,36"/>
<text text-anchor="middle" x="1150" y="-150.54" font-family="Helvetica,sans-Serif" font-size="14.00">Sweep&#39;s Plan &amp; Progress</text>
<!-- start -->
<g id="node1" class="node">
<title>start</title>
</g>
<!-- 5c9affa4&#45;1f91&#45;4838&#45;ac95&#45;8987f418d33a -->
<g id="node3" class="node">
<title>5c9affa4&#45;1f91&#45;4838&#45;ac95&#45;8987f418d33a</title>
<ellipse fill="#0ee832" stroke="black" cx="336.5" cy="-99.87" rx="283.6" ry="26.74"/>
<text text-anchor="middle" x="336.5" y="-103.67" font-family="Helvetica,sans-Serif" font-size="14.00">✓ Create</text>
<text text-anchor="middle" x="336.5" y="-88.67" font-family="Helvetica,sans-Serif" font-size="14.00">src/openai/resources/beta/assistants/party_assistant.py</text>
</g>
<!-- start&#45;&gt;5c9affa4&#45;1f91&#45;4838&#45;ac95&#45;8987f418d33a -->
<g id="edge8" class="edge">
<title>start&#45;&gt;5c9affa4&#45;1f91&#45;4838&#45;ac95&#45;8987f418d33a</title>
<path fill="none" stroke="black" d="M1.05,-99.87C4.09,-99.87 19.65,-99.87 42.55,-99.87"/>
<polygon fill="black" stroke="black" points="42.8,-103.37 52.8,-99.87 42.8,-96.37 42.8,-103.37"/>
<text text-anchor="middle" x="26.98" y="-106.67" font-family="Helvetica,sans-Serif" font-size="14.00">Start</text>
</g>
<!-- end -->
<g id="node2" class="node">
<title>end</title>
</g>
<!-- 25bf6307&#45;fd2b&#45;4ae4&#45;8bcf&#45;6514abc886f1 -->
<g id="node4" class="node">
<title>25bf6307&#45;fd2b&#45;4ae4&#45;8bcf&#45;6514abc886f1</title>
<ellipse fill="white" stroke="black" cx="922.5" cy="-99.87" rx="258.19" ry="26.74"/>
<text text-anchor="middle" x="922.5" y="-103.67" font-family="Helvetica,sans-Serif" font-size="14.00">▶ Modify</text>
<text text-anchor="middle" x="922.5" y="-88.67" font-family="Helvetica,sans-Serif" font-size="14.00">src/openai/resources/beta/assistants/assistants.py</text>
</g>
<!-- 5c9affa4&#45;1f91&#45;4838&#45;ac95&#45;8987f418d33a&#45;&gt;25bf6307&#45;fd2b&#45;4ae4&#45;8bcf&#45;6514abc886f1 -->
<g id="edge2" class="edge">
<title>5c9affa4&#45;1f91&#45;4838&#45;ac95&#45;8987f418d33a&#45;&gt;25bf6307&#45;fd2b&#45;4ae4&#45;8bcf&#45;6514abc886f1</title>
<path fill="none" stroke="black" d="M620.06,-99.87C631.48,-99.87 642.9,-99.87 654.32,-99.87"/>
<polygon fill="black" stroke="black" points="654.36,-103.37 664.36,-99.87 654.36,-96.37 654.36,-103.37"/>
</g>
<!-- 2873fd31&#45;5e46&#45;422d&#45;84e0&#45;eb9cd61aa0b4 -->
<g id="node7" class="node">
<title>2873fd31&#45;5e46&#45;422d&#45;84e0&#45;eb9cd61aa0b4</title>
<polygon fill="yellow" stroke="black" points="626.5,-36 30.5,-36 30.5,0 626.5,0 626.5,-36"/>
<text text-anchor="middle" x="328.5" y="-14.3" font-family="Helvetica,sans-Serif" font-size="14.00">⋯ Run GitHub Actions for `src/openai/resources/beta/assistants/party_assistant.py`</text>
</g>
<!-- 5c9affa4&#45;1f91&#45;4838&#45;ac95&#45;8987f418d33a&#45;&gt;2873fd31&#45;5e46&#45;422d&#45;84e0&#45;eb9cd61aa0b4 -->
<g id="edge1" class="edge">
<title>5c9affa4&#45;1f91&#45;4838&#45;ac95&#45;8987f418d33a&#45;&gt;2873fd31&#45;5e46&#45;422d&#45;84e0&#45;eb9cd61aa0b4</title>
<path fill="none" stroke="black" stroke-dasharray="5,2" d="M333.88,-72.72C333.03,-64.27 332.09,-54.89 331.24,-46.36"/>
<polygon fill="black" stroke="black" points="334.7,-45.75 330.22,-36.15 327.73,-46.45 334.7,-45.75"/>
</g>
<!-- bd867616&#45;8801&#45;4989&#45;88da&#45;5c2baca5a972 -->
<g id="node5" class="node">
<title>bd867616&#45;8801&#45;4989&#45;88da&#45;5c2baca5a972</title>
<ellipse fill="white" stroke="black" cx="1476.5" cy="-99.87" rx="228.29" ry="26.74"/>
<text text-anchor="middle" x="1476.5" y="-103.67" font-family="Helvetica,sans-Serif" font-size="14.00">▶ Modify</text>
<text text-anchor="middle" x="1476.5" y="-88.67" font-family="Helvetica,sans-Serif" font-size="14.00">src/openai/resources/beta/assistants/files.py</text>
</g>
<!-- 25bf6307&#45;fd2b&#45;4ae4&#45;8bcf&#45;6514abc886f1&#45;&gt;bd867616&#45;8801&#45;4989&#45;88da&#45;5c2baca5a972 -->
<g id="edge4" class="edge">
<title>25bf6307&#45;fd2b&#45;4ae4&#45;8bcf&#45;6514abc886f1&#45;&gt;bd867616&#45;8801&#45;4989&#45;88da&#45;5c2baca5a972</title>
<path fill="none" stroke="black" d="M1180.83,-99.87C1199.76,-99.87 1218.69,-99.87 1237.62,-99.87"/>
<polygon fill="black" stroke="black" points="1237.82,-103.37 1247.82,-99.87 1237.82,-96.37 1237.82,-103.37"/>
</g>
<!-- 56508cef&#45;60a9&#45;4722&#45;b387&#45;f0c0aef78dc1 -->
<g id="node8" class="node">
<title>56508cef&#45;60a9&#45;4722&#45;b387&#45;f0c0aef78dc1</title>
<polygon fill="white" stroke="black" points="1200.5,-36 644.5,-36 644.5,0 1200.5,0 1200.5,-36"/>
<text text-anchor="middle" x="922.5" y="-14.3" font-family="Helvetica,sans-Serif" font-size="14.00">▶ Run GitHub Actions for `src/openai/resources/beta/assistants/assistants.py`</text>
</g>
<!-- 25bf6307&#45;fd2b&#45;4ae4&#45;8bcf&#45;6514abc886f1&#45;&gt;56508cef&#45;60a9&#45;4722&#45;b387&#45;f0c0aef78dc1 -->
<g id="edge3" class="edge">
<title>25bf6307&#45;fd2b&#45;4ae4&#45;8bcf&#45;6514abc886f1&#45;&gt;56508cef&#45;60a9&#45;4722&#45;b387&#45;f0c0aef78dc1</title>
<path fill="none" stroke="black" stroke-dasharray="5,2" d="M922.5,-72.72C922.5,-64.27 922.5,-54.89 922.5,-46.36"/>
<polygon fill="black" stroke="black" points="926,-46.15 922.5,-36.15 919,-46.15 926,-46.15"/>
</g>
<!-- c6222544&#45;c226&#45;4d67&#45;a697&#45;4f13e0a87582 -->
<g id="node6" class="node">
<title>c6222544&#45;c226&#45;4d67&#45;a697&#45;4f13e0a87582</title>
<ellipse fill="white" stroke="black" cx="2000.5" cy="-99.87" rx="241.25" ry="26.74"/>
<text text-anchor="middle" x="2000.5" y="-103.67" font-family="Helvetica,sans-Serif" font-size="14.00">▶ Modify</text>
<text text-anchor="middle" x="2000.5" y="-88.67" font-family="Helvetica,sans-Serif" font-size="14.00">src/openai/types/beta/assistant_list_params.py</text>
</g>
<!-- bd867616&#45;8801&#45;4989&#45;88da&#45;5c2baca5a972&#45;&gt;c6222544&#45;c226&#45;4d67&#45;a697&#45;4f13e0a87582 -->
<g id="edge6" class="edge">
<title>bd867616&#45;8801&#45;4989&#45;88da&#45;5c2baca5a972&#45;&gt;c6222544&#45;c226&#45;4d67&#45;a697&#45;4f13e0a87582</title>
<path fill="none" stroke="black" d="M1704.98,-99.87C1719.68,-99.87 1734.37,-99.87 1749.06,-99.87"/>
<polygon fill="black" stroke="black" points="1749.24,-103.37 1759.24,-99.87 1749.24,-96.37 1749.24,-103.37"/>
</g>
<!-- 7c5dd306&#45;0847&#45;4e96&#45;9059&#45;a632d3f2fef5 -->
<g id="node9" class="node">
<title>7c5dd306&#45;0847&#45;4e96&#45;9059&#45;a632d3f2fef5</title>
<polygon fill="white" stroke="black" points="1734,-36 1219,-36 1219,0 1734,0 1734,-36"/>
<text text-anchor="middle" x="1476.5" y="-14.3" font-family="Helvetica,sans-Serif" font-size="14.00">▶ Run GitHub Actions for `src/openai/resources/beta/assistants/files.py`</text>
</g>
<!-- bd867616&#45;8801&#45;4989&#45;88da&#45;5c2baca5a972&#45;&gt;7c5dd306&#45;0847&#45;4e96&#45;9059&#45;a632d3f2fef5 -->
<g id="edge5" class="edge">
<title>bd867616&#45;8801&#45;4989&#45;88da&#45;5c2baca5a972&#45;&gt;7c5dd306&#45;0847&#45;4e96&#45;9059&#45;a632d3f2fef5</title>
<path fill="none" stroke="black" stroke-dasharray="5,2" d="M1476.5,-72.72C1476.5,-64.27 1476.5,-54.89 1476.5,-46.36"/>
<polygon fill="black" stroke="black" points="1480,-46.15 1476.5,-36.15 1473,-46.15 1480,-46.15"/>
</g>
<!-- c6222544&#45;c226&#45;4d67&#45;a697&#45;4f13e0a87582&#45;&gt;end -->
<g id="edge9" class="edge">
<title>c6222544&#45;c226&#45;4d67&#45;a697&#45;4f13e0a87582&#45;&gt;end</title>
<path fill="none" stroke="black" d="M2241.85,-99.87C2262.07,-99.87 2278.63,-99.87 2288.73,-99.87"/>
<polygon fill="black" stroke="black" points="2288.89,-103.37 2298.89,-99.87 2288.89,-96.37 2288.89,-103.37"/>
<text text-anchor="middle" x="2270.31" y="-106.67" font-family="Helvetica,sans-Serif" font-size="14.00">Finish</text>
</g>
<!-- 795f7851&#45;8381&#45;4616&#45;a999&#45;124e60f97c6b -->
<g id="node10" class="node">
<title>795f7851&#45;8381&#45;4616&#45;a999&#45;124e60f97c6b</title>
<polygon fill="white" stroke="black" points="2284.5,-36 1752.5,-36 1752.5,0 2284.5,0 2284.5,-36"/>
<text text-anchor="middle" x="2018.5" y="-14.3" font-family="Helvetica,sans-Serif" font-size="14.00">▶ Run GitHub Actions for `src/openai/types/beta/assistant_list_params.py`</text>
</g>
<!-- c6222544&#45;c226&#45;4d67&#45;a697&#45;4f13e0a87582&#45;&gt;795f7851&#45;8381&#45;4616&#45;a999&#45;124e60f97c6b -->
<g id="edge7" class="edge">
<title>c6222544&#45;c226&#45;4d67&#45;a697&#45;4f13e0a87582&#45;&gt;795f7851&#45;8381&#45;4616&#45;a999&#45;124e60f97c6b</title>
<path fill="none" stroke="black" stroke-dasharray="5,2" d="M2006.39,-72.72C2008.32,-64.18 2010.46,-54.68 2012.4,-46.08"/>
<polygon fill="black" stroke="black" points="2015.85,-46.67 2014.64,-36.15 2009.02,-45.13 2015.85,-46.67"/>
</g>
</g>
</svg>
