<?xml version="1.0" encoding="UTF-8" standalone="no"?>
<!DOCTYPE svg PUBLIC "-//W3C//DTD SVG 1.1//EN"
 "http://www.w3.org/Graphics/SVG/1.1/DTD/svg11.dtd">
<!-- Generated by graphviz version 2.43.0 (0)
 -->
<!-- Title: %3 Pages: 1 -->
<svg width="878pt" height="238pt"
 viewBox="0.00 0.00 877.50 237.74" xmlns="http://www.w3.org/2000/svg" xmlns:xlink="http://www.w3.org/1999/xlink">
<g id="graph0" class="graph" transform="scale(1 1) rotate(0) translate(36 201.74)">
<title>%3</title>
<polygon fill="dimgray" stroke="transparent" points="-36,36 -36,-201.74 841.5,-201.74 841.5,36 -36,36"/>
<text text-anchor="middle" x="402.75" y="-150.54" font-family="Helvetica,sans-Serif" font-size="14.00">Sweep&#39;s Plan &amp; Progress</text>
<!-- start -->
<g id="node1" class="node">
<title>start</title>
</g>
<!-- c93c9d5f&#45;22a5&#45;4053&#45;b18e&#45;be4a1bb38c91 -->
<g id="node3" class="node">
<title>c93c9d5f&#45;22a5&#45;4053&#45;b18e&#45;be4a1bb38c91</title>
<ellipse fill="#0ee832" stroke="black" cx="252" cy="-99.87" rx="153.38" ry="26.74"/>
<text text-anchor="middle" x="252" y="-103.67" font-family="Helvetica,sans-Serif" font-size="14.00">✓ Create</text>
<text text-anchor="middle" x="252" y="-88.67" font-family="Helvetica,sans-Serif" font-size="14.00">src/openai/cli/cheat_sheet.py</text>
</g>
<!-- start&#45;&gt;c93c9d5f&#45;22a5&#45;4053&#45;b18e&#45;be4a1bb38c91 -->
<g id="edge4" class="edge">
<title>start&#45;&gt;c93c9d5f&#45;22a5&#45;4053&#45;b18e&#45;be4a1bb38c91</title>
<path fill="none" stroke="black" d="M47.59,-99.87C50.79,-99.87 66.78,-99.87 88.52,-99.87"/>
<polygon fill="black" stroke="black" points="88.52,-103.37 98.52,-99.87 88.52,-96.37 88.52,-103.37"/>
<text text-anchor="middle" x="73.03" y="-106.67" font-family="Helvetica,sans-Serif" font-size="14.00">Start</text>
</g>
<!-- end -->
<g id="node2" class="node">
<title>end</title>
</g>
<!-- 2b10bc63&#45;a484&#45;43e2&#45;bb30&#45;ecd25b804d18 -->
<g id="node4" class="node">
<title>2b10bc63&#45;a484&#45;43e2&#45;bb30&#45;ecd25b804d18</title>
<ellipse fill="#0ee832" stroke="black" cx="594" cy="-99.87" rx="128.89" ry="26.74"/>
<text text-anchor="middle" x="594" y="-103.67" font-family="Helvetica,sans-Serif" font-size="14.00">✓ Modify</text>
<text text-anchor="middle" x="594" y="-88.67" font-family="Helvetica,sans-Serif" font-size="14.00">src/openai/cli/__init__.py</text>
</g>
<!-- c93c9d5f&#45;22a5&#45;4053&#45;b18e&#45;be4a1bb38c91&#45;&gt;2b10bc63&#45;a484&#45;43e2&#45;bb30&#45;ecd25b804d18 -->
<g id="edge2" class="edge">
<title>c93c9d5f&#45;22a5&#45;4053&#45;b18e&#45;be4a1bb38c91&#45;&gt;2b10bc63&#45;a484&#45;43e2&#45;bb30&#45;ecd25b804d18</title>
<path fill="none" stroke="black" d="M405.63,-99.87C422.09,-99.87 438.54,-99.87 454.99,-99.87"/>
<polygon fill="black" stroke="black" points="455.23,-103.37 465.23,-99.87 455.23,-96.37 455.23,-103.37"/>
</g>
<!-- 69c5eed3&#45;b75c&#45;43a8&#45;83e1&#45;288fe1d0ba2a -->
<g id="node5" class="node">
<title>69c5eed3&#45;b75c&#45;43a8&#45;83e1&#45;288fe1d0ba2a</title>
<polygon fill="#0ee832" stroke="black" points="410,-36 0,-36 0,0 410,0 410,-36"/>
<text text-anchor="middle" x="205" y="-14.3" font-family="Helvetica,sans-Serif" font-size="14.00">✓ Run GitHub Actions for `src/openai/cli/cheat_sheet.py`</text>
</g>
<!-- c93c9d5f&#45;22a5&#45;4053&#45;b18e&#45;be4a1bb38c91&#45;&gt;69c5eed3&#45;b75c&#45;43a8&#45;83e1&#45;288fe1d0ba2a -->
<g id="edge1" class="edge">
<title>c93c9d5f&#45;22a5&#45;4053&#45;b18e&#45;be4a1bb38c91&#45;&gt;69c5eed3&#45;b75c&#45;43a8&#45;83e1&#45;288fe1d0ba2a</title>
<path fill="none" stroke="black" stroke-dasharray="5,2" d="M236.61,-72.72C231.36,-63.8 225.5,-53.84 220.27,-44.95"/>
<polygon fill="black" stroke="black" points="223.18,-42.99 215.09,-36.15 217.15,-46.54 223.18,-42.99"/>
</g>
<!-- 2b10bc63&#45;a484&#45;43e2&#45;bb30&#45;ecd25b804d18&#45;&gt;end -->
<g id="edge5" class="edge">
<title>2b10bc63&#45;a484&#45;43e2&#45;bb30&#45;ecd25b804d18&#45;&gt;end</title>
<path fill="none" stroke="black" d="M722.86,-99.87C742.58,-99.87 759.84,-99.87 770.33,-99.87"/>
<polygon fill="black" stroke="black" points="770.34,-103.37 780.34,-99.87 770.34,-96.37 770.34,-103.37"/>
<text text-anchor="middle" x="751.6" y="-106.67" font-family="Helvetica,sans-Serif" font-size="14.00">Finish</text>
</g>
<!-- 1c9ca079&#45;6c54&#45;44fa&#45;b6c8&#45;af6941030a5b -->
<g id="node6" class="node">
<title>1c9ca079&#45;6c54&#45;44fa&#45;b6c8&#45;af6941030a5b</title>
<polygon fill="yellow" stroke="black" points="805.5,-36 428.5,-36 428.5,0 805.5,0 805.5,-36"/>
<text text-anchor="middle" x="617" y="-14.3" font-family="Helvetica,sans-Serif" font-size="14.00">⋯ Run GitHub Actions for `src/openai/cli/__init__.py`</text>
</g>
<!-- 2b10bc63&#45;a484&#45;43e2&#45;bb30&#45;ecd25b804d18&#45;&gt;1c9ca079&#45;6c54&#45;44fa&#45;b6c8&#45;af6941030a5b -->
<g id="edge3" class="edge">
<title>2b10bc63&#45;a484&#45;43e2&#45;bb30&#45;ecd25b804d18&#45;&gt;1c9ca079&#45;6c54&#45;44fa&#45;b6c8&#45;af6941030a5b</title>
<path fill="none" stroke="black" stroke-dasharray="5,2" d="M601.53,-72.72C604.02,-64.08 606.78,-54.47 609.28,-45.79"/>
<polygon fill="black" stroke="black" points="612.66,-46.72 612.06,-36.15 605.93,-44.79 612.66,-46.72"/>
</g>
</g>
</svg>
