<?xml version="1.0" encoding="UTF-8" standalone="no"?>
<!DOCTYPE svg PUBLIC "-//W3C//DTD SVG 1.1//EN"
 "http://www.w3.org/Graphics/SVG/1.1/DTD/svg11.dtd">
<!-- Generated by graphviz version 2.43.0 (0)
 -->
<!-- Title: %3 Pages: 1 -->
<svg width="2145pt" height="238pt"
 viewBox="0.00 0.00 2144.50 237.74" xmlns="http://www.w3.org/2000/svg" xmlns:xlink="http://www.w3.org/1999/xlink">
<g id="graph0" class="graph" transform="scale(1 1) rotate(0) translate(36 201.74)">
<title>%3</title>
<polygon fill="dimgray" stroke="transparent" points="-36,36 -36,-201.74 2108.5,-201.74 2108.5,36 -36,36"/>
<text text-anchor="middle" x="1036.25" y="-150.54" font-family="Helvetica,sans-Serif" font-size="14.00">Sweep&#39;s Plan &amp; Progress</text>
<!-- start -->
<g id="node1" class="node">
<title>start</title>
</g>
<!-- daa8eef0&#45;cfb4&#45;4f1d&#45;9e11&#45;317d3e4fef39 -->
<g id="node3" class="node">
<title>daa8eef0&#45;cfb4&#45;4f1d&#45;9e11&#45;317d3e4fef39</title>
<ellipse fill="#0ee832" stroke="black" cx="336.5" cy="-99.87" rx="283.6" ry="26.74"/>
<text text-anchor="middle" x="336.5" y="-103.67" font-family="Helvetica,sans-Serif" font-size="14.00">✓ Create</text>
<text text-anchor="middle" x="336.5" y="-88.67" font-family="Helvetica,sans-Serif" font-size="14.00">src/openai/resources/beta/assistants/party_assistant.py</text>
</g>
<!-- start&#45;&gt;daa8eef0&#45;cfb4&#45;4f1d&#45;9e11&#45;317d3e4fef39 -->
<g id="edge8" class="edge">
<title>start&#45;&gt;daa8eef0&#45;cfb4&#45;4f1d&#45;9e11&#45;317d3e4fef39</title>
<path fill="none" stroke="black" d="M1.05,-99.87C4.09,-99.87 19.65,-99.87 42.55,-99.87"/>
<polygon fill="black" stroke="black" points="42.8,-103.37 52.8,-99.87 42.8,-96.37 42.8,-103.37"/>
<text text-anchor="middle" x="26.98" y="-106.67" font-family="Helvetica,sans-Serif" font-size="14.00">Start</text>
</g>
<!-- end -->
<g id="node2" class="node">
<title>end</title>
</g>
<!-- e9079dde&#45;5503&#45;439a&#45;8089&#45;c6f0b1a52c93 -->
<g id="node4" class="node">
<title>e9079dde&#45;5503&#45;439a&#45;8089&#45;c6f0b1a52c93</title>
<ellipse fill="#0ee832" stroke="black" cx="922.5" cy="-99.87" rx="258.19" ry="26.74"/>
<text text-anchor="middle" x="922.5" y="-103.67" font-family="Helvetica,sans-Serif" font-size="14.00">✓ Modify</text>
<text text-anchor="middle" x="922.5" y="-88.67" font-family="Helvetica,sans-Serif" font-size="14.00">src/openai/resources/beta/assistants/assistants.py</text>
</g>
<!-- daa8eef0&#45;cfb4&#45;4f1d&#45;9e11&#45;317d3e4fef39&#45;&gt;e9079dde&#45;5503&#45;439a&#45;8089&#45;c6f0b1a52c93 -->
<g id="edge2" class="edge">
<title>daa8eef0&#45;cfb4&#45;4f1d&#45;9e11&#45;317d3e4fef39&#45;&gt;e9079dde&#45;5503&#45;439a&#45;8089&#45;c6f0b1a52c93</title>
<path fill="none" stroke="black" d="M620.06,-99.87C631.48,-99.87 642.9,-99.87 654.32,-99.87"/>
<polygon fill="black" stroke="black" points="654.36,-103.37 664.36,-99.87 654.36,-96.37 654.36,-103.37"/>
</g>
<!-- b946c03c&#45;4daa&#45;4bd4&#45;be0d&#45;dae9b4f7666c -->
<g id="node7" class="node">
<title>b946c03c&#45;4daa&#45;4bd4&#45;be0d&#45;dae9b4f7666c</title>
<polygon fill="#0ee832" stroke="black" points="624,-36 31,-36 31,0 624,0 624,-36"/>
<text text-anchor="middle" x="327.5" y="-14.3" font-family="Helvetica,sans-Serif" font-size="14.00">✓ Run GitHub Actions for `src/openai/resources/beta/assistants/party_assistant.py`</text>
</g>
<!-- daa8eef0&#45;cfb4&#45;4f1d&#45;9e11&#45;317d3e4fef39&#45;&gt;b946c03c&#45;4daa&#45;4bd4&#45;be0d&#45;dae9b4f7666c -->
<g id="edge1" class="edge">
<title>daa8eef0&#45;cfb4&#45;4f1d&#45;9e11&#45;317d3e4fef39&#45;&gt;b946c03c&#45;4daa&#45;4bd4&#45;be0d&#45;dae9b4f7666c</title>
<path fill="none" stroke="black" stroke-dasharray="5,2" d="M333.55,-72.72C332.6,-64.27 331.54,-54.89 330.58,-46.36"/>
<polygon fill="black" stroke="black" points="334.03,-45.69 329.43,-36.15 327.07,-46.48 334.03,-45.69"/>
</g>
<!-- 2237f55f&#45;5832&#45;4a8b&#45;9909&#45;1e9442b07f36 -->
<g id="node5" class="node">
<title>2237f55f&#45;5832&#45;4a8b&#45;9909&#45;1e9442b07f36</title>
<ellipse fill="white" stroke="black" cx="1478.5" cy="-99.87" rx="228.29" ry="26.74"/>
<text text-anchor="middle" x="1478.5" y="-103.67" font-family="Helvetica,sans-Serif" font-size="14.00">▶ Modify</text>
<text text-anchor="middle" x="1478.5" y="-88.67" font-family="Helvetica,sans-Serif" font-size="14.00">src/openai/resources/beta/assistants/files.py</text>
</g>
<!-- e9079dde&#45;5503&#45;439a&#45;8089&#45;c6f0b1a52c93&#45;&gt;2237f55f&#45;5832&#45;4a8b&#45;9909&#45;1e9442b07f36 -->
<g id="edge4" class="edge">
<title>e9079dde&#45;5503&#45;439a&#45;8089&#45;c6f0b1a52c93&#45;&gt;2237f55f&#45;5832&#45;4a8b&#45;9909&#45;1e9442b07f36</title>
<path fill="none" stroke="black" d="M1180.68,-99.87C1200.42,-99.87 1220.16,-99.87 1239.9,-99.87"/>
<polygon fill="black" stroke="black" points="1239.9,-103.37 1249.9,-99.87 1239.9,-96.37 1239.9,-103.37"/>
</g>
<!-- 58d2dd29&#45;e57f&#45;4e8b&#45;9b12&#45;32f3b042c066 -->
<g id="node8" class="node">
<title>58d2dd29&#45;e57f&#45;4e8b&#45;9b12&#45;32f3b042c066</title>
<polygon fill="yellow" stroke="black" points="1202.5,-36 642.5,-36 642.5,0 1202.5,0 1202.5,-36"/>
<text text-anchor="middle" x="922.5" y="-14.3" font-family="Helvetica,sans-Serif" font-size="14.00">⋯ Run GitHub Actions for `src/openai/resources/beta/assistants/assistants.py`</text>
</g>
<!-- e9079dde&#45;5503&#45;439a&#45;8089&#45;c6f0b1a52c93&#45;&gt;58d2dd29&#45;e57f&#45;4e8b&#45;9b12&#45;32f3b042c066 -->
<g id="edge3" class="edge">
<title>e9079dde&#45;5503&#45;439a&#45;8089&#45;c6f0b1a52c93&#45;&gt;58d2dd29&#45;e57f&#45;4e8b&#45;9b12&#45;32f3b042c066</title>
<path fill="none" stroke="black" stroke-dasharray="5,2" d="M922.5,-72.72C922.5,-64.27 922.5,-54.89 922.5,-46.36"/>
<polygon fill="black" stroke="black" points="926,-46.15 922.5,-36.15 919,-46.15 926,-46.15"/>
</g>
<!-- e6543b3c&#45;684b&#45;4e5f&#45;b27f&#45;58d522a89ffd -->
<g id="node6" class="node">
<title>e6543b3c&#45;684b&#45;4e5f&#45;b27f&#45;58d522a89ffd</title>
<ellipse fill="white" stroke="black" cx="1873.5" cy="-99.87" rx="89.61" ry="26.74"/>
<text text-anchor="middle" x="1873.5" y="-103.67" font-family="Helvetica,sans-Serif" font-size="14.00">▶ Modify</text>
<text text-anchor="middle" x="1873.5" y="-88.67" font-family="Helvetica,sans-Serif" font-size="14.00">cheat_sheet.md</text>
</g>
<!-- 2237f55f&#45;5832&#45;4a8b&#45;9909&#45;1e9442b07f36&#45;&gt;e6543b3c&#45;684b&#45;4e5f&#45;b27f&#45;58d522a89ffd -->
<g id="edge6" class="edge">
<title>2237f55f&#45;5832&#45;4a8b&#45;9909&#45;1e9442b07f36&#45;&gt;e6543b3c&#45;684b&#45;4e5f&#45;b27f&#45;58d522a89ffd</title>
<path fill="none" stroke="black" d="M1707.25,-99.87C1729.3,-99.87 1751.36,-99.87 1773.42,-99.87"/>
<polygon fill="black" stroke="black" points="1773.55,-103.37 1783.55,-99.87 1773.55,-96.37 1773.55,-103.37"/>
</g>
<!-- ece65cda&#45;1d97&#45;48b4&#45;8c50&#45;20d39213328c -->
<g id="node9" class="node">
<title>ece65cda&#45;1d97&#45;48b4&#45;8c50&#45;20d39213328c</title>
<polygon fill="white" stroke="black" points="1736,-36 1221,-36 1221,0 1736,0 1736,-36"/>
<text text-anchor="middle" x="1478.5" y="-14.3" font-family="Helvetica,sans-Serif" font-size="14.00">▶ Run GitHub Actions for `src/openai/resources/beta/assistants/files.py`</text>
</g>
<!-- 2237f55f&#45;5832&#45;4a8b&#45;9909&#45;1e9442b07f36&#45;&gt;ece65cda&#45;1d97&#45;48b4&#45;8c50&#45;20d39213328c -->
<g id="edge5" class="edge">
<title>2237f55f&#45;5832&#45;4a8b&#45;9909&#45;1e9442b07f36&#45;&gt;ece65cda&#45;1d97&#45;48b4&#45;8c50&#45;20d39213328c</title>
<path fill="none" stroke="black" stroke-dasharray="5,2" d="M1478.5,-72.72C1478.5,-64.27 1478.5,-54.89 1478.5,-46.36"/>
<polygon fill="black" stroke="black" points="1482,-46.15 1478.5,-36.15 1475,-46.15 1482,-46.15"/>
</g>
<!-- e6543b3c&#45;684b&#45;4e5f&#45;b27f&#45;58d522a89ffd&#45;&gt;end -->
<g id="edge9" class="edge">
<title>e6543b3c&#45;684b&#45;4e5f&#45;b27f&#45;58d522a89ffd&#45;&gt;end</title>
<path fill="none" stroke="black" d="M1963.43,-99.87C1982.3,-99.87 1999.72,-99.87 2010.46,-99.87"/>
<polygon fill="black" stroke="black" points="2010.81,-103.37 2020.81,-99.87 2010.81,-96.37 2010.81,-103.37"/>
<text text-anchor="middle" x="1992.15" y="-106.67" font-family="Helvetica,sans-Serif" font-size="14.00">Finish</text>
</g>
<!-- 792a1261&#45;1e2a&#45;4f31&#45;8b44&#45;4008dbd62d71 -->
<g id="node10" class="node">
<title>792a1261&#45;1e2a&#45;4f31&#45;8b44&#45;4008dbd62d71</title>
<polygon fill="white" stroke="black" points="2072.5,-36 1754.5,-36 1754.5,0 2072.5,0 2072.5,-36"/>
<text text-anchor="middle" x="1913.5" y="-14.3" font-family="Helvetica,sans-Serif" font-size="14.00">▶ Run GitHub Actions for `cheat_sheet.md`</text>
</g>
<!-- e6543b3c&#45;684b&#45;4e5f&#45;b27f&#45;58d522a89ffd&#45;&gt;792a1261&#45;1e2a&#45;4f31&#45;8b44&#45;4008dbd62d71 -->
<g id="edge7" class="edge">
<title>e6543b3c&#45;684b&#45;4e5f&#45;b27f&#45;58d522a89ffd&#45;&gt;792a1261&#45;1e2a&#45;4f31&#45;8b44&#45;4008dbd62d71</title>
<path fill="none" stroke="black" stroke-dasharray="5,2" d="M1886.38,-73.16C1890.8,-64.32 1895.77,-54.41 1900.23,-45.5"/>
<polygon fill="black" stroke="black" points="1903.47,-46.85 1904.82,-36.34 1897.21,-43.71 1903.47,-46.85"/>
</g>
</g>
</svg>
