<?xml version="1.0" encoding="UTF-8" standalone="no"?>
<!DOCTYPE svg PUBLIC "-//W3C//DTD SVG 1.1//EN"
 "http://www.w3.org/Graphics/SVG/1.1/DTD/svg11.dtd">
<!-- Generated by graphviz version 2.43.0 (0)
 -->
<!-- Title: %3 Pages: 1 -->
<svg width="578pt" height="165pt"
 viewBox="0.00 0.00 578.00 164.74" xmlns="http://www.w3.org/2000/svg" xmlns:xlink="http://www.w3.org/1999/xlink">
<g id="graph0" class="graph" transform="scale(1 1) rotate(0) translate(36 128.74)">
<title>%3</title>
<polygon fill="dimgray" stroke="transparent" points="-36,36 -36,-128.74 542,-128.74 542,36 -36,36"/>
<text text-anchor="middle" x="253" y="-77.54" font-family="Helvetica,sans-Serif" font-size="14.00">Sweep&#39;s Plan &amp; Progress</text>
<!-- start -->
<g id="node1" class="node">
<title>start</title>
</g>
<!-- b8db9ae2&#45;a30a&#45;497f&#45;a8a1&#45;12291be466e6 -->
<g id="node3" class="node">
<title>b8db9ae2&#45;a30a&#45;497f&#45;a8a1&#45;12291be466e6</title>
<ellipse fill="#0ee832" stroke="black" cx="142.5" cy="-26.87" rx="89.61" ry="26.74"/>
<text text-anchor="middle" x="142.5" y="-30.67" font-family="Helvetica,sans-Serif" font-size="14.00">✓ Create</text>
<text text-anchor="middle" x="142.5" y="-15.67" font-family="Helvetica,sans-Serif" font-size="14.00">cheat_sheet.md</text>
</g>
<!-- start&#45;&gt;b8db9ae2&#45;a30a&#45;497f&#45;a8a1&#45;12291be466e6 -->
<g id="edge2" class="edge">
<title>start&#45;&gt;b8db9ae2&#45;a30a&#45;497f&#45;a8a1&#45;12291be466e6</title>
<path fill="none" stroke="black" d="M1.41,-26.87C5.38,-26.87 22,-26.87 42.51,-26.87"/>
<polygon fill="black" stroke="black" points="42.51,-30.37 52.51,-26.87 42.51,-23.37 42.51,-30.37"/>
<text text-anchor="middle" x="26.85" y="-33.67" font-family="Helvetica,sans-Serif" font-size="14.00">Start</text>
</g>
<!-- end -->
<g id="node2" class="node">
<title>end</title>
</g>
<!-- 0be9f694&#45;db1c&#45;4f1a&#45;98b6&#45;58e84fe009a2 -->
<g id="node4" class="node">
<title>0be9f694&#45;db1c&#45;4f1a&#45;98b6&#45;58e84fe009a2</title>
<ellipse fill="yellow" stroke="black" cx="357.5" cy="-26.87" rx="89.61" ry="26.74"/>
<text text-anchor="middle" x="357.5" y="-30.67" font-family="Helvetica,sans-Serif" font-size="14.00">⋯ Modify</text>
<text text-anchor="middle" x="357.5" y="-15.67" font-family="Helvetica,sans-Serif" font-size="14.00">cheat_sheet.md</text>
</g>
<!-- b8db9ae2&#45;a30a&#45;497f&#45;a8a1&#45;12291be466e6&#45;&gt;0be9f694&#45;db1c&#45;4f1a&#45;98b6&#45;58e84fe009a2 -->
<g id="edge1" class="edge">
<title>b8db9ae2&#45;a30a&#45;497f&#45;a8a1&#45;12291be466e6&#45;&gt;0be9f694&#45;db1c&#45;4f1a&#45;98b6&#45;58e84fe009a2</title>
<path fill="none" stroke="black" d="M232.36,-26.87C240.7,-26.87 249.04,-26.87 257.38,-26.87"/>
<polygon fill="black" stroke="black" points="257.56,-30.37 267.56,-26.87 257.56,-23.37 257.56,-30.37"/>
</g>
<!-- 0be9f694&#45;db1c&#45;4f1a&#45;98b6&#45;58e84fe009a2&#45;&gt;end -->
<g id="edge3" class="edge">
<title>0be9f694&#45;db1c&#45;4f1a&#45;98b6&#45;58e84fe009a2&#45;&gt;end</title>
<path fill="none" stroke="black" d="M447.43,-26.87C466.3,-26.87 483.72,-26.87 494.46,-26.87"/>
<polygon fill="black" stroke="black" points="494.81,-30.37 504.81,-26.87 494.81,-23.37 494.81,-30.37"/>
<text text-anchor="middle" x="476.15" y="-33.67" font-family="Helvetica,sans-Serif" font-size="14.00">Finish</text>
</g>
</g>
</svg>
