<?xml version="1.0" encoding="UTF-8" standalone="no"?>
<!DOCTYPE svg PUBLIC "-//W3C//DTD SVG 1.1//EN"
 "http://www.w3.org/Graphics/SVG/1.1/DTD/svg11.dtd">
<!-- Generated by graphviz version 2.43.0 (0)
 -->
<!-- Title: %3 Pages: 1 -->
<svg width="1261pt" height="238pt"
 viewBox="0.00 0.00 1261.00 237.74" xmlns="http://www.w3.org/2000/svg" xmlns:xlink="http://www.w3.org/1999/xlink">
<g id="graph0" class="graph" transform="scale(1 1) rotate(0) translate(36 201.74)">
<title>%3</title>
<polygon fill="dimgray" stroke="transparent" points="-36,36 -36,-201.74 1225,-201.74 1225,36 -36,36"/>
<text text-anchor="middle" x="594.5" y="-150.54" font-family="Helvetica,sans-Serif" font-size="14.00">Sweep&#39;s Plan &amp; Progress</text>
<!-- start -->
<g id="node1" class="node">
<title>start</title>
</g>
<!-- fecae0d8&#45;9f7d&#45;47d5&#45;909e&#45;925b56e1534f -->
<g id="node3" class="node">
<title>fecae0d8&#45;9f7d&#45;47d5&#45;909e&#45;925b56e1534f</title>
<ellipse fill="#ee0000" stroke="black" cx="312.5" cy="-99.87" rx="260.43" ry="26.74"/>
<text text-anchor="middle" x="312.5" y="-103.67" font-family="Helvetica,sans-Serif" font-size="14.00">✗ Create</text>
<text text-anchor="middle" x="312.5" y="-88.67" font-family="Helvetica,sans-Serif" font-size="14.00">src/openai/resources/beta/assistants/dashboard.py</text>
</g>
<!-- start&#45;&gt;fecae0d8&#45;9f7d&#45;47d5&#45;909e&#45;925b56e1534f -->
<g id="edge4" class="edge">
<title>start&#45;&gt;fecae0d8&#45;9f7d&#45;47d5&#45;909e&#45;925b56e1534f</title>
<path fill="none" stroke="black" d="M1.01,-99.87C3.94,-99.87 19.4,-99.87 42,-99.87"/>
<polygon fill="black" stroke="black" points="42.1,-103.37 52.1,-99.87 42.1,-96.37 42.1,-103.37"/>
<text text-anchor="middle" x="26.64" y="-106.67" font-family="Helvetica,sans-Serif" font-size="14.00">Start</text>
</g>
<!-- end -->
<g id="node2" class="node">
<title>end</title>
</g>
<!-- cec319df&#45;5c75&#45;4193&#45;9c29&#45;9b721963c4b1 -->
<g id="node4" class="node">
<title>cec319df&#45;5c75&#45;4193&#45;9c29&#45;9b721963c4b1</title>
<ellipse fill="#0ee832" stroke="black" cx="872.5" cy="-99.87" rx="258.19" ry="26.74"/>
<text text-anchor="middle" x="872.5" y="-103.67" font-family="Helvetica,sans-Serif" font-size="14.00">✓ Modify</text>
<text text-anchor="middle" x="872.5" y="-88.67" font-family="Helvetica,sans-Serif" font-size="14.00">src/openai/resources/beta/assistants/assistants.py</text>
</g>
<!-- fecae0d8&#45;9f7d&#45;47d5&#45;909e&#45;925b56e1534f&#45;&gt;cec319df&#45;5c75&#45;4193&#45;9c29&#45;9b721963c4b1 -->
<g id="edge2" class="edge">
<title>fecae0d8&#45;9f7d&#45;47d5&#45;909e&#45;925b56e1534f&#45;&gt;cec319df&#45;5c75&#45;4193&#45;9c29&#45;9b721963c4b1</title>
<path fill="none" stroke="black" d="M572.81,-99.87C583.31,-99.87 593.81,-99.87 604.31,-99.87"/>
<polygon fill="black" stroke="black" points="604.37,-103.37 614.37,-99.87 604.37,-96.37 604.37,-103.37"/>
</g>
<!-- a8fab7b1&#45;095b&#45;44fe&#45;9e25&#45;f6ad84d0aea8 -->
<g id="node5" class="node">
<title>a8fab7b1&#45;095b&#45;44fe&#45;9e25&#45;f6ad84d0aea8</title>
<polygon fill="#ee0000" stroke="black" points="582,-36 21,-36 21,0 582,0 582,-36"/>
<text text-anchor="middle" x="301.5" y="-14.3" font-family="Helvetica,sans-Serif" font-size="14.00">✗ Run GitHub Actions for `src/openai/resources/beta/assistants/dashboard.py`</text>
</g>
<!-- fecae0d8&#45;9f7d&#45;47d5&#45;909e&#45;925b56e1534f&#45;&gt;a8fab7b1&#45;095b&#45;44fe&#45;9e25&#45;f6ad84d0aea8 -->
<g id="edge1" class="edge">
<title>fecae0d8&#45;9f7d&#45;47d5&#45;909e&#45;925b56e1534f&#45;&gt;a8fab7b1&#45;095b&#45;44fe&#45;9e25&#45;f6ad84d0aea8</title>
<path fill="none" stroke="black" stroke-dasharray="5,2" d="M308.9,-72.72C307.72,-64.18 306.41,-54.68 305.23,-46.08"/>
<polygon fill="black" stroke="black" points="308.69,-45.58 303.86,-36.15 301.76,-46.53 308.69,-45.58"/>
</g>
<!-- cec319df&#45;5c75&#45;4193&#45;9c29&#45;9b721963c4b1&#45;&gt;end -->
<g id="edge5" class="edge">
<title>cec319df&#45;5c75&#45;4193&#45;9c29&#45;9b721963c4b1&#45;&gt;end</title>
<path fill="none" stroke="black" d="M1130.91,-99.87C1151.21,-99.87 1167.73,-99.87 1177.79,-99.87"/>
<polygon fill="black" stroke="black" points="1177.89,-103.37 1187.89,-99.87 1177.89,-96.37 1177.89,-103.37"/>
<text text-anchor="middle" x="1159.3" y="-106.67" font-family="Helvetica,sans-Serif" font-size="14.00">Finish</text>
</g>
<!-- bffea850&#45;3fb1&#45;4376&#45;8e0b&#45;704d3eba7991 -->
<g id="node6" class="node">
<title>bffea850&#45;3fb1&#45;4376&#45;8e0b&#45;704d3eba7991</title>
<polygon fill="#0ee832" stroke="black" points="1157,-36 600,-36 600,0 1157,0 1157,-36"/>
<text text-anchor="middle" x="878.5" y="-14.3" font-family="Helvetica,sans-Serif" font-size="14.00">✓ Run GitHub Actions for `src/openai/resources/beta/assistants/assistants.py`</text>
</g>
<!-- cec319df&#45;5c75&#45;4193&#45;9c29&#45;9b721963c4b1&#45;&gt;bffea850&#45;3fb1&#45;4376&#45;8e0b&#45;704d3eba7991 -->
<g id="edge3" class="edge">
<title>cec319df&#45;5c75&#45;4193&#45;9c29&#45;9b721963c4b1&#45;&gt;bffea850&#45;3fb1&#45;4376&#45;8e0b&#45;704d3eba7991</title>
<path fill="none" stroke="black" stroke-dasharray="5,2" d="M874.46,-72.72C875.1,-64.27 875.8,-54.89 876.44,-46.36"/>
<polygon fill="black" stroke="black" points="879.95,-46.38 877.21,-36.15 872.97,-45.86 879.95,-46.38"/>
</g>
</g>
</svg>
