<?xml version="1.0" encoding="UTF-8" standalone="no"?>
<!DOCTYPE svg PUBLIC "-//W3C//DTD SVG 1.1//EN"
 "http://www.w3.org/Graphics/SVG/1.1/DTD/svg11.dtd">
<!-- Generated by graphviz version 2.43.0 (0)
 -->
<!-- Title: %3 Pages: 1 -->
<svg width="734pt" height="238pt"
 viewBox="0.00 0.00 733.50 237.74" xmlns="http://www.w3.org/2000/svg" xmlns:xlink="http://www.w3.org/1999/xlink">
<g id="graph0" class="graph" transform="scale(1 1) rotate(0) translate(36 201.74)">
<title>%3</title>
<polygon fill="dimgray" stroke="transparent" points="-36,36 -36,-201.74 697.5,-201.74 697.5,36 -36,36"/>
<text text-anchor="middle" x="330.75" y="-150.54" font-family="Helvetica,sans-Serif" font-size="14.00">Sweep&#39;s Plan &amp; Progress</text>
<!-- start -->
<g id="node1" class="node">
<title>start</title>
</g>
<!-- 2905f30a&#45;6b53&#45;4498&#45;a6bf&#45;519de8322e02 -->
<g id="node3" class="node">
<title>2905f30a&#45;6b53&#45;4498&#45;a6bf&#45;519de8322e02</title>
<ellipse fill="#0ee832" stroke="black" cx="234.5" cy="-99.87" rx="108.79" ry="26.74"/>
<text text-anchor="middle" x="234.5" y="-103.67" font-family="Helvetica,sans-Serif" font-size="14.00">✓ Create</text>
<text text-anchor="middle" x="234.5" y="-88.67" font-family="Helvetica,sans-Serif" font-size="14.00">docs/dashboard.md</text>
</g>
<!-- start&#45;&gt;2905f30a&#45;6b53&#45;4498&#45;a6bf&#45;519de8322e02 -->
<g id="edge4" class="edge">
<title>start&#45;&gt;2905f30a&#45;6b53&#45;4498&#45;a6bf&#45;519de8322e02</title>
<path fill="none" stroke="black" d="M74.22,-99.87C77.76,-99.87 94.07,-99.87 115.02,-99.87"/>
<polygon fill="black" stroke="black" points="115.3,-103.37 125.3,-99.87 115.3,-96.37 115.3,-103.37"/>
<text text-anchor="middle" x="99.8" y="-106.67" font-family="Helvetica,sans-Serif" font-size="14.00">Start</text>
</g>
<!-- end -->
<g id="node2" class="node">
<title>end</title>
</g>
<!-- b62e3094&#45;cfe3&#45;40bc&#45;b70d&#45;9ed8dd10ff70 -->
<g id="node4" class="node">
<title>b62e3094&#45;cfe3&#45;40bc&#45;b70d&#45;9ed8dd10ff70</title>
<ellipse fill="#0ee832" stroke="black" cx="483.5" cy="-99.87" rx="73.58" ry="26.74"/>
<text text-anchor="middle" x="483.5" y="-103.67" font-family="Helvetica,sans-Serif" font-size="14.00">✓ Modify</text>
<text text-anchor="middle" x="483.5" y="-88.67" font-family="Helvetica,sans-Serif" font-size="14.00">README.md</text>
</g>
<!-- 2905f30a&#45;6b53&#45;4498&#45;a6bf&#45;519de8322e02&#45;&gt;b62e3094&#45;cfe3&#45;40bc&#45;b70d&#45;9ed8dd10ff70 -->
<g id="edge2" class="edge">
<title>2905f30a&#45;6b53&#45;4498&#45;a6bf&#45;519de8322e02&#45;&gt;b62e3094&#45;cfe3&#45;40bc&#45;b70d&#45;9ed8dd10ff70</title>
<path fill="none" stroke="black" d="M343.44,-99.87C362.22,-99.87 381,-99.87 399.79,-99.87"/>
<polygon fill="black" stroke="black" points="399.91,-103.37 409.91,-99.87 399.91,-96.37 399.91,-103.37"/>
</g>
<!-- 22a55abd&#45;d7d7&#45;461c&#45;88b3&#45;3a4bca059c53 -->
<g id="node5" class="node">
<title>22a55abd&#45;d7d7&#45;461c&#45;88b3&#45;3a4bca059c53</title>
<polygon fill="#0ee832" stroke="black" points="347,-36 0,-36 0,0 347,0 347,-36"/>
<text text-anchor="middle" x="173.5" y="-14.3" font-family="Helvetica,sans-Serif" font-size="14.00">✓ Run GitHub Actions for `docs/dashboard.md`</text>
</g>
<!-- 2905f30a&#45;6b53&#45;4498&#45;a6bf&#45;519de8322e02&#45;&gt;22a55abd&#45;d7d7&#45;461c&#45;88b3&#45;3a4bca059c53 -->
<g id="edge1" class="edge">
<title>2905f30a&#45;6b53&#45;4498&#45;a6bf&#45;519de8322e02&#45;&gt;22a55abd&#45;d7d7&#45;461c&#45;88b3&#45;3a4bca059c53</title>
<path fill="none" stroke="black" stroke-dasharray="5,2" d="M214.86,-73.16C207.82,-63.94 199.9,-53.56 192.88,-44.37"/>
<polygon fill="black" stroke="black" points="195.59,-42.16 186.74,-36.34 190.03,-46.41 195.59,-42.16"/>
</g>
<!-- b62e3094&#45;cfe3&#45;40bc&#45;b70d&#45;9ed8dd10ff70&#45;&gt;end -->
<g id="edge5" class="edge">
<title>b62e3094&#45;cfe3&#45;40bc&#45;b70d&#45;9ed8dd10ff70&#45;&gt;end</title>
<path fill="none" stroke="black" d="M557.22,-99.87C575.84,-99.87 593.64,-99.87 604.56,-99.87"/>
<polygon fill="black" stroke="black" points="604.78,-103.37 614.78,-99.87 604.78,-96.37 604.78,-103.37"/>
<text text-anchor="middle" x="586.02" y="-106.67" font-family="Helvetica,sans-Serif" font-size="14.00">Finish</text>
</g>
<!-- 250f2bc1&#45;9230&#45;4227&#45;a0a4&#45;74d66bf3c72e -->
<g id="node6" class="node">
<title>250f2bc1&#45;9230&#45;4227&#45;a0a4&#45;74d66bf3c72e</title>
<polygon fill="#0ee832" stroke="black" points="661.5,-36 365.5,-36 365.5,0 661.5,0 661.5,-36"/>
<text text-anchor="middle" x="513.5" y="-14.3" font-family="Helvetica,sans-Serif" font-size="14.00">✓ Run GitHub Actions for `README.md`</text>
</g>
<!-- b62e3094&#45;cfe3&#45;40bc&#45;b70d&#45;9ed8dd10ff70&#45;&gt;250f2bc1&#45;9230&#45;4227&#45;a0a4&#45;74d66bf3c72e -->
<g id="edge3" class="edge">
<title>b62e3094&#45;cfe3&#45;40bc&#45;b70d&#45;9ed8dd10ff70&#45;&gt;250f2bc1&#45;9230&#45;4227&#45;a0a4&#45;74d66bf3c72e</title>
<path fill="none" stroke="black" stroke-dasharray="5,2" d="M493.16,-73.16C496.44,-64.41 500.12,-54.62 503.44,-45.79"/>
<polygon fill="black" stroke="black" points="506.75,-46.93 506.99,-36.34 500.2,-44.47 506.75,-46.93"/>
</g>
</g>
</svg>
