<?xml version="1.0" encoding="UTF-8" standalone="no"?>
<!DOCTYPE svg PUBLIC "-//W3C//DTD SVG 1.1//EN"
 "http://www.w3.org/Graphics/SVG/1.1/DTD/svg11.dtd">
<!-- Generated by graphviz version 2.43.0 (0)
 -->
<!-- Title: %3 Pages: 1 -->
<svg width="3326pt" height="238pt"
 viewBox="0.00 0.00 3325.50 237.74" xmlns="http://www.w3.org/2000/svg" xmlns:xlink="http://www.w3.org/1999/xlink">
<g id="graph0" class="graph" transform="scale(1 1) rotate(0) translate(36 201.74)">
<title>%3</title>
<polygon fill="dimgray" stroke="transparent" points="-36,36 -36,-201.74 3289.5,-201.74 3289.5,36 -36,36"/>
<text text-anchor="middle" x="1626.75" y="-150.54" font-family="Helvetica,sans-Serif" font-size="14.00">Sweep&#39;s Plan &amp; Progress</text>
<!-- start -->
<g id="node1" class="node">
<title>start</title>
</g>
<!-- cfd6c7d8&#45;9cc1&#45;42d0&#45;b385&#45;32741fdf741e -->
<g id="node3" class="node">
<title>cfd6c7d8&#45;9cc1&#45;42d0&#45;b385&#45;32741fdf741e</title>
<ellipse fill="#0ee832" stroke="black" cx="196" cy="-99.87" rx="96.75" ry="26.74"/>
<text text-anchor="middle" x="196" y="-103.67" font-family="Helvetica,sans-Serif" font-size="14.00">✓ Create</text>
<text text-anchor="middle" x="196" y="-88.67" font-family="Helvetica,sans-Serif" font-size="14.00">src/dashboard.py</text>
</g>
<!-- start&#45;&gt;cfd6c7d8&#45;9cc1&#45;42d0&#45;b385&#45;32741fdf741e -->
<g id="edge12" class="edge">
<title>start&#45;&gt;cfd6c7d8&#45;9cc1&#45;42d0&#45;b385&#45;32741fdf741e</title>
<path fill="none" stroke="black" d="M47.66,-99.87C51.13,-99.87 67.74,-99.87 88.68,-99.87"/>
<polygon fill="black" stroke="black" points="88.92,-103.37 98.92,-99.87 88.92,-96.37 88.92,-103.37"/>
<text text-anchor="middle" x="73.31" y="-106.67" font-family="Helvetica,sans-Serif" font-size="14.00">Start</text>
</g>
<!-- end -->
<g id="node2" class="node">
<title>end</title>
</g>
<!-- 3d3b8f39&#45;1621&#45;4ce4&#45;964f&#45;6ab7125d2e83 -->
<g id="node4" class="node">
<title>3d3b8f39&#45;1621&#45;4ce4&#45;964f&#45;6ab7125d2e83</title>
<ellipse fill="white" stroke="black" cx="656" cy="-99.87" rx="296.97" ry="26.74"/>
<text text-anchor="middle" x="656" y="-103.67" font-family="Helvetica,sans-Serif" font-size="14.00">▶ Modify</text>
<text text-anchor="middle" x="656" y="-88.67" font-family="Helvetica,sans-Serif" font-size="14.00">src/openai/types/beta/threads/message_create_params.py</text>
</g>
<!-- cfd6c7d8&#45;9cc1&#45;42d0&#45;b385&#45;32741fdf741e&#45;&gt;3d3b8f39&#45;1621&#45;4ce4&#45;964f&#45;6ab7125d2e83 -->
<g id="edge2" class="edge">
<title>cfd6c7d8&#45;9cc1&#45;42d0&#45;b385&#45;32741fdf741e&#45;&gt;3d3b8f39&#45;1621&#45;4ce4&#45;964f&#45;6ab7125d2e83</title>
<path fill="none" stroke="black" d="M293.03,-99.87C311.66,-99.87 330.29,-99.87 348.92,-99.87"/>
<polygon fill="black" stroke="black" points="348.96,-103.37 358.96,-99.87 348.96,-96.37 348.96,-103.37"/>
</g>
<!-- 5766749f&#45;cfd1&#45;4e82&#45;9ed6&#45;49f6a503efd7 -->
<g id="node9" class="node">
<title>5766749f&#45;cfd1&#45;4e82&#45;9ed6&#45;49f6a503efd7</title>
<polygon fill="yellow" stroke="black" points="332,-36 0,-36 0,0 332,0 332,-36"/>
<text text-anchor="middle" x="166" y="-14.3" font-family="Helvetica,sans-Serif" font-size="14.00">⋯ Run GitHub Actions for `src/dashboard.py`</text>
</g>
<!-- cfd6c7d8&#45;9cc1&#45;42d0&#45;b385&#45;32741fdf741e&#45;&gt;5766749f&#45;cfd1&#45;4e82&#45;9ed6&#45;49f6a503efd7 -->
<g id="edge1" class="edge">
<title>cfd6c7d8&#45;9cc1&#45;42d0&#45;b385&#45;32741fdf741e&#45;&gt;5766749f&#45;cfd1&#45;4e82&#45;9ed6&#45;49f6a503efd7</title>
<path fill="none" stroke="black" stroke-dasharray="5,2" d="M186.18,-72.72C182.9,-63.99 179.25,-54.26 175.96,-45.51"/>
<polygon fill="black" stroke="black" points="179.23,-44.28 172.44,-36.15 172.68,-46.74 179.23,-44.28"/>
</g>
<!-- 6db54d0d&#45;ca3c&#45;4289&#45;bb8f&#45;69782b67b507 -->
<g id="node5" class="node">
<title>6db54d0d&#45;ca3c&#45;4289&#45;bb8f&#45;69782b67b507</title>
<ellipse fill="white" stroke="black" cx="1280" cy="-99.87" rx="289.83" ry="26.74"/>
<text text-anchor="middle" x="1280" y="-103.67" font-family="Helvetica,sans-Serif" font-size="14.00">▶ Modify</text>
<text text-anchor="middle" x="1280" y="-88.67" font-family="Helvetica,sans-Serif" font-size="14.00">src/openai/types/beta/thread_create_and_run_params.py</text>
</g>
<!-- 3d3b8f39&#45;1621&#45;4ce4&#45;964f&#45;6ab7125d2e83&#45;&gt;6db54d0d&#45;ca3c&#45;4289&#45;bb8f&#45;69782b67b507 -->
<g id="edge4" class="edge">
<title>3d3b8f39&#45;1621&#45;4ce4&#45;964f&#45;6ab7125d2e83&#45;&gt;6db54d0d&#45;ca3c&#45;4289&#45;bb8f&#45;69782b67b507</title>
<path fill="none" stroke="black" d="M953.07,-99.87C961.96,-99.87 970.85,-99.87 979.75,-99.87"/>
<polygon fill="black" stroke="black" points="979.79,-103.37 989.79,-99.87 979.79,-96.37 979.79,-103.37"/>
</g>
<!-- 6224976b&#45;e9c6&#45;44f8&#45;8494&#45;54f318bac4da -->
<g id="node10" class="node">
<title>6224976b&#45;e9c6&#45;44f8&#45;8494&#45;54f318bac4da</title>
<polygon fill="white" stroke="black" points="961.5,-36 350.5,-36 350.5,0 961.5,0 961.5,-36"/>
<text text-anchor="middle" x="656" y="-14.3" font-family="Helvetica,sans-Serif" font-size="14.00">▶ Run GitHub Actions for `src/openai/types/beta/threads/message_create_params.py`</text>
</g>
<!-- 3d3b8f39&#45;1621&#45;4ce4&#45;964f&#45;6ab7125d2e83&#45;&gt;6224976b&#45;e9c6&#45;44f8&#45;8494&#45;54f318bac4da -->
<g id="edge3" class="edge">
<title>3d3b8f39&#45;1621&#45;4ce4&#45;964f&#45;6ab7125d2e83&#45;&gt;6224976b&#45;e9c6&#45;44f8&#45;8494&#45;54f318bac4da</title>
<path fill="none" stroke="black" stroke-dasharray="5,2" d="M656,-72.72C656,-64.27 656,-54.89 656,-46.36"/>
<polygon fill="black" stroke="black" points="659.5,-46.15 656,-36.15 652.5,-46.15 659.5,-46.15"/>
</g>
<!-- c3735f7e&#45;fa5c&#45;48dd&#45;abf5&#45;e54782404653 -->
<g id="node6" class="node">
<title>c3735f7e&#45;fa5c&#45;48dd&#45;abf5&#45;e54782404653</title>
<ellipse fill="white" stroke="black" cx="1872" cy="-99.87" rx="251.05" ry="26.74"/>
<text text-anchor="middle" x="1872" y="-103.67" font-family="Helvetica,sans-Serif" font-size="14.00">▶ Modify</text>
<text text-anchor="middle" x="1872" y="-88.67" font-family="Helvetica,sans-Serif" font-size="14.00">src/openai/types/create_embedding_response.py</text>
</g>
<!-- 6db54d0d&#45;ca3c&#45;4289&#45;bb8f&#45;69782b67b507&#45;&gt;c3735f7e&#45;fa5c&#45;48dd&#45;abf5&#45;e54782404653 -->
<g id="edge6" class="edge">
<title>6db54d0d&#45;ca3c&#45;4289&#45;bb8f&#45;69782b67b507&#45;&gt;c3735f7e&#45;fa5c&#45;48dd&#45;abf5&#45;e54782404653</title>
<path fill="none" stroke="black" d="M1569.93,-99.87C1583.49,-99.87 1597.04,-99.87 1610.6,-99.87"/>
<polygon fill="black" stroke="black" points="1610.96,-103.37 1620.96,-99.87 1610.96,-96.37 1610.96,-103.37"/>
</g>
<!-- 67c986c8&#45;8c28&#45;4714&#45;b573&#45;9abb3811fbfe -->
<g id="node11" class="node">
<title>67c986c8&#45;8c28&#45;4714&#45;b573&#45;9abb3811fbfe</title>
<polygon fill="white" stroke="black" points="1580.5,-36 979.5,-36 979.5,0 1580.5,0 1580.5,-36"/>
<text text-anchor="middle" x="1280" y="-14.3" font-family="Helvetica,sans-Serif" font-size="14.00">▶ Run GitHub Actions for `src/openai/types/beta/thread_create_and_run_params.py`</text>
</g>
<!-- 6db54d0d&#45;ca3c&#45;4289&#45;bb8f&#45;69782b67b507&#45;&gt;67c986c8&#45;8c28&#45;4714&#45;b573&#45;9abb3811fbfe -->
<g id="edge5" class="edge">
<title>6db54d0d&#45;ca3c&#45;4289&#45;bb8f&#45;69782b67b507&#45;&gt;67c986c8&#45;8c28&#45;4714&#45;b573&#45;9abb3811fbfe</title>
<path fill="none" stroke="black" stroke-dasharray="5,2" d="M1280,-72.72C1280,-64.27 1280,-54.89 1280,-46.36"/>
<polygon fill="black" stroke="black" points="1283.5,-46.15 1280,-36.15 1276.5,-46.15 1283.5,-46.15"/>
</g>
<!-- 768e5dce&#45;2552&#45;414a&#45;874f&#45;420d0128e88a -->
<g id="node7" class="node">
<title>768e5dce&#45;2552&#45;414a&#45;874f&#45;420d0128e88a</title>
<ellipse fill="white" stroke="black" cx="2457" cy="-99.87" rx="280.94" ry="26.74"/>
<text text-anchor="middle" x="2457" y="-103.67" font-family="Helvetica,sans-Serif" font-size="14.00">▶ Modify</text>
<text text-anchor="middle" x="2457" y="-88.67" font-family="Helvetica,sans-Serif" font-size="14.00">src/openai/types/audio/transcription_create_params.py</text>
</g>
<!-- c3735f7e&#45;fa5c&#45;48dd&#45;abf5&#45;e54782404653&#45;&gt;768e5dce&#45;2552&#45;414a&#45;874f&#45;420d0128e88a -->
<g id="edge8" class="edge">
<title>c3735f7e&#45;fa5c&#45;48dd&#45;abf5&#45;e54782404653&#45;&gt;768e5dce&#45;2552&#45;414a&#45;874f&#45;420d0128e88a</title>
<path fill="none" stroke="black" d="M2123.08,-99.87C2137.34,-99.87 2151.6,-99.87 2165.85,-99.87"/>
<polygon fill="black" stroke="black" points="2166.23,-103.37 2176.23,-99.87 2166.23,-96.37 2166.23,-103.37"/>
</g>
<!-- 49a94454&#45;c9a1&#45;4bb3&#45;8f0c&#45;7005a56f0064 -->
<g id="node12" class="node">
<title>49a94454&#45;c9a1&#45;4bb3&#45;8f0c&#45;7005a56f0064</title>
<polygon fill="white" stroke="black" points="2145,-36 1599,-36 1599,0 2145,0 2145,-36"/>
<text text-anchor="middle" x="1872" y="-14.3" font-family="Helvetica,sans-Serif" font-size="14.00">▶ Run GitHub Actions for `src/openai/types/create_embedding_response.py`</text>
</g>
<!-- c3735f7e&#45;fa5c&#45;48dd&#45;abf5&#45;e54782404653&#45;&gt;49a94454&#45;c9a1&#45;4bb3&#45;8f0c&#45;7005a56f0064 -->
<g id="edge7" class="edge">
<title>c3735f7e&#45;fa5c&#45;48dd&#45;abf5&#45;e54782404653&#45;&gt;49a94454&#45;c9a1&#45;4bb3&#45;8f0c&#45;7005a56f0064</title>
<path fill="none" stroke="black" stroke-dasharray="5,2" d="M1872,-72.72C1872,-64.27 1872,-54.89 1872,-46.36"/>
<polygon fill="black" stroke="black" points="1875.5,-46.15 1872,-36.15 1868.5,-46.15 1875.5,-46.15"/>
</g>
<!-- 178e0824&#45;8bb9&#45;4b04&#45;8f2d&#45;f7b4dbbd163a -->
<g id="node8" class="node">
<title>178e0824&#45;8bb9&#45;4b04&#45;8f2d&#45;f7b4dbbd163a</title>
<ellipse fill="white" stroke="black" cx="2992" cy="-99.87" rx="202.88" ry="26.74"/>
<text text-anchor="middle" x="2992" y="-103.67" font-family="Helvetica,sans-Serif" font-size="14.00">▶ Modify</text>
<text text-anchor="middle" x="2992" y="-88.67" font-family="Helvetica,sans-Serif" font-size="14.00">src/openai/types/file_create_params.py</text>
</g>
<!-- 768e5dce&#45;2552&#45;414a&#45;874f&#45;420d0128e88a&#45;&gt;178e0824&#45;8bb9&#45;4b04&#45;8f2d&#45;f7b4dbbd163a -->
<g id="edge10" class="edge">
<title>768e5dce&#45;2552&#45;414a&#45;874f&#45;420d0128e88a&#45;&gt;178e0824&#45;8bb9&#45;4b04&#45;8f2d&#45;f7b4dbbd163a</title>
<path fill="none" stroke="black" d="M2737.82,-99.87C2751.41,-99.87 2764.99,-99.87 2778.57,-99.87"/>
<polygon fill="black" stroke="black" points="2778.96,-103.37 2788.96,-99.87 2778.96,-96.37 2778.96,-103.37"/>
</g>
<!-- 62c63cb0&#45;fb89&#45;4337&#45;98d9&#45;c500d35ad9b6 -->
<g id="node13" class="node">
<title>62c63cb0&#45;fb89&#45;4337&#45;98d9&#45;c500d35ad9b6</title>
<polygon fill="white" stroke="black" points="2751,-36 2163,-36 2163,0 2751,0 2751,-36"/>
<text text-anchor="middle" x="2457" y="-14.3" font-family="Helvetica,sans-Serif" font-size="14.00">▶ Run GitHub Actions for `src/openai/types/audio/transcription_create_params.py`</text>
</g>
<!-- 768e5dce&#45;2552&#45;414a&#45;874f&#45;420d0128e88a&#45;&gt;62c63cb0&#45;fb89&#45;4337&#45;98d9&#45;c500d35ad9b6 -->
<g id="edge9" class="edge">
<title>768e5dce&#45;2552&#45;414a&#45;874f&#45;420d0128e88a&#45;&gt;62c63cb0&#45;fb89&#45;4337&#45;98d9&#45;c500d35ad9b6</title>
<path fill="none" stroke="black" stroke-dasharray="5,2" d="M2457,-72.72C2457,-64.27 2457,-54.89 2457,-46.36"/>
<polygon fill="black" stroke="black" points="2460.5,-46.15 2457,-36.15 2453.5,-46.15 2460.5,-46.15"/>
</g>
<!-- 178e0824&#45;8bb9&#45;4b04&#45;8f2d&#45;f7b4dbbd163a&#45;&gt;end -->
<g id="edge13" class="edge">
<title>178e0824&#45;8bb9&#45;4b04&#45;8f2d&#45;f7b4dbbd163a&#45;&gt;end</title>
<path fill="none" stroke="black" d="M3195.08,-99.87C3215.11,-99.87 3231.81,-99.87 3242.04,-99.87"/>
<polygon fill="black" stroke="black" points="3242.37,-103.37 3252.37,-99.87 3242.37,-96.37 3242.37,-103.37"/>
<text text-anchor="middle" x="3223.72" y="-106.67" font-family="Helvetica,sans-Serif" font-size="14.00">Finish</text>
</g>
<!-- a4f0350a&#45;29fb&#45;480b&#45;9957&#45;044fa3bde51d -->
<g id="node14" class="node">
<title>a4f0350a&#45;29fb&#45;480b&#45;9957&#45;044fa3bde51d</title>
<polygon fill="white" stroke="black" points="3247,-36 2769,-36 2769,0 3247,0 3247,-36"/>
<text text-anchor="middle" x="3008" y="-14.3" font-family="Helvetica,sans-Serif" font-size="14.00">▶ Run GitHub Actions for `src/openai/types/file_create_params.py`</text>
</g>
<!-- 178e0824&#45;8bb9&#45;4b04&#45;8f2d&#45;f7b4dbbd163a&#45;&gt;a4f0350a&#45;29fb&#45;480b&#45;9957&#45;044fa3bde51d -->
<g id="edge11" class="edge">
<title>178e0824&#45;8bb9&#45;4b04&#45;8f2d&#45;f7b4dbbd163a&#45;&gt;a4f0350a&#45;29fb&#45;480b&#45;9957&#45;044fa3bde51d</title>
<path fill="none" stroke="black" stroke-dasharray="5,2" d="M2997.24,-72.72C2998.95,-64.18 3000.85,-54.68 3002.58,-46.08"/>
<polygon fill="black" stroke="black" points="3006.03,-46.64 3004.57,-36.15 2999.17,-45.26 3006.03,-46.64"/>
</g>
</g>
</svg>
