<?xml version="1.0" encoding="UTF-8" standalone="no"?>
<!DOCTYPE svg PUBLIC "-//W3C//DTD SVG 1.1//EN"
 "http://www.w3.org/Graphics/SVG/1.1/DTD/svg11.dtd">
<!-- Generated by graphviz version 2.43.0 (0)
 -->
<!-- Title: %3 Pages: 1 -->
<svg width="3326pt" height="238pt"
 viewBox="0.00 0.00 3326.00 237.74" xmlns="http://www.w3.org/2000/svg" xmlns:xlink="http://www.w3.org/1999/xlink">
<g id="graph0" class="graph" transform="scale(1 1) rotate(0) translate(36 201.74)">
<title>%3</title>
<polygon fill="dimgray" stroke="transparent" points="-36,36 -36,-201.74 3290,-201.74 3290,36 -36,36"/>
<text text-anchor="middle" x="1627" y="-150.54" font-family="Helvetica,sans-Serif" font-size="14.00">Sweep&#39;s Plan &amp; Progress</text>
<!-- start -->
<g id="node1" class="node">
<title>start</title>
</g>
<!-- cfd6c7d8&#45;9cc1&#45;42d0&#45;b385&#45;32741fdf741e -->
<g id="node3" class="node">
<title>cfd6c7d8&#45;9cc1&#45;42d0&#45;b385&#45;32741fdf741e</title>
<ellipse fill="#0ee832" stroke="black" cx="194.5" cy="-99.87" rx="96.75" ry="26.74"/>
<text text-anchor="middle" x="194.5" y="-103.67" font-family="Helvetica,sans-Serif" font-size="14.00">✓ Create</text>
<text text-anchor="middle" x="194.5" y="-88.67" font-family="Helvetica,sans-Serif" font-size="14.00">src/dashboard.py</text>
</g>
<!-- start&#45;&gt;cfd6c7d8&#45;9cc1&#45;42d0&#45;b385&#45;32741fdf741e -->
<g id="edge12" class="edge">
<title>start&#45;&gt;cfd6c7d8&#45;9cc1&#45;42d0&#45;b385&#45;32741fdf741e</title>
<path fill="none" stroke="black" d="M46.16,-99.87C49.63,-99.87 66.24,-99.87 87.18,-99.87"/>
<polygon fill="black" stroke="black" points="87.42,-103.37 97.42,-99.87 87.42,-96.37 87.42,-103.37"/>
<text text-anchor="middle" x="71.81" y="-106.67" font-family="Helvetica,sans-Serif" font-size="14.00">Start</text>
</g>
<!-- end -->
<g id="node2" class="node">
<title>end</title>
</g>
<!-- 3d3b8f39&#45;1621&#45;4ce4&#45;964f&#45;6ab7125d2e83 -->
<g id="node4" class="node">
<title>3d3b8f39&#45;1621&#45;4ce4&#45;964f&#45;6ab7125d2e83</title>
<ellipse fill="#0ee832" stroke="black" cx="654.5" cy="-99.87" rx="296.97" ry="26.74"/>
<text text-anchor="middle" x="654.5" y="-103.67" font-family="Helvetica,sans-Serif" font-size="14.00">✓ Modify</text>
<text text-anchor="middle" x="654.5" y="-88.67" font-family="Helvetica,sans-Serif" font-size="14.00">src/openai/types/beta/threads/message_create_params.py</text>
</g>
<!-- cfd6c7d8&#45;9cc1&#45;42d0&#45;b385&#45;32741fdf741e&#45;&gt;3d3b8f39&#45;1621&#45;4ce4&#45;964f&#45;6ab7125d2e83 -->
<g id="edge2" class="edge">
<title>cfd6c7d8&#45;9cc1&#45;42d0&#45;b385&#45;32741fdf741e&#45;&gt;3d3b8f39&#45;1621&#45;4ce4&#45;964f&#45;6ab7125d2e83</title>
<path fill="none" stroke="black" d="M291.53,-99.87C310.16,-99.87 328.79,-99.87 347.42,-99.87"/>
<polygon fill="black" stroke="black" points="347.46,-103.37 357.46,-99.87 347.46,-96.37 347.46,-103.37"/>
</g>
<!-- 5766749f&#45;cfd1&#45;4e82&#45;9ed6&#45;49f6a503efd7 -->
<g id="node9" class="node">
<title>5766749f&#45;cfd1&#45;4e82&#45;9ed6&#45;49f6a503efd7</title>
<polygon fill="#0ee832" stroke="black" points="329,-36 0,-36 0,0 329,0 329,-36"/>
<text text-anchor="middle" x="164.5" y="-14.3" font-family="Helvetica,sans-Serif" font-size="14.00">✓ Run GitHub Actions for `src/dashboard.py`</text>
</g>
<!-- cfd6c7d8&#45;9cc1&#45;42d0&#45;b385&#45;32741fdf741e&#45;&gt;5766749f&#45;cfd1&#45;4e82&#45;9ed6&#45;49f6a503efd7 -->
<g id="edge1" class="edge">
<title>cfd6c7d8&#45;9cc1&#45;42d0&#45;b385&#45;32741fdf741e&#45;&gt;5766749f&#45;cfd1&#45;4e82&#45;9ed6&#45;49f6a503efd7</title>
<path fill="none" stroke="black" stroke-dasharray="5,2" d="M184.68,-72.72C181.4,-63.99 177.75,-54.26 174.46,-45.51"/>
<polygon fill="black" stroke="black" points="177.73,-44.28 170.94,-36.15 171.18,-46.74 177.73,-44.28"/>
</g>
<!-- 6db54d0d&#45;ca3c&#45;4289&#45;bb8f&#45;69782b67b507 -->
<g id="node5" class="node">
<title>6db54d0d&#45;ca3c&#45;4289&#45;bb8f&#45;69782b67b507</title>
<ellipse fill="white" stroke="black" cx="1280.5" cy="-99.87" rx="289.83" ry="26.74"/>
<text text-anchor="middle" x="1280.5" y="-103.67" font-family="Helvetica,sans-Serif" font-size="14.00">▶ Modify</text>
<text text-anchor="middle" x="1280.5" y="-88.67" font-family="Helvetica,sans-Serif" font-size="14.00">src/openai/types/beta/thread_create_and_run_params.py</text>
</g>
<!-- 3d3b8f39&#45;1621&#45;4ce4&#45;964f&#45;6ab7125d2e83&#45;&gt;6db54d0d&#45;ca3c&#45;4289&#45;bb8f&#45;69782b67b507 -->
<g id="edge4" class="edge">
<title>3d3b8f39&#45;1621&#45;4ce4&#45;964f&#45;6ab7125d2e83&#45;&gt;6db54d0d&#45;ca3c&#45;4289&#45;bb8f&#45;69782b67b507</title>
<path fill="none" stroke="black" d="M951.61,-99.87C961.22,-99.87 970.83,-99.87 980.45,-99.87"/>
<polygon fill="black" stroke="black" points="980.47,-103.37 990.47,-99.87 980.47,-96.37 980.47,-103.37"/>
</g>
<!-- 6224976b&#45;e9c6&#45;44f8&#45;8494&#45;54f318bac4da -->
<g id="node10" class="node">
<title>6224976b&#45;e9c6&#45;44f8&#45;8494&#45;54f318bac4da</title>
<polygon fill="yellow" stroke="black" points="962,-36 347,-36 347,0 962,0 962,-36"/>
<text text-anchor="middle" x="654.5" y="-14.3" font-family="Helvetica,sans-Serif" font-size="14.00">⋯ Run GitHub Actions for `src/openai/types/beta/threads/message_create_params.py`</text>
</g>
<!-- 3d3b8f39&#45;1621&#45;4ce4&#45;964f&#45;6ab7125d2e83&#45;&gt;6224976b&#45;e9c6&#45;44f8&#45;8494&#45;54f318bac4da -->
<g id="edge3" class="edge">
<title>3d3b8f39&#45;1621&#45;4ce4&#45;964f&#45;6ab7125d2e83&#45;&gt;6224976b&#45;e9c6&#45;44f8&#45;8494&#45;54f318bac4da</title>
<path fill="none" stroke="black" stroke-dasharray="5,2" d="M654.5,-72.72C654.5,-64.27 654.5,-54.89 654.5,-46.36"/>
<polygon fill="black" stroke="black" points="658,-46.15 654.5,-36.15 651,-46.15 658,-46.15"/>
</g>
<!-- c3735f7e&#45;fa5c&#45;48dd&#45;abf5&#45;e54782404653 -->
<g id="node6" class="node">
<title>c3735f7e&#45;fa5c&#45;48dd&#45;abf5&#45;e54782404653</title>
<ellipse fill="white" stroke="black" cx="1872.5" cy="-99.87" rx="251.05" ry="26.74"/>
<text text-anchor="middle" x="1872.5" y="-103.67" font-family="Helvetica,sans-Serif" font-size="14.00">▶ Modify</text>
<text text-anchor="middle" x="1872.5" y="-88.67" font-family="Helvetica,sans-Serif" font-size="14.00">src/openai/types/create_embedding_response.py</text>
</g>
<!-- 6db54d0d&#45;ca3c&#45;4289&#45;bb8f&#45;69782b67b507&#45;&gt;c3735f7e&#45;fa5c&#45;48dd&#45;abf5&#45;e54782404653 -->
<g id="edge6" class="edge">
<title>6db54d0d&#45;ca3c&#45;4289&#45;bb8f&#45;69782b67b507&#45;&gt;c3735f7e&#45;fa5c&#45;48dd&#45;abf5&#45;e54782404653</title>
<path fill="none" stroke="black" d="M1570.43,-99.87C1583.99,-99.87 1597.54,-99.87 1611.1,-99.87"/>
<polygon fill="black" stroke="black" points="1611.46,-103.37 1621.46,-99.87 1611.46,-96.37 1611.46,-103.37"/>
</g>
<!-- 67c986c8&#45;8c28&#45;4714&#45;b573&#45;9abb3811fbfe -->
<g id="node11" class="node">
<title>67c986c8&#45;8c28&#45;4714&#45;b573&#45;9abb3811fbfe</title>
<polygon fill="white" stroke="black" points="1581,-36 980,-36 980,0 1581,0 1581,-36"/>
<text text-anchor="middle" x="1280.5" y="-14.3" font-family="Helvetica,sans-Serif" font-size="14.00">▶ Run GitHub Actions for `src/openai/types/beta/thread_create_and_run_params.py`</text>
</g>
<!-- 6db54d0d&#45;ca3c&#45;4289&#45;bb8f&#45;69782b67b507&#45;&gt;67c986c8&#45;8c28&#45;4714&#45;b573&#45;9abb3811fbfe -->
<g id="edge5" class="edge">
<title>6db54d0d&#45;ca3c&#45;4289&#45;bb8f&#45;69782b67b507&#45;&gt;67c986c8&#45;8c28&#45;4714&#45;b573&#45;9abb3811fbfe</title>
<path fill="none" stroke="black" stroke-dasharray="5,2" d="M1280.5,-72.72C1280.5,-64.27 1280.5,-54.89 1280.5,-46.36"/>
<polygon fill="black" stroke="black" points="1284,-46.15 1280.5,-36.15 1277,-46.15 1284,-46.15"/>
</g>
<!-- 768e5dce&#45;2552&#45;414a&#45;874f&#45;420d0128e88a -->
<g id="node7" class="node">
<title>768e5dce&#45;2552&#45;414a&#45;874f&#45;420d0128e88a</title>
<ellipse fill="white" stroke="black" cx="2457.5" cy="-99.87" rx="280.94" ry="26.74"/>
<text text-anchor="middle" x="2457.5" y="-103.67" font-family="Helvetica,sans-Serif" font-size="14.00">▶ Modify</text>
<text text-anchor="middle" x="2457.5" y="-88.67" font-family="Helvetica,sans-Serif" font-size="14.00">src/openai/types/audio/transcription_create_params.py</text>
</g>
<!-- c3735f7e&#45;fa5c&#45;48dd&#45;abf5&#45;e54782404653&#45;&gt;768e5dce&#45;2552&#45;414a&#45;874f&#45;420d0128e88a -->
<g id="edge8" class="edge">
<title>c3735f7e&#45;fa5c&#45;48dd&#45;abf5&#45;e54782404653&#45;&gt;768e5dce&#45;2552&#45;414a&#45;874f&#45;420d0128e88a</title>
<path fill="none" stroke="black" d="M2123.58,-99.87C2137.84,-99.87 2152.1,-99.87 2166.35,-99.87"/>
<polygon fill="black" stroke="black" points="2166.73,-103.37 2176.73,-99.87 2166.73,-96.37 2166.73,-103.37"/>
</g>
<!-- 49a94454&#45;c9a1&#45;4bb3&#45;8f0c&#45;7005a56f0064 -->
<g id="node12" class="node">
<title>49a94454&#45;c9a1&#45;4bb3&#45;8f0c&#45;7005a56f0064</title>
<polygon fill="white" stroke="black" points="2145.5,-36 1599.5,-36 1599.5,0 2145.5,0 2145.5,-36"/>
<text text-anchor="middle" x="1872.5" y="-14.3" font-family="Helvetica,sans-Serif" font-size="14.00">▶ Run GitHub Actions for `src/openai/types/create_embedding_response.py`</text>
</g>
<!-- c3735f7e&#45;fa5c&#45;48dd&#45;abf5&#45;e54782404653&#45;&gt;49a94454&#45;c9a1&#45;4bb3&#45;8f0c&#45;7005a56f0064 -->
<g id="edge7" class="edge">
<title>c3735f7e&#45;fa5c&#45;48dd&#45;abf5&#45;e54782404653&#45;&gt;49a94454&#45;c9a1&#45;4bb3&#45;8f0c&#45;7005a56f0064</title>
<path fill="none" stroke="black" stroke-dasharray="5,2" d="M1872.5,-72.72C1872.5,-64.27 1872.5,-54.89 1872.5,-46.36"/>
<polygon fill="black" stroke="black" points="1876,-46.15 1872.5,-36.15 1869,-46.15 1876,-46.15"/>
</g>
<!-- 178e0824&#45;8bb9&#45;4b04&#45;8f2d&#45;f7b4dbbd163a -->
<g id="node8" class="node">
<title>178e0824&#45;8bb9&#45;4b04&#45;8f2d&#45;f7b4dbbd163a</title>
<ellipse fill="white" stroke="black" cx="2992.5" cy="-99.87" rx="202.88" ry="26.74"/>
<text text-anchor="middle" x="2992.5" y="-103.67" font-family="Helvetica,sans-Serif" font-size="14.00">▶ Modify</text>
<text text-anchor="middle" x="2992.5" y="-88.67" font-family="Helvetica,sans-Serif" font-size="14.00">src/openai/types/file_create_params.py</text>
</g>
<!-- 768e5dce&#45;2552&#45;414a&#45;874f&#45;420d0128e88a&#45;&gt;178e0824&#45;8bb9&#45;4b04&#45;8f2d&#45;f7b4dbbd163a -->
<g id="edge10" class="edge">
<title>768e5dce&#45;2552&#45;414a&#45;874f&#45;420d0128e88a&#45;&gt;178e0824&#45;8bb9&#45;4b04&#45;8f2d&#45;f7b4dbbd163a</title>
<path fill="none" stroke="black" d="M2738.32,-99.87C2751.91,-99.87 2765.49,-99.87 2779.07,-99.87"/>
<polygon fill="black" stroke="black" points="2779.46,-103.37 2789.46,-99.87 2779.46,-96.37 2779.46,-103.37"/>
</g>
<!-- 62c63cb0&#45;fb89&#45;4337&#45;98d9&#45;c500d35ad9b6 -->
<g id="node13" class="node">
<title>62c63cb0&#45;fb89&#45;4337&#45;98d9&#45;c500d35ad9b6</title>
<polygon fill="white" stroke="black" points="2751.5,-36 2163.5,-36 2163.5,0 2751.5,0 2751.5,-36"/>
<text text-anchor="middle" x="2457.5" y="-14.3" font-family="Helvetica,sans-Serif" font-size="14.00">▶ Run GitHub Actions for `src/openai/types/audio/transcription_create_params.py`</text>
</g>
<!-- 768e5dce&#45;2552&#45;414a&#45;874f&#45;420d0128e88a&#45;&gt;62c63cb0&#45;fb89&#45;4337&#45;98d9&#45;c500d35ad9b6 -->
<g id="edge9" class="edge">
<title>768e5dce&#45;2552&#45;414a&#45;874f&#45;420d0128e88a&#45;&gt;62c63cb0&#45;fb89&#45;4337&#45;98d9&#45;c500d35ad9b6</title>
<path fill="none" stroke="black" stroke-dasharray="5,2" d="M2457.5,-72.72C2457.5,-64.27 2457.5,-54.89 2457.5,-46.36"/>
<polygon fill="black" stroke="black" points="2461,-46.15 2457.5,-36.15 2454,-46.15 2461,-46.15"/>
</g>
<!-- 178e0824&#45;8bb9&#45;4b04&#45;8f2d&#45;f7b4dbbd163a&#45;&gt;end -->
<g id="edge13" class="edge">
<title>178e0824&#45;8bb9&#45;4b04&#45;8f2d&#45;f7b4dbbd163a&#45;&gt;end</title>
<path fill="none" stroke="black" d="M3195.58,-99.87C3215.61,-99.87 3232.31,-99.87 3242.54,-99.87"/>
<polygon fill="black" stroke="black" points="3242.87,-103.37 3252.87,-99.87 3242.87,-96.37 3242.87,-103.37"/>
<text text-anchor="middle" x="3224.22" y="-106.67" font-family="Helvetica,sans-Serif" font-size="14.00">Finish</text>
</g>
<!-- a4f0350a&#45;29fb&#45;480b&#45;9957&#45;044fa3bde51d -->
<g id="node14" class="node">
<title>a4f0350a&#45;29fb&#45;480b&#45;9957&#45;044fa3bde51d</title>
<polygon fill="white" stroke="black" points="3247.5,-36 2769.5,-36 2769.5,0 3247.5,0 3247.5,-36"/>
<text text-anchor="middle" x="3008.5" y="-14.3" font-family="Helvetica,sans-Serif" font-size="14.00">▶ Run GitHub Actions for `src/openai/types/file_create_params.py`</text>
</g>
<!-- 178e0824&#45;8bb9&#45;4b04&#45;8f2d&#45;f7b4dbbd163a&#45;&gt;a4f0350a&#45;29fb&#45;480b&#45;9957&#45;044fa3bde51d -->
<g id="edge11" class="edge">
<title>178e0824&#45;8bb9&#45;4b04&#45;8f2d&#45;f7b4dbbd163a&#45;&gt;a4f0350a&#45;29fb&#45;480b&#45;9957&#45;044fa3bde51d</title>
<path fill="none" stroke="black" stroke-dasharray="5,2" d="M2997.74,-72.72C2999.45,-64.18 3001.35,-54.68 3003.08,-46.08"/>
<polygon fill="black" stroke="black" points="3006.53,-46.64 3005.07,-36.15 2999.67,-45.26 3006.53,-46.64"/>
</g>
</g>
</svg>
